  0
SECTION
  2
BLOCKS
  0
ENDSEC
  0
SECTION
  2
ENTITIES
  0
LINE
  8
0
 10
186.417
 20
-35.1687
 11
189.695
 21
-35.1606
  0
LINE
  8
0
 10
189.695
 20
-35.1606
 11
192.972
 21
-35.1473
  0
LINE
  8
0
 10
192.972
 20
-35.1473
 11
196.248
 21
-35.1289
  0
LINE
  8
0
 10
196.248
 20
-35.1289
 11
199.524
 21
-35.1056
  0
LINE
  8
0
 10
199.524
 20
-35.1056
 11
202.799
 21
-35.0776
  0
LINE
  8
0
 10
202.799
 20
-35.0776
 11
206.074
 21
-35.045
  0
LINE
  8
0
 10
206.074
 20
-35.045
 11
209.348
 21
-35.008
  0
LINE
  8
0
 10
209.348
 20
-35.008
 11
212.621
 21
-34.9667
  0
LINE
  8
0
 10
212.621
 20
-34.9667
 11
217.531
 21
-34.897
  0
LINE
  8
0
 10
217.531
 20
-34.897
 11
222.44
 21
-34.8186
  0
LINE
  8
0
 10
222.44
 20
-34.8186
 11
227.348
 21
-34.7317
  0
LINE
  8
0
 10
227.348
 20
-34.7317
 11
232.256
 21
-34.6369
  0
LINE
  8
0
 10
232.256
 20
-34.6369
 11
237.162
 21
-34.5346
  0
LINE
  8
0
 10
237.162
 20
-34.5346
 11
242.069
 21
-34.4251
  0
LINE
  8
0
 10
242.069
 20
-34.4251
 11
246.974
 21
-34.3089
  0
LINE
  8
0
 10
246.974
 20
-34.3089
 11
253.515
 21
-34.144
  0
LINE
  8
0
 10
253.515
 20
-34.144
 11
260.055
 21
-33.9685
  0
LINE
  8
0
 10
260.055
 20
-33.9685
 11
266.594
 21
-33.7832
  0
LINE
  8
0
 10
266.594
 20
-33.7832
 11
273.134
 21
-33.5889
  0
LINE
  8
0
 10
273.134
 20
-33.5889
 11
281.308
 21
-33.3343
  0
LINE
  8
0
 10
281.308
 20
-33.3343
 11
289.482
 21
-33.0679
  0
LINE
  8
0
 10
289.482
 20
-33.0679
 11
299.292
 21
-32.7345
  0
LINE
  8
0
 10
299.292
 20
-32.7345
 11
310.738
 21
-32.329
  0
LINE
  8
0
 10
310.738
 20
-32.329
 11
325.457
 21
-31.786
  0
LINE
  8
0
 10
325.457
 20
-31.786
 11
335.299
 21
-31.4122
  0
LINE
  8
0
 10
335.299
 20
-31.4122
 11
341.896
 21
-31.1525
  0
LINE
  8
0
 10
341.896
 20
-31.1525
 11
348.495
 21
-30.8829
  0
LINE
  8
0
 10
348.495
 20
-30.8829
 11
355.093
 21
-30.604
  0
LINE
  8
0
 10
355.093
 20
-30.604
 11
361.693
 21
-30.3161
  0
LINE
  8
0
 10
361.693
 20
-30.3161
 11
368.293
 21
-30.0196
  0
LINE
  8
0
 10
368.293
 20
-30.0196
 11
374.893
 21
-29.7149
  0
LINE
  8
0
 10
374.893
 20
-29.7149
 11
383.145
 21
-29.323
  0
LINE
  8
0
 10
383.145
 20
-29.323
 11
391.398
 21
-28.9195
  0
LINE
  8
0
 10
391.398
 20
-28.9195
 11
399.652
 21
-28.5051
  0
LINE
  8
0
 10
399.652
 20
-28.5051
 11
409.558
 21
-27.9942
  0
LINE
  8
0
 10
409.558
 20
-27.9942
 11
419.467
 21
-27.4694
  0
LINE
  8
0
 10
419.467
 20
-27.4694
 11
431.03
 21
-26.8409
  0
LINE
  8
0
 10
431.03
 20
-26.8409
 11
442.595
 21
-26.1962
  0
LINE
  8
0
 10
442.595
 20
-26.1962
 11
455.817
 21
-25.4413
  0
LINE
  8
0
 10
455.817
 20
-25.4413
 11
469.042
 21
-24.6687
  0
LINE
  8
0
 10
469.042
 20
-24.6687
 11
485.581
 21
-23.6806
  0
LINE
  8
0
 10
485.581
 20
-23.6806
 11
503.781
 21
-22.5682
  0
LINE
  8
0
 10
503.781
 20
-22.5682
 11
523.646
 21
-21.328
  0
LINE
  8
0
 10
523.646
 20
-21.328
 11
546.837
 21
-19.8508
  0
LINE
  8
0
 10
546.837
 20
-19.8508
 11
573.361
 21
-18.1283
  0
LINE
  8
0
 10
573.361
 20
-18.1283
 11
593.268
 21
-16.8156
  0
LINE
  8
0
 10
593.268
 20
-16.8156
 11
628.139
 21
-14.4804
  0
LINE
  8
0
 10
628.139
 20
-14.4804
 11
661.389
 21
-12.2146
  0
LINE
  8
0
 10
661.389
 20
-12.2146
 11
696.346
 21
-9.79135
  0
LINE
  8
0
 10
696.346
 20
-9.79135
 11
726.349
 21
-7.67464
  0
LINE
  8
0
 10
726.349
 20
-7.67464
 11
751.38
 21
-5.87842
  0
LINE
  8
0
 10
751.38
 20
-5.87842
 11
763.071
 21
-5.02878
  0
LINE
  8
0
 10
763.071
 20
-5.02878
 11
763.071
 21
-5
  0
LINE
  8
0
 10
763.071
 20
-5
 11
80
 21
-5
  0
LINE
  8
0
 10
80
 20
-5
 11
80
 21
5
  0
LINE
  8
0
 10
80
 20
5
 11
805.324
 21
5
  0
LINE
  8
0
 10
805.324
 20
5
 11
805.324
 21
5.16151
  0
LINE
  8
0
 10
805.324
 20
5.16151
 11
802.032
 21
5.83337
  0
LINE
  8
0
 10
802.032
 20
5.83337
 11
797.092
 21
6.83408
  0
LINE
  8
0
 10
797.092
 20
6.83408
 11
792.151
 21
7.82631
  0
LINE
  8
0
 10
792.151
 20
7.82631
 11
787.209
 21
8.81015
  0
LINE
  8
0
 10
787.209
 20
8.81015
 11
782.265
 21
9.78564
  0
LINE
  8
0
 10
782.265
 20
9.78564
 11
777.321
 21
10.7528
  0
LINE
  8
0
 10
777.321
 20
10.7528
 11
774.024
 21
11.3931
  0
LINE
  8
0
 10
774.024
 20
11.3931
 11
769.077
 21
12.3466
  0
LINE
  8
0
 10
769.077
 20
12.3466
 11
765.779
 21
12.9777
  0
LINE
  8
0
 10
765.779
 20
12.9777
 11
760.83
 21
13.9176
  0
LINE
  8
0
 10
760.83
 20
13.9176
 11
755.88
 21
14.8494
  0
LINE
  8
0
 10
755.88
 20
14.8494
 11
750.93
 21
15.7733
  0
LINE
  8
0
 10
750.93
 20
15.7733
 11
745.978
 21
16.6891
  0
LINE
  8
0
 10
745.978
 20
16.6891
 11
741.025
 21
17.5969
  0
LINE
  8
0
 10
741.025
 20
17.5969
 11
736.071
 21
18.4969
  0
LINE
  8
0
 10
736.071
 20
18.4969
 11
731.115
 21
19.3889
  0
LINE
  8
0
 10
731.115
 20
19.3889
 11
726.159
 21
20.2732
  0
LINE
  8
0
 10
726.159
 20
20.2732
 11
721.202
 21
21.1496
  0
LINE
  8
0
 10
721.202
 20
21.1496
 11
716.243
 21
22.0182
  0
LINE
  8
0
 10
716.243
 20
22.0182
 11
711.284
 21
22.8791
  0
LINE
  8
0
 10
711.284
 20
22.8791
 11
706.323
 21
23.7323
  0
LINE
  8
0
 10
706.323
 20
23.7323
 11
701.362
 21
24.5778
  0
LINE
  8
0
 10
701.362
 20
24.5778
 11
696.4
 21
25.4156
  0
LINE
  8
0
 10
696.4
 20
25.4156
 11
691.436
 21
26.2457
  0
LINE
  8
0
 10
691.436
 20
26.2457
 11
686.472
 21
27.0682
  0
LINE
  8
0
 10
686.472
 20
27.0682
 11
681.506
 21
27.8831
  0
LINE
  8
0
 10
681.506
 20
27.8831
 11
676.54
 21
28.6904
  0
LINE
  8
0
 10
676.54
 20
28.6904
 11
671.572
 21
29.4902
  0
LINE
  8
0
 10
671.572
 20
29.4902
 11
666.604
 21
30.2823
  0
LINE
  8
0
 10
666.604
 20
30.2823
 11
661.635
 21
31.0669
  0
LINE
  8
0
 10
661.635
 20
31.0669
 11
656.664
 21
31.844
  0
LINE
  8
0
 10
656.664
 20
31.844
 11
651.693
 21
32.6135
  0
LINE
  8
0
 10
651.693
 20
32.6135
 11
646.721
 21
33.3754
  0
LINE
  8
0
 10
646.721
 20
33.3754
 11
641.748
 21
34.1298
  0
LINE
  8
0
 10
641.748
 20
34.1298
 11
638.433
 21
34.6286
  0
LINE
  8
0
 10
638.433
 20
34.6286
 11
633.458
 21
35.3704
  0
LINE
  8
0
 10
633.458
 20
35.3704
 11
628.483
 21
36.1047
  0
LINE
  8
0
 10
628.483
 20
36.1047
 11
623.506
 21
36.8315
  0
LINE
  8
0
 10
623.506
 20
36.8315
 11
618.529
 21
37.5507
  0
LINE
  8
0
 10
618.529
 20
37.5507
 11
613.551
 21
38.2623
  0
LINE
  8
0
 10
613.551
 20
38.2623
 11
608.573
 21
38.9663
  0
LINE
  8
0
 10
608.573
 20
38.9663
 11
603.593
 21
39.6628
  0
LINE
  8
0
 10
603.593
 20
39.6628
 11
598.612
 21
40.3516
  0
LINE
  8
0
 10
598.612
 20
40.3516
 11
593.631
 21
41.0329
  0
LINE
  8
0
 10
593.631
 20
41.0329
 11
588.649
 21
41.7064
  0
LINE
  8
0
 10
588.649
 20
41.7064
 11
583.666
 21
42.3723
  0
LINE
  8
0
 10
583.666
 20
42.3723
 11
578.682
 21
43.0305
  0
LINE
  8
0
 10
578.682
 20
43.0305
 11
573.698
 21
43.681
  0
LINE
  8
0
 10
573.698
 20
43.681
 11
568.712
 21
44.3238
  0
LINE
  8
0
 10
568.712
 20
44.3238
 11
563.726
 21
44.9587
  0
LINE
  8
0
 10
563.726
 20
44.9587
 11
558.739
 21
45.5859
  0
LINE
  8
0
 10
558.739
 20
45.5859
 11
553.751
 21
46.2052
  0
LINE
  8
0
 10
553.751
 20
46.2052
 11
548.763
 21
46.8166
  0
LINE
  8
0
 10
548.763
 20
46.8166
 11
543.774
 21
47.42
  0
LINE
  8
0
 10
543.774
 20
47.42
 11
538.784
 21
48.0156
  0
LINE
  8
0
 10
538.784
 20
48.0156
 11
533.793
 21
48.603
  0
LINE
  8
0
 10
533.793
 20
48.603
 11
528.802
 21
49.1825
  0
LINE
  8
0
 10
528.802
 20
49.1825
 11
523.81
 21
49.7538
  0
LINE
  8
0
 10
523.81
 20
49.7538
 11
518.817
 21
50.3169
  0
LINE
  8
0
 10
518.817
 20
50.3169
 11
513.823
 21
50.8718
  0
LINE
  8
0
 10
513.823
 20
50.8718
 11
508.829
 21
51.4185
  0
LINE
  8
0
 10
508.829
 20
51.4185
 11
503.834
 21
51.9568
  0
LINE
  8
0
 10
503.834
 20
51.9568
 11
498.838
 21
52.4867
  0
LINE
  8
0
 10
498.838
 20
52.4867
 11
493.842
 21
53.0081
  0
LINE
  8
0
 10
493.842
 20
53.0081
 11
490.511
 21
53.351
  0
LINE
  8
0
 10
490.511
 20
53.351
 11
485.514
 21
53.8581
  0
LINE
  8
0
 10
485.514
 20
53.8581
 11
480.516
 21
54.3566
  0
LINE
  8
0
 10
480.516
 20
54.3566
 11
475.517
 21
54.8464
  0
LINE
  8
0
 10
475.517
 20
54.8464
 11
470.518
 21
55.3274
  0
LINE
  8
0
 10
470.518
 20
55.3274
 11
465.518
 21
55.7995
  0
LINE
  8
0
 10
465.518
 20
55.7995
 11
460.517
 21
56.2626
  0
LINE
  8
0
 10
460.517
 20
56.2626
 11
457.183
 21
56.5663
  0
LINE
  8
0
 10
457.183
 20
56.5663
 11
452.182
 21
57.0142
  0
LINE
  8
0
 10
452.182
 20
57.0142
 11
447.18
 21
57.4529
  0
LINE
  8
0
 10
447.18
 20
57.4529
 11
443.845
 21
57.7403
  0
LINE
  8
0
 10
443.845
 20
57.7403
 11
440.51
 21
58.0234
  0
LINE
  8
0
 10
440.51
 20
58.0234
 11
437.174
 21
58.3024
  0
LINE
  8
0
 10
437.174
 20
58.3024
 11
433.838
 21
58.5771
  0
LINE
  8
0
 10
433.838
 20
58.5771
 11
430.502
 21
58.8476
  0
LINE
  8
0
 10
430.502
 20
58.8476
 11
427.166
 21
59.1138
  0
LINE
  8
0
 10
427.166
 20
59.1138
 11
423.83
 21
59.3757
  0
LINE
  8
0
 10
423.83
 20
59.3757
 11
420.493
 21
59.6332
  0
LINE
  8
0
 10
420.493
 20
59.6332
 11
417.156
 21
59.8863
  0
LINE
  8
0
 10
417.156
 20
59.8863
 11
413.819
 21
60.135
  0
LINE
  8
0
 10
413.819
 20
60.135
 11
410.482
 21
60.3793
  0
LINE
  8
0
 10
410.482
 20
60.3793
 11
407.144
 21
60.619
  0
LINE
  8
0
 10
407.144
 20
60.619
 11
403.806
 21
60.8543
  0
LINE
  8
0
 10
403.806
 20
60.8543
 11
400.468
 21
61.085
  0
LINE
  8
0
 10
400.468
 20
61.085
 11
397.13
 21
61.311
  0
LINE
  8
0
 10
397.13
 20
61.311
 11
393.792
 21
61.5324
  0
LINE
  8
0
 10
393.792
 20
61.5324
 11
390.453
 21
61.7492
  0
LINE
  8
0
 10
390.453
 20
61.7492
 11
387.114
 21
61.9612
  0
LINE
  8
0
 10
387.114
 20
61.9612
 11
383.775
 21
62.1685
  0
LINE
  8
0
 10
383.775
 20
62.1685
 11
380.436
 21
62.3709
  0
LINE
  8
0
 10
380.436
 20
62.3709
 11
377.097
 21
62.5685
  0
LINE
  8
0
 10
377.097
 20
62.5685
 11
373.757
 21
62.7612
  0
LINE
  8
0
 10
373.757
 20
62.7612
 11
370.417
 21
62.949
  0
LINE
  8
0
 10
370.417
 20
62.949
 11
367.078
 21
63.1318
  0
LINE
  8
0
 10
367.078
 20
63.1318
 11
363.737
 21
63.3096
  0
LINE
  8
0
 10
363.737
 20
63.3096
 11
360.397
 21
63.4823
  0
LINE
  8
0
 10
360.397
 20
63.4823
 11
357.057
 21
63.6499
  0
LINE
  8
0
 10
357.057
 20
63.6499
 11
353.716
 21
63.8123
  0
LINE
  8
0
 10
353.716
 20
63.8123
 11
350.376
 21
63.9694
  0
LINE
  8
0
 10
350.376
 20
63.9694
 11
347.035
 21
64.1213
  0
LINE
  8
0
 10
347.035
 20
64.1213
 11
343.694
 21
64.2679
  0
LINE
  8
0
 10
343.694
 20
64.2679
 11
340.353
 21
64.4091
  0
LINE
  8
0
 10
340.353
 20
64.4091
 11
337.012
 21
64.5449
  0
LINE
  8
0
 10
337.012
 20
64.5449
 11
333.671
 21
64.6752
  0
LINE
  8
0
 10
333.671
 20
64.6752
 11
330.316
 21
64.7997
  0
LINE
  8
0
 10
330.316
 20
64.7997
 11
326.948
 21
64.9169
  0
LINE
  8
0
 10
326.948
 20
64.9169
 11
323.579
 21
65.0266
  0
LINE
  8
0
 10
323.579
 20
65.0266
 11
320.21
 21
65.1287
  0
LINE
  8
0
 10
320.21
 20
65.1287
 11
318.526
 21
65.1769
  0
LINE
  8
0
 10
318.526
 20
65.1769
 11
315.156
 21
65.2674
  0
LINE
  8
0
 10
315.156
 20
65.2674
 11
313.472
 21
65.3098
  0
LINE
  8
0
 10
313.472
 20
65.3098
 11
310.102
 21
65.3887
  0
LINE
  8
0
 10
310.102
 20
65.3887
 11
308.418
 21
65.4252
  0
LINE
  8
0
 10
308.418
 20
65.4252
 11
305.048
 21
65.4923
  0
LINE
  8
0
 10
305.048
 20
65.4923
 11
303.363
 21
65.5229
  0
LINE
  8
0
 10
303.363
 20
65.5229
 11
299.993
 21
65.578
  0
LINE
  8
0
 10
299.993
 20
65.578
 11
296.623
 21
65.625
  0
LINE
  8
0
 10
296.623
 20
65.625
 11
294.938
 21
65.6455
  0
LINE
  8
0
 10
294.938
 20
65.6455
 11
291.568
 21
65.6803
  0
LINE
  8
0
 10
291.568
 20
65.6803
 11
288.198
 21
65.7069
  0
LINE
  8
0
 10
288.198
 20
65.7069
 11
284.828
 21
65.7251
  0
LINE
  8
0
 10
284.828
 20
65.7251
 11
283.143
 21
65.7311
  0
LINE
  8
0
 10
283.143
 20
65.7311
 11
279.772
 21
65.7367
  0
LINE
  8
0
 10
279.772
 20
65.7367
 11
278.087
 21
65.7363
  0
LINE
  8
0
 10
278.087
 20
65.7363
 11
274.717
 21
65.7291
  0
LINE
  8
0
 10
274.717
 20
65.7291
 11
273.031
 21
65.7222
  0
LINE
  8
0
 10
273.031
 20
65.7222
 11
271.346
 21
65.7132
  0
LINE
  8
0
 10
271.346
 20
65.7132
 11
269.661
 21
65.702
  0
LINE
  8
0
 10
269.661
 20
65.702
 11
267.976
 21
65.6886
  0
LINE
  8
0
 10
267.976
 20
65.6886
 11
266.291
 21
65.673
  0
LINE
  8
0
 10
266.291
 20
65.673
 11
264.606
 21
65.6552
  0
LINE
  8
0
 10
264.606
 20
65.6552
 11
262.92
 21
65.6352
  0
LINE
  8
0
 10
262.92
 20
65.6352
 11
261.235
 21
65.6129
  0
LINE
  8
0
 10
261.235
 20
65.6129
 11
259.55
 21
65.5884
  0
LINE
  8
0
 10
259.55
 20
65.5884
 11
257.865
 21
65.5616
  0
LINE
  8
0
 10
257.865
 20
65.5616
 11
256.18
 21
65.5326
  0
LINE
  8
0
 10
256.18
 20
65.5326
 11
254.495
 21
65.5012
  0
LINE
  8
0
 10
254.495
 20
65.5012
 11
252.81
 21
65.4676
  0
LINE
  8
0
 10
252.81
 20
65.4676
 11
251.125
 21
65.4317
  0
LINE
  8
0
 10
251.125
 20
65.4317
 11
249.44
 21
65.3934
  0
LINE
  8
0
 10
249.44
 20
65.3934
 11
247.755
 21
65.3528
  0
LINE
  8
0
 10
247.755
 20
65.3528
 11
246.07
 21
65.3099
  0
LINE
  8
0
 10
246.07
 20
65.3099
 11
244.386
 21
65.2646
  0
LINE
  8
0
 10
244.386
 20
65.2646
 11
242.701
 21
65.2169
  0
LINE
  8
0
 10
242.701
 20
65.2169
 11
241.016
 21
65.1668
  0
LINE
  8
0
 10
241.016
 20
65.1668
 11
239.331
 21
65.1144
  0
LINE
  8
0
 10
239.331
 20
65.1144
 11
237.647
 21
65.0595
  0
LINE
  8
0
 10
237.647
 20
65.0595
 11
235.962
 21
65.0022
  0
LINE
  8
0
 10
235.962
 20
65.0022
 11
234.278
 21
64.9425
  0
LINE
  8
0
 10
234.278
 20
64.9425
 11
232.593
 21
64.8803
  0
LINE
  8
0
 10
232.593
 20
64.8803
 11
230.909
 21
64.8156
  0
LINE
  8
0
 10
230.909
 20
64.8156
 11
229.224
 21
64.7485
  0
LINE
  8
0
 10
229.224
 20
64.7485
 11
227.54
 21
64.6789
  0
LINE
  8
0
 10
227.54
 20
64.6789
 11
225.856
 21
64.6067
  0
LINE
  8
0
 10
225.856
 20
64.6067
 11
224.172
 21
64.532
  0
LINE
  8
0
 10
224.172
 20
64.532
 11
222.488
 21
64.4548
  0
LINE
  8
0
 10
222.488
 20
64.4548
 11
220.804
 21
64.375
  0
LINE
  8
0
 10
220.804
 20
64.375
 11
219.12
 21
64.2927
  0
LINE
  8
0
 10
219.12
 20
64.2927
 11
217.436
 21
64.2077
  0
LINE
  8
0
 10
217.436
 20
64.2077
 11
215.752
 21
64.1202
  0
LINE
  8
0
 10
215.752
 20
64.1202
 11
214.069
 21
64.03
  0
LINE
  8
0
 10
214.069
 20
64.03
 11
212.385
 21
63.9372
  0
LINE
  8
0
 10
212.385
 20
63.9372
 11
210.702
 21
63.8417
  0
LINE
  8
0
 10
210.702
 20
63.8417
 11
209.019
 21
63.7436
  0
LINE
  8
0
 10
209.019
 20
63.7436
 11
207.335
 21
63.6428
  0
LINE
  8
0
 10
207.335
 20
63.6428
 11
205.652
 21
63.5392
  0
LINE
  8
0
 10
205.652
 20
63.5392
 11
203.969
 21
63.4329
  0
LINE
  8
0
 10
203.969
 20
63.4329
 11
202.286
 21
63.3239
  0
LINE
  8
0
 10
202.286
 20
63.3239
 11
200.604
 21
63.2121
  0
LINE
  8
0
 10
200.604
 20
63.2121
 11
198.921
 21
63.0976
  0
LINE
  8
0
 10
198.921
 20
63.0976
 11
197.239
 21
62.9802
  0
LINE
  8
0
 10
197.239
 20
62.9802
 11
195.556
 21
62.86
  0
LINE
  8
0
 10
195.556
 20
62.86
 11
193.874
 21
62.7369
  0
LINE
  8
0
 10
193.874
 20
62.7369
 11
192.192
 21
62.611
  0
LINE
  8
0
 10
192.192
 20
62.611
 11
190.51
 21
62.4822
  0
LINE
  8
0
 10
190.51
 20
62.4822
 11
188.828
 21
62.3505
  0
LINE
  8
0
 10
188.828
 20
62.3505
 11
187.147
 21
62.2159
  0
LINE
  8
0
 10
187.147
 20
62.2159
 11
185.465
 21
62.0783
  0
LINE
  8
0
 10
185.465
 20
62.0783
 11
183.784
 21
61.9378
  0
LINE
  8
0
 10
183.784
 20
61.9378
 11
182.103
 21
61.7942
  0
LINE
  8
0
 10
182.103
 20
61.7942
 11
180.422
 21
61.6477
  0
LINE
  8
0
 10
180.422
 20
61.6477
 11
178.741
 21
61.4981
  0
LINE
  8
0
 10
178.741
 20
61.4981
 11
177.06
 21
61.3454
  0
LINE
  8
0
 10
177.06
 20
61.3454
 11
175.38
 21
61.1896
  0
LINE
  8
0
 10
175.38
 20
61.1896
 11
173.699
 21
61.0307
  0
LINE
  8
0
 10
173.699
 20
61.0307
 11
172.019
 21
60.8687
  0
LINE
  8
0
 10
172.019
 20
60.8687
 11
170.339
 21
60.7035
  0
LINE
  8
0
 10
170.339
 20
60.7035
 11
168.66
 21
60.5351
  0
LINE
  8
0
 10
168.66
 20
60.5351
 11
166.98
 21
60.3635
  0
LINE
  8
0
 10
166.98
 20
60.3635
 11
165.301
 21
60.1887
  0
LINE
  8
0
 10
165.301
 20
60.1887
 11
163.622
 21
60.0105
  0
LINE
  8
0
 10
163.622
 20
60.0105
 11
161.943
 21
59.8291
  0
LINE
  8
0
 10
161.943
 20
59.8291
 11
160.265
 21
59.6443
  0
LINE
  8
0
 10
160.265
 20
59.6443
 11
158.586
 21
59.4561
  0
LINE
  8
0
 10
158.586
 20
59.4561
 11
156.908
 21
59.2646
  0
LINE
  8
0
 10
156.908
 20
59.2646
 11
155.23
 21
59.0696
  0
LINE
  8
0
 10
155.23
 20
59.0696
 11
153.552
 21
58.8712
  0
LINE
  8
0
 10
153.552
 20
58.8712
 11
151.875
 21
58.6692
  0
LINE
  8
0
 10
151.875
 20
58.6692
 11
150.198
 21
58.4638
  0
LINE
  8
0
 10
150.198
 20
58.4638
 11
148.521
 21
58.2547
  0
LINE
  8
0
 10
148.521
 20
58.2547
 11
146.845
 21
58.0421
  0
LINE
  8
0
 10
146.845
 20
58.0421
 11
145.168
 21
57.8259
  0
LINE
  8
0
 10
145.168
 20
57.8259
 11
143.492
 21
57.6059
  0
LINE
  8
0
 10
143.492
 20
57.6059
 11
141.816
 21
57.3823
  0
LINE
  8
0
 10
141.816
 20
57.3823
 11
140.141
 21
57.1549
  0
LINE
  8
0
 10
140.141
 20
57.1549
 11
138.466
 21
56.9237
  0
LINE
  8
0
 10
138.466
 20
56.9237
 11
136.791
 21
56.6886
  0
LINE
  8
0
 10
136.791
 20
56.6886
 11
135.116
 21
56.4497
  0
LINE
  8
0
 10
135.116
 20
56.4497
 11
133.442
 21
56.2069
  0
LINE
  8
0
 10
133.442
 20
56.2069
 11
131.768
 21
55.9601
  0
LINE
  8
0
 10
131.768
 20
55.9601
 11
130.095
 21
55.7093
  0
LINE
  8
0
 10
130.095
 20
55.7093
 11
128.422
 21
55.4545
  0
LINE
  8
0
 10
128.422
 20
55.4545
 11
126.749
 21
55.1955
  0
LINE
  8
0
 10
126.749
 20
55.1955
 11
125.076
 21
54.9324
  0
LINE
  8
0
 10
125.076
 20
54.9324
 11
123.404
 21
54.6651
  0
LINE
  8
0
 10
123.404
 20
54.6651
 11
121.733
 21
54.3935
  0
LINE
  8
0
 10
121.733
 20
54.3935
 11
120.061
 21
54.1176
  0
LINE
  8
0
 10
120.061
 20
54.1176
 11
118.39
 21
53.8374
  0
LINE
  8
0
 10
118.39
 20
53.8374
 11
116.72
 21
53.5527
  0
LINE
  8
0
 10
116.72
 20
53.5527
 11
115.05
 21
53.2635
  0
LINE
  8
0
 10
115.05
 20
53.2635
 11
113.38
 21
52.9697
  0
LINE
  8
0
 10
113.38
 20
52.9697
 11
111.711
 21
52.6714
  0
LINE
  8
0
 10
111.711
 20
52.6714
 11
110.042
 21
52.3683
  0
LINE
  8
0
 10
110.042
 20
52.3683
 11
108.374
 21
52.0605
  0
LINE
  8
0
 10
108.374
 20
52.0605
 11
106.706
 21
51.7479
  0
LINE
  8
0
 10
106.706
 20
51.7479
 11
105.038
 21
51.4304
  0
LINE
  8
0
 10
105.038
 20
51.4304
 11
103.372
 21
51.1079
  0
LINE
  8
0
 10
103.372
 20
51.1079
 11
101.705
 21
50.7804
  0
LINE
  8
0
 10
101.705
 20
50.7804
 11
100.039
 21
50.4477
  0
LINE
  8
0
 10
100.039
 20
50.4477
 11
98.3738
 21
50.1098
  0
LINE
  8
0
 10
98.3738
 20
50.1098
 11
96.709
 21
49.7666
  0
LINE
  8
0
 10
96.709
 20
49.7666
 11
95.0447
 21
49.418
  0
LINE
  8
0
 10
95.0447
 20
49.418
 11
93.3809
 21
49.0639
  0
LINE
  8
0
 10
93.3809
 20
49.0639
 11
91.7178
 21
48.7043
  0
LINE
  8
0
 10
91.7178
 20
48.7043
 11
90.0552
 21
48.3389
  0
LINE
  8
0
 10
90.0552
 20
48.3389
 11
88.3933
 21
47.9677
  0
LINE
  8
0
 10
88.3933
 20
47.9677
 11
86.7319
 21
47.5906
  0
LINE
  8
0
 10
86.7319
 20
47.5906
 11
85.0712
 21
47.2074
  0
LINE
  8
0
 10
85.0712
 20
47.2074
 11
83.4112
 21
46.8181
  0
LINE
  8
0
 10
83.4112
 20
46.8181
 11
81.7518
 21
46.4225
  0
LINE
  8
0
 10
81.7518
 20
46.4225
 11
80.0931
 21
46.0205
  0
LINE
  8
0
 10
80.0931
 20
46.0205
 11
78.4352
 21
45.612
  0
LINE
  8
0
 10
78.4352
 20
45.612
 11
76.778
 21
45.1967
  0
LINE
  8
0
 10
76.778
 20
45.1967
 11
75.1215
 21
44.7745
  0
LINE
  8
0
 10
75.1215
 20
44.7745
 11
73.4658
 21
44.3453
  0
LINE
  8
0
 10
73.4658
 20
44.3453
 11
71.8109
 21
43.9089
  0
LINE
  8
0
 10
71.8109
 20
43.9089
 11
70.1568
 21
43.4651
  0
LINE
  8
0
 10
70.1568
 20
43.4651
 11
68.5035
 21
43.0138
  0
LINE
  8
0
 10
68.5035
 20
43.0138
 11
66.8511
 21
42.5546
  0
LINE
  8
0
 10
66.8511
 20
42.5546
 11
65.1997
 21
42.0875
  0
LINE
  8
0
 10
65.1997
 20
42.0875
 11
63.5491
 21
41.6121
  0
LINE
  8
0
 10
63.5491
 20
41.6121
 11
61.8995
 21
41.1283
  0
LINE
  8
0
 10
61.8995
 20
41.1283
 11
60.2509
 21
40.6357
  0
LINE
  8
0
 10
60.2509
 20
40.6357
 11
58.6033
 21
40.1342
  0
LINE
  8
0
 10
58.6033
 20
40.1342
 11
56.9568
 21
39.6233
  0
LINE
  8
0
 10
56.9568
 20
39.6233
 11
55.3114
 21
39.1029
  0
LINE
  8
0
 10
55.3114
 20
39.1029
 11
53.6671
 21
38.5725
  0
LINE
  8
0
 10
53.6671
 20
38.5725
 11
52.024
 21
38.0318
  0
LINE
  8
0
 10
52.024
 20
38.0318
 11
50.3822
 21
37.4804
  0
LINE
  8
0
 10
50.3822
 20
37.4804
 11
48.7416
 21
36.918
  0
LINE
  8
0
 10
48.7416
 20
36.918
 11
47.1023
 21
36.344
  0
LINE
  8
0
 10
47.1023
 20
36.344
 11
45.4645
 21
35.7579
  0
LINE
  8
0
 10
45.4645
 20
35.7579
 11
43.828
 21
35.1593
  0
LINE
  8
0
 10
43.828
 20
35.1593
 11
42.1932
 21
34.5476
  0
LINE
  8
0
 10
42.1932
 20
34.5476
 11
40.5599
 21
33.9221
  0
LINE
  8
0
 10
40.5599
 20
33.9221
 11
38.9282
 21
33.2822
  0
LINE
  8
0
 10
38.9282
 20
33.2822
 11
37.2984
 21
32.6271
  0
LINE
  8
0
 10
37.2984
 20
32.6271
 11
35.6704
 21
31.9559
  0
LINE
  8
0
 10
35.6704
 20
31.9559
 11
34.0443
 21
31.2677
  0
LINE
  8
0
 10
34.0443
 20
31.2677
 11
32.4204
 21
30.5616
  0
LINE
  8
0
 10
32.4204
 20
30.5616
 11
30.7986
 21
29.8362
  0
LINE
  8
0
 10
30.7986
 20
29.8362
 11
29.1792
 21
29.0905
  0
LINE
  8
0
 10
29.1792
 20
29.0905
 11
27.5623
 21
28.3227
  0
LINE
  8
0
 10
27.5623
 20
28.3227
 11
25.9481
 21
27.5313
  0
LINE
  8
0
 10
25.9481
 20
27.5313
 11
24.3369
 21
26.7144
  0
LINE
  8
0
 10
24.3369
 20
26.7144
 11
22.7287
 21
25.8696
  0
LINE
  8
0
 10
22.7287
 20
25.8696
 11
21.1241
 21
24.9944
  0
LINE
  8
0
 10
21.1241
 20
24.9944
 11
19.5232
 21
24.0857
  0
LINE
  8
0
 10
19.5232
 20
24.0857
 11
17.9265
 21
23.1397
  0
LINE
  8
0
 10
17.9265
 20
23.1397
 11
16.3345
 21
22.1519
  0
LINE
  8
0
 10
16.3345
 20
22.1519
 11
14.7477
 21
21.1169
  0
LINE
  8
0
 10
14.7477
 20
21.1169
 11
13.1668
 21
20.0275
  0
LINE
  8
0
 10
13.1668
 20
20.0275
 11
11.5929
 21
18.8749
  0
LINE
  8
0
 10
11.5929
 20
18.8749
 11
10.0272
 21
17.6472
  0
LINE
  8
0
 10
10.0272
 20
17.6472
 11
8.47134
 21
16.3279
  0
LINE
  8
0
 10
8.47134
 20
16.3279
 11
6.92776
 21
14.8937
  0
LINE
  8
0
 10
6.92776
 20
14.8937
 11
5.40021
 21
13.3083
  0
LINE
  8
0
 10
5.40021
 20
13.3083
 11
3.89484
 21
11.5111
  0
LINE
  8
0
 10
3.89484
 20
11.5111
 11
2.42372
 21
9.38354
  0
LINE
  8
0
 10
2.42372
 20
9.38354
 11
1.01779
 21
6.61984
  0
LINE
  8
0
 10
1.01779
 20
6.61984
 11
0
 21
0
  0
LINE
  8
0
 10
0
 20
0
 11
2.30219
 21
-6.28867
  0
LINE
  8
0
 10
2.30219
 20
-6.28867
 11
4.21626
 21
-8.72287
  0
LINE
  8
0
 10
4.21626
 20
-8.72287
 11
6.06516
 21
-10.5226
  0
LINE
  8
0
 10
6.06516
 20
-10.5226
 11
7.87978
 21
-11.9936
  0
LINE
  8
0
 10
7.87978
 20
-11.9936
 11
9.67221
 21
-13.2544
  0
LINE
  8
0
 10
9.67221
 20
-13.2544
 11
11.4486
 21
-14.3658
  0
LINE
  8
0
 10
11.4486
 20
-14.3658
 11
13.2128
 21
-15.3638
  0
LINE
  8
0
 10
13.2128
 20
-15.3638
 11
14.9671
 21
-16.272
  0
LINE
  8
0
 10
14.9671
 20
-16.272
 11
16.7132
 21
-17.1068
  0
LINE
  8
0
 10
16.7132
 20
-17.1068
 11
18.4523
 21
-17.8799
  0
LINE
  8
0
 10
18.4523
 20
-17.8799
 11
20.1855
 21
-18.6003
  0
LINE
  8
0
 10
20.1855
 20
-18.6003
 11
21.9135
 21
-19.2752
  0
LINE
  8
0
 10
21.9135
 20
-19.2752
 11
23.6368
 21
-19.9099
  0
LINE
  8
0
 10
23.6368
 20
-19.9099
 11
25.3559
 21
-20.5091
  0
LINE
  8
0
 10
25.3559
 20
-20.5091
 11
27.0713
 21
-21.0764
  0
LINE
  8
0
 10
27.0713
 20
-21.0764
 11
28.7831
 21
-21.6149
  0
LINE
  8
0
 10
28.7831
 20
-21.6149
 11
30.4919
 21
-22.1272
  0
LINE
  8
0
 10
30.4919
 20
-22.1272
 11
32.1977
 21
-22.6156
  0
LINE
  8
0
 10
32.1977
 20
-22.6156
 11
33.9008
 21
-23.0821
  0
LINE
  8
0
 10
33.9008
 20
-23.0821
 11
35.6014
 21
-23.5282
  0
LINE
  8
0
 10
35.6014
 20
-23.5282
 11
37.2996
 21
-23.9556
  0
LINE
  8
0
 10
37.2996
 20
-23.9556
 11
38.9957
 21
-24.3655
  0
LINE
  8
0
 10
38.9957
 20
-24.3655
 11
40.6896
 21
-24.759
  0
LINE
  8
0
 10
40.6896
 20
-24.759
 11
42.3816
 21
-25.1372
  0
LINE
  8
0
 10
42.3816
 20
-25.1372
 11
44.0718
 21
-25.501
  0
LINE
  8
0
 10
44.0718
 20
-25.501
 11
45.7601
 21
-25.8512
  0
LINE
  8
0
 10
45.7601
 20
-25.8512
 11
47.4468
 21
-26.1887
  0
LINE
  8
0
 10
47.4468
 20
-26.1887
 11
49.132
 21
-26.5141
  0
LINE
  8
0
 10
49.132
 20
-26.5141
 11
50.8155
 21
-26.828
  0
LINE
  8
0
 10
50.8155
 20
-26.828
 11
52.4977
 21
-27.131
  0
LINE
  8
0
 10
52.4977
 20
-27.131
 11
54.1784
 21
-27.4236
  0
LINE
  8
0
 10
54.1784
 20
-27.4236
 11
55.8578
 21
-27.7063
  0
LINE
  8
0
 10
55.8578
 20
-27.7063
 11
57.536
 21
-27.9797
  0
LINE
  8
0
 10
57.536
 20
-27.9797
 11
59.2129
 21
-28.2439
  0
LINE
  8
0
 10
59.2129
 20
-28.2439
 11
60.8886
 21
-28.4996
  0
LINE
  8
0
 10
60.8886
 20
-28.4996
 11
62.5632
 21
-28.747
  0
LINE
  8
0
 10
62.5632
 20
-28.747
 11
64.2367
 21
-28.9864
  0
LINE
  8
0
 10
64.2367
 20
-28.9864
 11
65.9091
 21
-29.2182
  0
LINE
  8
0
 10
65.9091
 20
-29.2182
 11
67.5805
 21
-29.4427
  0
LINE
  8
0
 10
67.5805
 20
-29.4427
 11
69.2509
 21
-29.6601
  0
LINE
  8
0
 10
69.2509
 20
-29.6601
 11
70.9203
 21
-29.8707
  0
LINE
  8
0
 10
70.9203
 20
-29.8707
 11
72.5889
 21
-30.0747
  0
LINE
  8
0
 10
72.5889
 20
-30.0747
 11
74.2565
 21
-30.2724
  0
LINE
  8
0
 10
74.2565
 20
-30.2724
 11
75.9232
 21
-30.464
  0
LINE
  8
0
 10
75.9232
 20
-30.464
 11
77.5891
 21
-30.6497
  0
LINE
  8
0
 10
77.5891
 20
-30.6497
 11
79.2542
 21
-30.8296
  0
LINE
  8
0
 10
79.2542
 20
-30.8296
 11
80.9185
 21
-31.004
  0
LINE
  8
0
 10
80.9185
 20
-31.004
 11
82.582
 21
-31.173
  0
LINE
  8
0
 10
82.582
 20
-31.173
 11
84.2448
 21
-31.3368
  0
LINE
  8
0
 10
84.2448
 20
-31.3368
 11
85.9069
 21
-31.4955
  0
LINE
  8
0
 10
85.9069
 20
-31.4955
 11
87.5682
 21
-31.6494
  0
LINE
  8
0
 10
87.5682
 20
-31.6494
 11
89.2288
 21
-31.7985
  0
LINE
  8
0
 10
89.2288
 20
-31.7985
 11
90.8888
 21
-31.9429
  0
LINE
  8
0
 10
90.8888
 20
-31.9429
 11
92.5481
 21
-32.0829
  0
LINE
  8
0
 10
92.5481
 20
-32.0829
 11
94.2067
 21
-32.2184
  0
LINE
  8
0
 10
94.2067
 20
-32.2184
 11
95.8648
 21
-32.3498
  0
LINE
  8
0
 10
95.8648
 20
-32.3498
 11
97.5222
 21
-32.4769
  0
LINE
  8
0
 10
97.5222
 20
-32.4769
 11
99.1791
 21
-32.6001
  0
LINE
  8
0
 10
99.1791
 20
-32.6001
 11
100.835
 21
-32.7193
  0
LINE
  8
0
 10
100.835
 20
-32.7193
 11
102.491
 21
-32.8346
  0
LINE
  8
0
 10
102.491
 20
-32.8346
 11
104.146
 21
-32.9463
  0
LINE
  8
0
 10
104.146
 20
-32.9463
 11
105.801
 21
-33.0542
  0
LINE
  8
0
 10
105.801
 20
-33.0542
 11
107.455
 21
-33.1587
  0
LINE
  8
0
 10
107.455
 20
-33.1587
 11
109.108
 21
-33.2596
  0
LINE
  8
0
 10
109.108
 20
-33.2596
 11
110.762
 21
-33.3572
  0
LINE
  8
0
 10
110.762
 20
-33.3572
 11
112.414
 21
-33.4514
  0
LINE
  8
0
 10
112.414
 20
-33.4514
 11
114.066
 21
-33.5424
  0
LINE
  8
0
 10
114.066
 20
-33.5424
 11
115.718
 21
-33.6303
  0
LINE
  8
0
 10
115.718
 20
-33.6303
 11
117.369
 21
-33.715
  0
LINE
  8
0
 10
117.369
 20
-33.715
 11
119.02
 21
-33.7967
  0
LINE
  8
0
 10
119.02
 20
-33.7967
 11
120.67
 21
-33.8755
  0
LINE
  8
0
 10
120.67
 20
-33.8755
 11
122.32
 21
-33.9514
  0
LINE
  8
0
 10
122.32
 20
-33.9514
 11
123.97
 21
-34.0244
  0
LINE
  8
0
 10
123.97
 20
-34.0244
 11
125.619
 21
-34.0947
  0
LINE
  8
0
 10
125.619
 20
-34.0947
 11
127.267
 21
-34.1623
  0
LINE
  8
0
 10
127.267
 20
-34.1623
 11
128.916
 21
-34.2272
  0
LINE
  8
0
 10
128.916
 20
-34.2272
 11
130.564
 21
-34.2895
  0
LINE
  8
0
 10
130.564
 20
-34.2895
 11
132.211
 21
-34.3493
  0
LINE
  8
0
 10
132.211
 20
-34.3493
 11
133.858
 21
-34.4065
  0
LINE
  8
0
 10
133.858
 20
-34.4065
 11
135.505
 21
-34.4613
  0
LINE
  8
0
 10
135.505
 20
-34.4613
 11
137.152
 21
-34.5138
  0
LINE
  8
0
 10
137.152
 20
-34.5138
 11
138.798
 21
-34.5638
  0
LINE
  8
0
 10
138.798
 20
-34.5638
 11
140.444
 21
-34.6116
  0
LINE
  8
0
 10
140.444
 20
-34.6116
 11
142.089
 21
-34.6571
  0
LINE
  8
0
 10
142.089
 20
-34.6571
 11
143.734
 21
-34.7004
  0
LINE
  8
0
 10
143.734
 20
-34.7004
 11
145.379
 21
-34.7415
  0
LINE
  8
0
 10
145.379
 20
-34.7415
 11
147.024
 21
-34.7805
  0
LINE
  8
0
 10
147.024
 20
-34.7805
 11
148.668
 21
-34.8174
  0
LINE
  8
0
 10
148.668
 20
-34.8174
 11
150.312
 21
-34.8523
  0
LINE
  8
0
 10
150.312
 20
-34.8523
 11
153.599
 21
-34.916
  0
LINE
  8
0
 10
153.599
 20
-34.916
 11
156.885
 21
-34.9719
  0
LINE
  8
0
 10
156.885
 20
-34.9719
 11
160.17
 21
-35.0204
  0
LINE
  8
0
 10
160.17
 20
-35.0204
 11
163.454
 21
-35.0616
  0
LINE
  8
0
 10
163.454
 20
-35.0616
 11
166.737
 21
-35.0959
  0
LINE
  8
0
 10
166.737
 20
-35.0959
 11
170.019
 21
-35.1235
  0
LINE
  8
0
 10
170.019
 20
-35.1235
 11
173.3
 21
-35.1446
  0
LINE
  8
0
 10
173.3
 20
-35.1446
 11
176.581
 21
-35.1595
  0
LINE
  8
0
 10
176.581
 20
-35.1595
 11
179.86
 21
-35.1683
  0
LINE
  8
0
 10
179.86
 20
-35.1683
 11
183.139
 21
-35.1713
  0
LINE
  8
0
 10
183.139
 20
-35.1713
 11
186.417
 21
-35.1687
  0
ENDSEC
  0
SECTION
  2
OBJECTS
  0
DICTIONARY
  0
ENDSEC
  0
EOF
