  0
SECTION
  2
BLOCKS
  0
ENDSEC
  0
SECTION
  2
ENTITIES
  0
LINE
  8
0
 10
186.715
 20
-27.0825
 11
199.029
 21
-26.944
  0
LINE
  8
0
 10
199.029
 20
-26.944
 11
213.798
 21
-26.7152
  0
LINE
  8
0
 10
213.798
 20
-26.7152
 11
226.264
 21
-26.4767
  0
LINE
  8
0
 10
226.264
 20
-26.4767
 11
237.906
 21
-26.2223
  0
LINE
  8
0
 10
237.906
 20
-26.2223
 11
264.462
 21
-25.5506
  0
LINE
  8
0
 10
264.462
 20
-25.5506
 11
309.701
 21
-24.2164
  0
LINE
  8
0
 10
309.701
 20
-24.2164
 11
358.586
 21
-22.6196
  0
LINE
  8
0
 10
358.586
 20
-22.6196
 11
431.125
 21
-19.7114
  0
LINE
  8
0
 10
431.125
 20
-19.7114
 11
547.163
 21
-14.2871
  0
LINE
  8
0
 10
547.163
 20
-14.2871
 11
733.638
 21
-5.0072
  0
LINE
  8
0
 10
733.638
 20
-5.0072
 11
733.638
 21
-5
  0
LINE
  8
0
 10
733.638
 20
-5
 11
80
 21
-5
  0
LINE
  8
0
 10
80
 20
-5
 11
80
 21
5
  0
LINE
  8
0
 10
80
 20
5
 11
802.814
 21
5
  0
LINE
  8
0
 10
802.814
 20
5
 11
802.814
 21
5.01743
  0
LINE
  8
0
 10
802.814
 20
5.01743
 11
779.888
 21
9.064
  0
LINE
  8
0
 10
779.888
 20
9.064
 11
743.228
 21
15.197
  0
LINE
  8
0
 10
743.228
 20
15.197
 11
714.789
 21
19.6781
  0
LINE
  8
0
 10
714.789
 20
19.6781
 11
689.966
 21
23.3979
  0
LINE
  8
0
 10
689.966
 20
23.3979
 11
670.092
 21
26.2492
  0
LINE
  8
0
 10
670.092
 20
26.2492
 11
650.537
 21
28.9459
  0
LINE
  8
0
 10
650.537
 20
28.9459
 11
635.614
 21
30.9316
  0
LINE
  8
0
 10
635.614
 20
30.9316
 11
626.491
 21
32.1147
  0
LINE
  8
0
 10
626.491
 20
32.1147
 11
611.723
 21
33.9806
  0
LINE
  8
0
 10
611.723
 20
33.9806
 11
596.119
 21
35.8855
  0
LINE
  8
0
 10
596.119
 20
35.8855
 11
587.816
 21
36.8711
  0
LINE
  8
0
 10
587.816
 20
36.8711
 11
568.713
 21
39.0647
  0
LINE
  8
0
 10
568.713
 20
39.0647
 11
549.267
 21
41.1902
  0
LINE
  8
0
 10
549.267
 20
41.1902
 11
526.818
 21
43.5073
  0
LINE
  8
0
 10
526.818
 20
43.5073
 11
504.357
 21
45.6759
  0
LINE
  8
0
 10
504.357
 20
45.6759
 11
469.229
 21
48.7571
  0
LINE
  8
0
 10
469.229
 20
48.7571
 11
436.242
 21
51.2895
  0
LINE
  8
0
 10
436.242
 20
51.2895
 11
405.903
 21
53.2913
  0
LINE
  8
0
 10
405.903
 20
53.2913
 11
376.717
 21
54.9013
  0
LINE
  8
0
 10
376.717
 20
54.9013
 11
348.354
 21
56.1481
  0
LINE
  8
0
 10
348.354
 20
56.1481
 11
330.824
 21
56.7511
  0
LINE
  8
0
 10
330.824
 20
56.7511
 11
323.263
 21
56.9624
  0
LINE
  8
0
 10
323.263
 20
56.9624
 11
316.541
 21
57.1209
  0
LINE
  8
0
 10
316.541
 20
57.1209
 11
312.172
 21
57.209
  0
LINE
  8
0
 10
312.172
 20
57.209
 11
302.592
 21
57.36
  0
LINE
  8
0
 10
302.592
 20
57.36
 11
298.054
 21
57.4111
  0
LINE
  8
0
 10
298.054
 20
57.4111
 11
288.641
 21
57.4744
  0
LINE
  8
0
 10
288.641
 20
57.4744
 11
285.447
 21
57.4827
  0
LINE
  8
0
 10
285.447
 20
57.4827
 11
274.521
 21
57.459
  0
LINE
  8
0
 10
274.521
 20
57.459
 11
267.965
 21
57.4056
  0
LINE
  8
0
 10
267.965
 20
57.4056
 11
262.082
 21
57.3321
  0
LINE
  8
0
 10
262.082
 20
57.3321
 11
253.509
 21
57.1808
  0
LINE
  8
0
 10
253.509
 20
57.1808
 11
247.29
 21
57.0376
  0
LINE
  8
0
 10
247.29
 20
57.0376
 11
239.055
 21
56.8036
  0
LINE
  8
0
 10
239.055
 20
56.8036
 11
233.174
 21
56.605
  0
LINE
  8
0
 10
233.174
 20
56.605
 11
225.445
 21
56.3029
  0
LINE
  8
0
 10
225.445
 20
56.3029
 11
218.053
 21
55.9695
  0
LINE
  8
0
 10
218.053
 20
55.9695
 11
213.014
 21
55.7166
  0
LINE
  8
0
 10
213.014
 20
55.7166
 11
207.472
 21
55.414
  0
LINE
  8
0
 10
207.472
 20
55.414
 11
202.77
 21
55.1368
  0
LINE
  8
0
 10
202.77
 20
55.1368
 11
195.551
 21
54.6736
  0
LINE
  8
0
 10
195.551
 20
54.6736
 11
188.67
 21
54.1888
  0
LINE
  8
0
 10
188.67
 20
54.1888
 11
178.94
 21
53.4284
  0
LINE
  8
0
 10
178.94
 20
53.4284
 11
172.232
 21
52.8514
  0
LINE
  8
0
 10
172.232
 20
52.8514
 11
164.689
 21
52.149
  0
LINE
  8
0
 10
164.689
 20
52.149
 11
153.632
 21
51.0125
  0
LINE
  8
0
 10
153.632
 20
51.0125
 11
143.923
 21
49.904
  0
LINE
  8
0
 10
143.923
 20
49.904
 11
134.223
 21
48.6867
  0
LINE
  8
0
 10
134.223
 20
48.6867
 11
125.534
 21
47.4973
  0
LINE
  8
0
 10
125.534
 20
47.4973
 11
116.352
 21
46.1318
  0
LINE
  8
0
 10
116.352
 20
46.1318
 11
109.181
 21
44.9823
  0
LINE
  8
0
 10
109.181
 20
44.9823
 11
102.517
 21
43.8442
  0
LINE
  8
0
 10
102.517
 20
43.8442
 11
98.6884
 21
43.1582
  0
LINE
  8
0
 10
98.6884
 20
43.1582
 11
92.2015
 21
41.9392
  0
LINE
  8
0
 10
92.2015
 20
41.9392
 11
85.7221
 21
40.6458
  0
LINE
  8
0
 10
85.7221
 20
40.6458
 11
79.9142
 21
39.417
  0
LINE
  8
0
 10
79.9142
 20
39.417
 11
76.2673
 21
38.6095
  0
LINE
  8
0
 10
76.2673
 20
38.6095
 11
73.2858
 21
37.9275
  0
LINE
  8
0
 10
73.2858
 20
37.9275
 11
68.4868
 21
36.786
  0
LINE
  8
0
 10
68.4868
 20
36.786
 11
64.0243
 21
35.6728
  0
LINE
  8
0
 10
64.0243
 20
35.6728
 11
59.5676
 21
34.5071
  0
LINE
  8
0
 10
59.5676
 20
34.5071
 11
55.4467
 21
33.377
  0
LINE
  8
0
 10
55.4467
 20
33.377
 11
51.6608
 21
32.2907
  0
LINE
  8
0
 10
51.6608
 20
32.2907
 11
48.0446
 21
31.206
  0
LINE
  8
0
 10
48.0446
 20
31.206
 11
44.762
 21
30.1778
  0
LINE
  8
0
 10
44.762
 20
30.1778
 11
41.8119
 21
29.2151
  0
LINE
  8
0
 10
41.8119
 20
29.2151
 11
39.1933
 21
28.3272
  0
LINE
  8
0
 10
39.1933
 20
28.3272
 11
36.7418
 21
27.4648
  0
LINE
  8
0
 10
36.7418
 20
27.4648
 11
34.4569
 21
26.6316
  0
LINE
  8
0
 10
34.4569
 20
26.6316
 11
32.1755
 21
25.7688
  0
LINE
  8
0
 10
32.1755
 20
25.7688
 11
30.2229
 21
25.0035
  0
LINE
  8
0
 10
30.2229
 20
25.0035
 11
28.2732
 21
24.2124
  0
LINE
  8
0
 10
28.2732
 20
24.2124
 11
26.4888
 21
23.4625
  0
LINE
  8
0
 10
26.4888
 20
23.4625
 11
24.8692
 21
22.7586
  0
LINE
  8
0
 10
24.8692
 20
22.7586
 11
23.4138
 21
22.1053
  0
LINE
  8
0
 10
23.4138
 20
22.1053
 11
22.1219
 21
21.5077
  0
LINE
  8
0
 10
22.1219
 20
21.5077
 11
20.8321
 21
20.8927
  0
LINE
  8
0
 10
20.8321
 20
20.8927
 11
19.7051
 21
20.3394
  0
LINE
  8
0
 10
19.7051
 20
20.3394
 11
18.5799
 21
19.7706
  0
LINE
  8
0
 10
18.5799
 20
19.7706
 11
17.6169
 21
19.2698
  0
LINE
  8
0
 10
17.6169
 20
19.2698
 11
16.6554
 21
18.7559
  0
LINE
  8
0
 10
16.6554
 20
18.7559
 11
15.6954
 21
18.2277
  0
LINE
  8
0
 10
15.6954
 20
18.2277
 11
14.8967
 21
17.7759
  0
LINE
  8
0
 10
14.8967
 20
17.7759
 11
14.0993
 21
17.3125
  0
LINE
  8
0
 10
14.0993
 20
17.3125
 11
13.3033
 21
16.8368
  0
LINE
  8
0
 10
13.3033
 20
16.8368
 11
12.6675
 21
16.4467
  0
LINE
  8
0
 10
12.6675
 20
16.4467
 11
12.0327
 21
16.0473
  0
LINE
  8
0
 10
12.0327
 20
16.0473
 11
11.3989
 21
15.6382
  0
LINE
  8
0
 10
11.3989
 20
15.6382
 11
10.7663
 21
15.2185
  0
LINE
  8
0
 10
10.7663
 20
15.2185
 11
10.2927
 21
14.8963
  0
LINE
  8
0
 10
10.2927
 20
14.8963
 11
9.81978
 21
14.5672
  0
LINE
  8
0
 10
9.81978
 20
14.5672
 11
9.34764
 21
14.2308
  0
LINE
  8
0
 10
9.34764
 20
14.2308
 11
8.87636
 21
13.8867
  0
LINE
  8
0
 10
8.87636
 20
13.8867
 11
8.40596
 21
13.5341
  0
LINE
  8
0
 10
8.40596
 20
13.5341
 11
7.93652
 21
13.1726
  0
LINE
  8
0
 10
7.93652
 20
13.1726
 11
7.46812
 21
12.8013
  0
LINE
  8
0
 10
7.46812
 20
12.8013
 11
7.15648
 21
12.548
  0
LINE
  8
0
 10
7.15648
 20
12.548
 11
6.84535
 21
12.2897
  0
LINE
  8
0
 10
6.84535
 20
12.2897
 11
6.53479
 21
12.026
  0
LINE
  8
0
 10
6.53479
 20
12.026
 11
6.22482
 21
11.7568
  0
LINE
  8
0
 10
6.22482
 20
11.7568
 11
5.9155
 21
11.4815
  0
LINE
  8
0
 10
5.9155
 20
11.4815
 11
5.60683
 21
11.1998
  0
LINE
  8
0
 10
5.60683
 20
11.1998
 11
5.2989
 21
10.9112
  0
LINE
  8
0
 10
5.2989
 20
10.9112
 11
4.99174
 21
10.615
  0
LINE
  8
0
 10
4.99174
 20
10.615
 11
4.68546
 21
10.3108
  0
LINE
  8
0
 10
4.68546
 20
10.3108
 11
4.38007
 21
9.99768
  0
LINE
  8
0
 10
4.38007
 20
9.99768
 11
4.0757
 21
9.67494
  0
LINE
  8
0
 10
4.0757
 20
9.67494
 11
3.92392
 21
9.50964
  0
LINE
  8
0
 10
3.92392
 20
9.50964
 11
3.77242
 21
9.34155
  0
LINE
  8
0
 10
3.77242
 20
9.34155
 11
3.62123
 21
9.17052
  0
LINE
  8
0
 10
3.62123
 20
9.17052
 11
3.47037
 21
8.99637
  0
LINE
  8
0
 10
3.47037
 20
8.99637
 11
3.31984
 21
8.81894
  0
LINE
  8
0
 10
3.31984
 20
8.81894
 11
3.16968
 21
8.63802
  0
LINE
  8
0
 10
3.16968
 20
8.63802
 11
3.0199
 21
8.45338
  0
LINE
  8
0
 10
3.0199
 20
8.45338
 11
2.87053
 21
8.2648
  0
LINE
  8
0
 10
2.87053
 20
8.2648
 11
2.72159
 21
8.07201
  0
LINE
  8
0
 10
2.72159
 20
8.07201
 11
2.5731
 21
7.87468
  0
LINE
  8
0
 10
2.5731
 20
7.87468
 11
2.42513
 21
7.67247
  0
LINE
  8
0
 10
2.42513
 20
7.67247
 11
2.27768
 21
7.46503
  0
LINE
  8
0
 10
2.27768
 20
7.46503
 11
2.13083
 21
7.25186
  0
LINE
  8
0
 10
2.13083
 20
7.25186
 11
1.98462
 21
7.0325
  0
LINE
  8
0
 10
1.98462
 20
7.0325
 11
1.83908
 21
6.80634
  0
LINE
  8
0
 10
1.83908
 20
6.80634
 11
1.69432
 21
6.57268
  0
LINE
  8
0
 10
1.69432
 20
6.57268
 11
1.5504
 21
6.33072
  0
LINE
  8
0
 10
1.5504
 20
6.33072
 11
1.40742
 21
6.07948
  0
LINE
  8
0
 10
1.40742
 20
6.07948
 11
1.26552
 21
5.81778
  0
LINE
  8
0
 10
1.26552
 20
5.81778
 11
1.12482
 21
5.54413
  0
LINE
  8
0
 10
1.12482
 20
5.54413
 11
0.985519
 21
5.25673
  0
LINE
  8
0
 10
0.985519
 20
5.25673
 11
0.847855
 21
4.95319
  0
LINE
  8
0
 10
0.847855
 20
4.95319
 11
0.712128
 21
4.63036
  0
LINE
  8
0
 10
0.712128
 20
4.63036
 11
0.578796
 21
4.28398
  0
LINE
  8
0
 10
0.578796
 20
4.28398
 11
0.448456
 21
3.90782
  0
LINE
  8
0
 10
0.448456
 20
3.90782
 11
0.322067
 21
3.49239
  0
LINE
  8
0
 10
0.322067
 20
3.49239
 11
0.201248
 21
3.02165
  0
LINE
  8
0
 10
0.201248
 20
3.02165
 11
0.0891113
 21
2.4644
  0
LINE
  8
0
 10
0.0891113
 20
2.4644
 11
-0.0062561
 21
1.74004
  0
LINE
  8
0
 10
-0.0062561
 20
1.74004
 11
0
 21
0
  0
LINE
  8
0
 10
0
 20
0
 11
0.338257
 21
-1.70685
  0
LINE
  8
0
 10
0.338257
 20
-1.70685
 11
0.574875
 21
-2.39804
  0
LINE
  8
0
 10
0.574875
 20
-2.39804
 11
0.794739
 21
-2.92212
  0
LINE
  8
0
 10
0.794739
 20
-2.92212
 11
1.00591
 21
-3.35973
  0
LINE
  8
0
 10
1.00591
 20
-3.35973
 11
1.21153
 21
-3.74203
  0
LINE
  8
0
 10
1.21153
 20
-3.74203
 11
1.41319
 21
-4.08508
  0
LINE
  8
0
 10
1.41319
 20
-4.08508
 11
1.61185
 21
-4.39838
  0
LINE
  8
0
 10
1.61185
 20
-4.39838
 11
1.80814
 21
-4.68811
  0
LINE
  8
0
 10
1.80814
 20
-4.68811
 11
2.00246
 21
-4.95859
  0
LINE
  8
0
 10
2.00246
 20
-4.95859
 11
2.19516
 21
-5.21297
  0
LINE
  8
0
 10
2.19516
 20
-5.21297
 11
2.38646
 21
-5.45357
  0
LINE
  8
0
 10
2.38646
 20
-5.45357
 11
2.57655
 21
-5.68228
  0
LINE
  8
0
 10
2.57655
 20
-5.68228
 11
2.76558
 21
-5.90053
  0
LINE
  8
0
 10
2.76558
 20
-5.90053
 11
2.95366
 21
-6.10951
  0
LINE
  8
0
 10
2.95366
 20
-6.10951
 11
3.1409
 21
-6.3102
  0
LINE
  8
0
 10
3.1409
 20
-6.3102
 11
3.32738
 21
-6.50342
  0
LINE
  8
0
 10
3.32738
 20
-6.50342
 11
3.51315
 21
-6.68987
  0
LINE
  8
0
 10
3.51315
 20
-6.68987
 11
3.6983
 21
-6.87012
  0
LINE
  8
0
 10
3.6983
 20
-6.87012
 11
3.88286
 21
-7.04468
  0
LINE
  8
0
 10
3.88286
 20
-7.04468
 11
4.06688
 21
-7.21399
  0
LINE
  8
0
 10
4.06688
 20
-7.21399
 11
4.2504
 21
-7.37846
  0
LINE
  8
0
 10
4.2504
 20
-7.37846
 11
4.43346
 21
-7.53842
  0
LINE
  8
0
 10
4.43346
 20
-7.53842
 11
4.61609
 21
-7.69417
  0
LINE
  8
0
 10
4.61609
 20
-7.69417
 11
4.79831
 21
-7.84599
  0
LINE
  8
0
 10
4.79831
 20
-7.84599
 11
4.98015
 21
-7.99413
  0
LINE
  8
0
 10
4.98015
 20
-7.99413
 11
5.16161
 21
-8.13878
  0
LINE
  8
0
 10
5.16161
 20
-8.13878
 11
5.34276
 21
-8.28017
  0
LINE
  8
0
 10
5.34276
 20
-8.28017
 11
5.52356
 21
-8.41846
  0
LINE
  8
0
 10
5.52356
 20
-8.41846
 11
5.70407
 21
-8.55382
  0
LINE
  8
0
 10
5.70407
 20
-8.55382
 11
6.06424
 21
-8.81635
  0
LINE
  8
0
 10
6.06424
 20
-8.81635
 11
6.42334
 21
-9.06882
  0
LINE
  8
0
 10
6.42334
 20
-9.06882
 11
6.78149
 21
-9.31212
  0
LINE
  8
0
 10
6.78149
 20
-9.31212
 11
7.13876
 21
-9.54701
  0
LINE
  8
0
 10
7.13876
 20
-9.54701
 11
7.49521
 21
-9.77419
  0
LINE
  8
0
 10
7.49521
 20
-9.77419
 11
7.85091
 21
-9.99425
  0
LINE
  8
0
 10
7.85091
 20
-9.99425
 11
8.20592
 21
-10.2077
  0
LINE
  8
0
 10
8.20592
 20
-10.2077
 11
8.56026
 21
-10.415
  0
LINE
  8
0
 10
8.56026
 20
-10.415
 11
8.91399
 21
-10.6165
  0
LINE
  8
0
 10
8.91399
 20
-10.6165
 11
9.26714
 21
-10.8126
  0
LINE
  8
0
 10
9.26714
 20
-10.8126
 11
9.79587
 21
-11.0974
  0
LINE
  8
0
 10
9.79587
 20
-11.0974
 11
10.3235
 21
-11.3717
  0
LINE
  8
0
 10
10.3235
 20
-11.3717
 11
10.85
 21
-11.6365
  0
LINE
  8
0
 10
10.85
 20
-11.6365
 11
11.3756
 21
-11.8923
  0
LINE
  8
0
 10
11.3756
 20
-11.8923
 11
11.9003
 21
-12.14
  0
LINE
  8
0
 10
11.9003
 20
-12.14
 11
12.4242
 21
-12.38
  0
LINE
  8
0
 10
12.4242
 20
-12.38
 11
12.9473
 21
-12.6129
  0
LINE
  8
0
 10
12.9473
 20
-12.6129
 11
13.6436
 21
-12.9131
  0
LINE
  8
0
 10
13.6436
 20
-12.9131
 11
14.3387
 21
-13.2023
  0
LINE
  8
0
 10
14.3387
 20
-13.2023
 11
15.0327
 21
-13.4815
  0
LINE
  8
0
 10
15.0327
 20
-13.4815
 11
15.8988
 21
-13.8173
  0
LINE
  8
0
 10
15.8988
 20
-13.8173
 11
16.7633
 21
-14.1396
  0
LINE
  8
0
 10
16.7633
 20
-14.1396
 11
17.6264
 21
-14.4497
  0
LINE
  8
0
 10
17.6264
 20
-14.4497
 11
18.6604
 21
-14.8067
  0
LINE
  8
0
 10
18.6604
 20
-14.8067
 11
19.6927
 21
-15.1487
  0
LINE
  8
0
 10
19.6927
 20
-15.1487
 11
20.7234
 21
-15.4769
  0
LINE
  8
0
 10
20.7234
 20
-15.4769
 11
21.9241
 21
-15.8438
  0
LINE
  8
0
 10
21.9241
 20
-15.8438
 11
23.294
 21
-16.2436
  0
LINE
  8
0
 10
23.294
 20
-16.2436
 11
24.6617
 21
-16.6246
  0
LINE
  8
0
 10
24.6617
 20
-16.6246
 11
26.1979
 21
-17.0327
  0
LINE
  8
0
 10
26.1979
 20
-17.0327
 11
27.9019
 21
-17.4628
  0
LINE
  8
0
 10
27.9019
 20
-17.4628
 11
29.6033
 21
-17.8707
  0
LINE
  8
0
 10
29.6033
 20
-17.8707
 11
31.472
 21
-18.2959
  0
LINE
  8
0
 10
31.472
 20
-18.2959
 11
33.5073
 21
-18.7344
  0
LINE
  8
0
 10
33.5073
 20
-18.7344
 11
35.7089
 21
-19.1822
  0
LINE
  8
0
 10
35.7089
 20
-19.1822
 11
38.2452
 21
-19.6671
  0
LINE
  8
0
 10
38.2452
 20
-19.6671
 11
40.9462
 21
-20.1505
  0
LINE
  8
0
 10
40.9462
 20
-20.1505
 11
43.98
 21
-20.6568
  0
LINE
  8
0
 10
43.98
 20
-20.6568
 11
47.3453
 21
-21.1776
  0
LINE
  8
0
 10
47.3453
 20
-21.1776
 11
51.0411
 21
-21.7051
  0
LINE
  8
0
 10
51.0411
 20
-21.7051
 11
54.7312
 21
-22.1901
  0
LINE
  8
0
 10
54.7312
 20
-22.1901
 11
59.2528
 21
-22.7337
  0
LINE
  8
0
 10
59.2528
 20
-22.7337
 11
62.7646
 21
-23.121
  0
LINE
  8
0
 10
62.7646
 20
-23.121
 11
67.1071
 21
-23.5618
  0
LINE
  8
0
 10
67.1071
 20
-23.5618
 11
71.444
 21
-23.9637
  0
LINE
  8
0
 10
71.444
 20
-23.9637
 11
78.6055
 21
-24.5524
  0
LINE
  8
0
 10
78.6055
 20
-24.5524
 11
83.4283
 21
-24.9016
  0
LINE
  8
0
 10
83.4283
 20
-24.9016
 11
89.2421
 21
-25.2775
  0
LINE
  8
0
 10
89.2421
 20
-25.2775
 11
95.5465
 21
-25.6345
  0
LINE
  8
0
 10
95.5465
 20
-25.6345
 11
101.512
 21
-25.9285
  0
LINE
  8
0
 10
101.512
 20
-25.9285
 11
111.112
 21
-26.3218
  0
LINE
  8
0
 10
111.112
 20
-26.3218
 11
125.321
 21
-26.7477
  0
LINE
  8
0
 10
125.321
 20
-26.7477
 11
143.295
 21
-27.0651
  0
LINE
  8
0
 10
143.295
 20
-27.0651
 11
144.448
 21
-27.0782
  0
LINE
  8
0
 10
144.448
 20
-27.0782
 11
167.982
 21
-27.1838
  0
LINE
  8
0
 10
167.982
 20
-27.1838
 11
186.715
 21
-27.0825
  0
ENDSEC
  0
SECTION
  2
OBJECTS
  0
DICTIONARY
  0
ENDSEC
  0
EOF
