  0
SECTION
  2
BLOCKS
  0
ENDSEC
  0
SECTION
  2
ENTITIES
  0
LINE
  8
0
 10
190.35
 20
-35.1584
 11
203.781
 21
-35.0683
  0
LINE
  8
0
 10
203.781
 20
-35.0683
 11
221.458
 21
-34.8349
  0
LINE
  8
0
 10
221.458
 20
-34.8349
 11
247.301
 21
-34.3009
  0
LINE
  8
0
 10
247.301
 20
-34.3009
 11
317.442
 21
-32.0843
  0
LINE
  8
0
 10
317.442
 20
-32.0843
 11
353.114
 21
-30.6886
  0
LINE
  8
0
 10
353.114
 20
-30.6886
 11
402.459
 21
-28.3618
  0
LINE
  8
0
 10
402.459
 20
-28.3618
 11
450.528
 21
-25.7455
  0
LINE
  8
0
 10
450.528
 20
-25.7455
 11
535.902
 21
-20.551
  0
LINE
  8
0
 10
535.902
 20
-20.551
 11
591.443
 21
-16.9366
  0
LINE
  8
0
 10
591.443
 20
-16.9366
 11
763.405
 21
-5.00438
  0
LINE
  8
0
 10
763.405
 20
-5.00438
 11
763.405
 21
-5
  0
LINE
  8
0
 10
763.405
 20
-5
 11
80
 21
-5
  0
LINE
  8
0
 10
80
 20
-5
 11
80
 21
5
  0
LINE
  8
0
 10
80
 20
5
 11
805.983
 21
5
  0
LINE
  8
0
 10
805.983
 20
5
 11
805.983
 21
5.02669
  0
LINE
  8
0
 10
805.983
 20
5.02669
 11
782.595
 21
9.72086
  0
LINE
  8
0
 10
782.595
 20
9.72086
 11
764.789
 21
13.1663
  0
LINE
  8
0
 10
764.789
 20
13.1663
 11
734.914
 21
18.7057
  0
LINE
  8
0
 10
734.914
 20
18.7057
 11
708.638
 21
23.3351
  0
LINE
  8
0
 10
708.638
 20
23.3351
 11
679.189
 21
28.2608
  0
LINE
  8
0
 10
679.189
 20
28.2608
 11
658.653
 21
31.534
  0
LINE
  8
0
 10
658.653
 20
31.534
 11
643.738
 21
33.829
  0
LINE
  8
0
 10
643.738
 20
33.829
 11
633.79
 21
35.3212
  0
LINE
  8
0
 10
633.79
 20
35.3212
 11
619.691
 21
37.3835
  0
LINE
  8
0
 10
619.691
 20
37.3835
 11
608.407
 21
38.9897
  0
LINE
  8
0
 10
608.407
 20
38.9897
 11
589.811
 21
41.5499
  0
LINE
  8
0
 10
589.811
 20
41.5499
 11
573.199
 21
43.7457
  0
LINE
  8
0
 10
573.199
 20
43.7457
 11
555.58
 21
45.979
  0
LINE
  8
0
 10
555.58
 20
45.979
 11
529.467
 21
49.1057
  0
LINE
  8
0
 10
529.467
 20
49.1057
 11
496.507
 21
52.7311
  0
LINE
  8
0
 10
496.507
 20
52.7311
 11
465.518
 21
55.7995
  0
LINE
  8
0
 10
465.518
 20
55.7995
 11
434.339
 21
58.5362
  0
LINE
  8
0
 10
434.339
 20
58.5362
 11
414.153
 21
60.1104
  0
LINE
  8
0
 10
414.153
 20
60.1104
 11
386.947
 21
61.9717
  0
LINE
  8
0
 10
386.947
 20
61.9717
 11
361.232
 21
63.4396
  0
LINE
  8
0
 10
361.232
 20
63.4396
 11
344.028
 21
64.2535
  0
LINE
  8
0
 10
344.028
 20
64.2535
 11
330.147
 21
64.8057
  0
LINE
  8
0
 10
330.147
 20
64.8057
 11
313.472
 21
65.3098
  0
LINE
  8
0
 10
313.472
 20
65.3098
 11
297.803
 21
65.6095
  0
LINE
  8
0
 10
297.803
 20
65.6095
 11
282.3
 21
65.7333
  0
LINE
  8
0
 10
282.3
 20
65.7333
 11
267.302
 21
65.6827
  0
LINE
  8
0
 10
267.302
 20
65.6827
 11
252.979
 21
65.4711
  0
LINE
  8
0
 10
252.979
 20
65.4711
 11
241.184
 21
65.1719
  0
LINE
  8
0
 10
241.184
 20
65.1719
 11
231.582
 21
64.8418
  0
LINE
  8
0
 10
231.582
 20
64.8418
 11
218.615
 21
64.2675
  0
LINE
  8
0
 10
218.615
 20
64.2675
 11
211.88
 21
63.9088
  0
LINE
  8
0
 10
211.88
 20
63.9088
 11
205.147
 21
63.5076
  0
LINE
  8
0
 10
205.147
 20
63.5076
 11
197.743
 21
63.0157
  0
LINE
  8
0
 10
197.743
 20
63.0157
 11
189.669
 21
62.4168
  0
LINE
  8
0
 10
189.669
 20
62.4168
 11
185.801
 21
62.1061
  0
LINE
  8
0
 10
185.801
 20
62.1061
 11
177.732
 21
61.4068
  0
LINE
  8
0
 10
177.732
 20
61.4068
 11
172.019
 21
60.8687
  0
LINE
  8
0
 10
172.019
 20
60.8687
 11
168.996
 21
60.5691
  0
LINE
  8
0
 10
168.996
 20
60.5691
 11
165.301
 21
60.1887
  0
LINE
  8
0
 10
165.301
 20
60.1887
 11
159.761
 21
59.5882
  0
LINE
  8
0
 10
159.761
 20
59.5882
 11
152.714
 21
58.7706
  0
LINE
  8
0
 10
152.714
 20
58.7706
 11
144.665
 21
57.7603
  0
LINE
  8
0
 10
144.665
 20
57.7603
 11
136.456
 21
56.6412
  0
LINE
  8
0
 10
136.456
 20
56.6412
 11
128.589
 21
55.4802
  0
LINE
  8
0
 10
128.589
 20
55.4802
 11
121.064
 21
54.2837
  0
LINE
  8
0
 10
121.064
 20
54.2837
 11
114.048
 21
53.0878
  0
LINE
  8
0
 10
114.048
 20
53.0878
 11
107.706
 21
51.9361
  0
LINE
  8
0
 10
107.706
 20
51.9361
 11
101.538
 21
50.7474
  0
LINE
  8
0
 10
101.538
 20
50.7474
 11
95.8767
 21
49.593
  0
LINE
  8
0
 10
95.8767
 20
49.593
 11
90.0552
 21
48.3389
  0
LINE
  8
0
 10
90.0552
 20
48.3389
 11
84.4071
 21
47.0525
  0
LINE
  8
0
 10
84.4071
 20
47.0525
 11
79.2641
 21
45.8171
  0
LINE
  8
0
 10
79.2641
 20
45.8171
 11
74.4591
 21
44.6037
  0
LINE
  8
0
 10
74.4591
 20
44.6037
 11
70.3221
 21
43.5099
  0
LINE
  8
0
 10
70.3221
 20
43.5099
 11
66.0253
 21
42.3221
  0
LINE
  8
0
 10
66.0253
 20
42.3221
 11
61.8995
 21
41.1283
  0
LINE
  8
0
 10
61.8995
 20
41.1283
 11
58.1093
 21
39.9819
  0
LINE
  8
0
 10
58.1093
 20
39.9819
 11
55.6404
 21
39.2077
  0
LINE
  8
0
 10
55.6404
 20
39.2077
 11
52.3525
 21
38.1408
  0
LINE
  8
0
 10
52.3525
 20
38.1408
 11
49.2336
 21
37.0879
  0
LINE
  8
0
 10
49.2336
 20
37.0879
 11
46.2832
 21
36.0525
  0
LINE
  8
0
 10
46.2832
 20
36.0525
 11
43.5009
 21
35.0381
  0
LINE
  8
0
 10
43.5009
 20
35.0381
 11
41.0497
 21
34.1113
  0
LINE
  8
0
 10
41.0497
 20
34.1113
 11
38.7652
 21
33.2174
  0
LINE
  8
0
 10
38.7652
 20
33.2174
 11
36.6469
 21
32.3606
  0
LINE
  8
0
 10
36.6469
 20
32.3606
 11
34.6945
 21
31.5451
  0
LINE
  8
0
 10
34.6945
 20
31.5451
 11
32.9073
 21
30.7754
  0
LINE
  8
0
 10
32.9073
 20
30.7754
 11
31.1228
 21
29.9829
  0
LINE
  8
0
 10
31.1228
 20
29.9829
 11
29.341
 21
29.166
  0
LINE
  8
0
 10
29.341
 20
29.166
 11
27.7239
 21
28.4005
  0
LINE
  8
0
 10
27.7239
 20
28.4005
 11
26.2707
 21
27.6916
  0
LINE
  8
0
 10
26.2707
 20
27.6916
 11
24.8199
 21
26.9623
  0
LINE
  8
0
 10
24.8199
 20
26.9623
 11
23.6932
 21
26.38
  0
LINE
  8
0
 10
23.6932
 20
26.38
 11
22.4075
 21
25.6971
  0
LINE
  8
0
 10
22.4075
 20
25.6971
 11
21.2844
 21
25.0834
  0
LINE
  8
0
 10
21.2844
 20
25.0834
 11
20.1631
 21
24.4534
  0
LINE
  8
0
 10
20.1631
 20
24.4534
 11
19.2035
 21
23.8996
  0
LINE
  8
0
 10
19.2035
 20
23.8996
 11
18.2455
 21
23.3321
  0
LINE
  8
0
 10
18.2455
 20
23.3321
 11
17.2891
 21
22.7499
  0
LINE
  8
0
 10
17.2891
 20
22.7499
 11
16.4934
 21
22.2527
  0
LINE
  8
0
 10
16.4934
 20
22.2527
 11
15.6991
 21
21.7439
  0
LINE
  8
0
 10
15.6991
 20
21.7439
 11
14.9061
 21
21.2227
  0
LINE
  8
0
 10
14.9061
 20
21.2227
 11
14.2727
 21
20.7961
  0
LINE
  8
0
 10
14.2727
 20
20.7961
 11
13.6404
 21
20.3605
  0
LINE
  8
0
 10
13.6404
 20
20.3605
 11
13.0091
 21
19.9153
  0
LINE
  8
0
 10
13.0091
 20
19.9153
 11
12.379
 21
19.4598
  0
LINE
  8
0
 10
12.379
 20
19.4598
 11
11.75
 21
18.9933
  0
LINE
  8
0
 10
11.75
 20
18.9933
 11
11.1223
 21
18.5151
  0
LINE
  8
0
 10
11.1223
 20
18.5151
 11
10.6524
 21
18.1482
  0
LINE
  8
0
 10
10.6524
 20
18.1482
 11
10.1834
 21
17.7737
  0
LINE
  8
0
 10
10.1834
 20
17.7737
 11
9.71518
 21
17.3913
  0
LINE
  8
0
 10
9.71518
 20
17.3913
 11
9.24791
 21
17.0002
  0
LINE
  8
0
 10
9.24791
 20
17.0002
 11
8.78163
 21
16.6001
  0
LINE
  8
0
 10
8.78163
 20
16.6001
 11
8.31639
 21
16.1901
  0
LINE
  8
0
 10
8.31639
 20
16.1901
 11
7.85228
 21
15.7697
  0
LINE
  8
0
 10
7.85228
 20
15.7697
 11
7.54353
 21
15.4831
  0
LINE
  8
0
 10
7.54353
 20
15.4831
 11
7.23535
 21
15.1912
  0
LINE
  8
0
 10
7.23535
 20
15.1912
 11
6.92776
 21
14.8937
  0
LINE
  8
0
 10
6.92776
 20
14.8937
 11
6.62083
 21
14.5901
  0
LINE
  8
0
 10
6.62083
 20
14.5901
 11
6.31456
 21
14.2803
  0
LINE
  8
0
 10
6.31456
 20
14.2803
 11
6.00899
 21
13.9637
  0
LINE
  8
0
 10
6.00899
 20
13.9637
 11
5.70419
 21
13.6399
  0
LINE
  8
0
 10
5.70419
 20
13.6399
 11
5.40021
 21
13.3083
  0
LINE
  8
0
 10
5.40021
 20
13.3083
 11
5.09708
 21
12.9684
  0
LINE
  8
0
 10
5.09708
 20
12.9684
 11
4.79491
 21
12.6196
  0
LINE
  8
0
 10
4.79491
 20
12.6196
 11
4.49374
 21
12.261
  0
LINE
  8
0
 10
4.49374
 20
12.261
 11
4.1937
 21
11.8918
  0
LINE
  8
0
 10
4.1937
 20
11.8918
 11
4.0441
 21
11.703
  0
LINE
  8
0
 10
4.0441
 20
11.703
 11
3.89484
 21
11.5111
  0
LINE
  8
0
 10
3.89484
 20
11.5111
 11
3.7459
 21
11.316
  0
LINE
  8
0
 10
3.7459
 20
11.316
 11
3.59731
 21
11.1176
  0
LINE
  8
0
 10
3.59731
 20
11.1176
 11
3.44908
 21
10.9156
  0
LINE
  8
0
 10
3.44908
 20
10.9156
 11
3.30125
 21
10.7099
  0
LINE
  8
0
 10
3.30125
 20
10.7099
 11
3.15382
 21
10.5003
  0
LINE
  8
0
 10
3.15382
 20
10.5003
 11
3.00682
 21
10.2864
  0
LINE
  8
0
 10
3.00682
 20
10.2864
 11
2.86028
 21
10.0681
  0
LINE
  8
0
 10
2.86028
 20
10.0681
 11
2.71423
 21
9.84512
  0
LINE
  8
0
 10
2.71423
 20
9.84512
 11
2.5687
 21
9.61703
  0
LINE
  8
0
 10
2.5687
 20
9.61703
 11
2.42372
 21
9.38354
  0
LINE
  8
0
 10
2.42372
 20
9.38354
 11
2.27936
 21
9.1442
  0
LINE
  8
0
 10
2.27936
 20
9.1442
 11
2.13562
 21
8.89853
  0
LINE
  8
0
 10
2.13562
 20
8.89853
 11
1.9926
 21
8.64604
  0
LINE
  8
0
 10
1.9926
 20
8.64604
 11
1.85033
 21
8.38609
  0
LINE
  8
0
 10
1.85033
 20
8.38609
 11
1.70891
 21
8.118
  0
LINE
  8
0
 10
1.70891
 20
8.118
 11
1.56839
 21
7.8409
  0
LINE
  8
0
 10
1.56839
 20
7.8409
 11
1.42888
 21
7.55385
  0
LINE
  8
0
 10
1.42888
 20
7.55385
 11
1.29053
 21
7.25566
  0
LINE
  8
0
 10
1.29053
 20
7.25566
 11
1.15343
 21
6.94492
  0
LINE
  8
0
 10
1.15343
 20
6.94492
 11
1.01779
 21
6.61984
  0
LINE
  8
0
 10
1.01779
 20
6.61984
 11
0.883835
 21
6.27826
  0
LINE
  8
0
 10
0.883835
 20
6.27826
 11
0.751831
 21
5.91731
  0
LINE
  8
0
 10
0.751831
 20
5.91731
 11
0.622162
 21
5.53325
  0
LINE
  8
0
 10
0.622162
 20
5.53325
 11
0.495361
 21
5.1209
  0
LINE
  8
0
 10
0.495361
 20
5.1209
 11
0.372147
 21
4.67281
  0
LINE
  8
0
 10
0.372147
 20
4.67281
 11
0.253693
 21
4.1776
  0
LINE
  8
0
 10
0.253693
 20
4.1776
 11
0.141907
 21
3.61603
  0
LINE
  8
0
 10
0.141907
 20
3.61603
 11
0.0405426
 21
2.95065
  0
LINE
  8
0
 10
0.0405426
 20
2.95065
 11
-0.0407104
 21
2.08473
  0
LINE
  8
0
 10
-0.0407104
 20
2.08473
 11
0
 21
0
  0
LINE
  8
0
 10
0
 20
0
 11
0.372696
 21
-2.05154
  0
LINE
  8
0
 10
0.372696
 20
-2.05154
 11
0.623444
 21
-2.88428
  0
LINE
  8
0
 10
0.623444
 20
-2.88428
 11
0.85408
 21
-3.51649
  0
LINE
  8
0
 10
0.85408
 20
-3.51649
 11
1.0743
 21
-4.04494
  0
LINE
  8
0
 10
1.0743
 20
-4.04494
 11
1.28783
 21
-4.50702
  0
LINE
  8
0
 10
1.28783
 20
-4.50702
 11
1.49663
 21
-4.92198
  0
LINE
  8
0
 10
1.49663
 20
-4.92198
 11
1.70183
 21
-5.30125
  0
LINE
  8
0
 10
1.70183
 20
-5.30125
 11
1.90416
 21
-5.65224
  0
LINE
  8
0
 10
1.90416
 20
-5.65224
 11
2.10416
 21
-5.98012
  0
LINE
  8
0
 10
2.10416
 20
-5.98012
 11
2.30219
 21
-6.28867
  0
LINE
  8
0
 10
2.30219
 20
-6.28867
 11
2.49855
 21
-6.58072
  0
LINE
  8
0
 10
2.49855
 20
-6.58072
 11
2.69347
 21
-6.85846
  0
LINE
  8
0
 10
2.69347
 20
-6.85846
 11
2.8871
 21
-7.12366
  0
LINE
  8
0
 10
2.8871
 20
-7.12366
 11
3.07961
 21
-7.37773
  0
LINE
  8
0
 10
3.07961
 20
-7.37773
 11
3.27109
 21
-7.62186
  0
LINE
  8
0
 10
3.27109
 20
-7.62186
 11
3.46165
 21
-7.85703
  0
LINE
  8
0
 10
3.46165
 20
-7.85703
 11
3.65138
 21
-8.08403
  0
LINE
  8
0
 10
3.65138
 20
-8.08403
 11
3.84036
 21
-8.30362
  0
LINE
  8
0
 10
3.84036
 20
-8.30362
 11
4.02863
 21
-8.51639
  0
LINE
  8
0
 10
4.02863
 20
-8.51639
 11
4.21626
 21
-8.72287
  0
LINE
  8
0
 10
4.21626
 20
-8.72287
 11
4.40329
 21
-8.92351
  0
LINE
  8
0
 10
4.40329
 20
-8.92351
 11
4.58975
 21
-9.11874
  0
LINE
  8
0
 10
4.58975
 20
-9.11874
 11
4.7757
 21
-9.30893
  0
LINE
  8
0
 10
4.7757
 20
-9.30893
 11
4.96117
 21
-9.49438
  0
LINE
  8
0
 10
4.96117
 20
-9.49438
 11
5.14616
 21
-9.67543
  0
LINE
  8
0
 10
5.14616
 20
-9.67543
 11
5.33073
 21
-9.85229
  0
LINE
  8
0
 10
5.33073
 20
-9.85229
 11
5.51491
 21
-10.0252
  0
LINE
  8
0
 10
5.51491
 20
-10.0252
 11
5.69867
 21
-10.1945
  0
LINE
  8
0
 10
5.69867
 20
-10.1945
 11
5.88208
 21
-10.3602
  0
LINE
  8
0
 10
5.88208
 20
-10.3602
 11
6.06516
 21
-10.5226
  0
LINE
  8
0
 10
6.06516
 20
-10.5226
 11
6.24788
 21
-10.6818
  0
LINE
  8
0
 10
6.24788
 20
-10.6818
 11
6.61241
 21
-10.9912
  0
LINE
  8
0
 10
6.61241
 20
-10.9912
 11
6.9758
 21
-11.2897
  0
LINE
  8
0
 10
6.9758
 20
-11.2897
 11
7.33812
 21
-11.5781
  0
LINE
  8
0
 10
7.33812
 20
-11.5781
 11
7.69945
 21
-11.8573
  0
LINE
  8
0
 10
7.69945
 20
-11.8573
 11
8.05989
 21
-12.1278
  0
LINE
  8
0
 10
8.05989
 20
-12.1278
 11
8.41949
 21
-12.3905
  0
LINE
  8
0
 10
8.41949
 20
-12.3905
 11
8.77831
 21
-12.6457
  0
LINE
  8
0
 10
8.77831
 20
-12.6457
 11
9.13638
 21
-12.894
  0
LINE
  8
0
 10
9.13638
 20
-12.894
 11
9.49376
 21
-13.1358
  0
LINE
  8
0
 10
9.49376
 20
-13.1358
 11
9.85051
 21
-13.3715
  0
LINE
  8
0
 10
9.85051
 20
-13.3715
 11
10.2066
 21
-13.6015
  0
LINE
  8
0
 10
10.2066
 20
-13.6015
 11
10.7397
 21
-13.9365
  0
LINE
  8
0
 10
10.7397
 20
-13.9365
 11
11.2716
 21
-14.2602
  0
LINE
  8
0
 10
11.2716
 20
-14.2602
 11
11.8024
 21
-14.5736
  0
LINE
  8
0
 10
11.8024
 20
-14.5736
 11
12.3321
 21
-14.8773
  0
LINE
  8
0
 10
12.3321
 20
-14.8773
 11
12.8608
 21
-15.172
  0
LINE
  8
0
 10
12.8608
 20
-15.172
 11
13.3886
 21
-15.4584
  0
LINE
  8
0
 10
13.3886
 20
-15.4584
 11
13.9156
 21
-15.7369
  0
LINE
  8
0
 10
13.9156
 20
-15.7369
 11
14.6169
 21
-16.0967
  0
LINE
  8
0
 10
14.6169
 20
-16.0967
 11
15.3169
 21
-16.4444
  0
LINE
  8
0
 10
15.3169
 20
-16.4444
 11
16.0156
 21
-16.7809
  0
LINE
  8
0
 10
16.0156
 20
-16.7809
 11
16.7132
 21
-17.1068
  0
LINE
  8
0
 10
16.7132
 20
-17.1068
 11
17.5836
 21
-17.5004
  0
LINE
  8
0
 10
17.5836
 20
-17.5004
 11
18.4523
 21
-17.8799
  0
LINE
  8
0
 10
18.4523
 20
-17.8799
 11
19.3196
 21
-18.2462
  0
LINE
  8
0
 10
19.3196
 20
-18.2462
 11
20.3586
 21
-18.6698
  0
LINE
  8
0
 10
20.3586
 20
-18.6698
 11
21.3956
 21
-19.0772
  0
LINE
  8
0
 10
21.3956
 20
-19.0772
 11
22.431
 21
-19.4696
  0
LINE
  8
0
 10
22.431
 20
-19.4696
 11
23.6368
 21
-19.9099
  0
LINE
  8
0
 10
23.6368
 20
-19.9099
 11
24.8406
 21
-20.3328
  0
LINE
  8
0
 10
24.8406
 20
-20.3328
 11
26.214
 21
-20.7965
  0
LINE
  8
0
 10
26.214
 20
-20.7965
 11
27.5852
 21
-21.2408
  0
LINE
  8
0
 10
27.5852
 20
-21.2408
 11
29.1251
 21
-21.7193
  0
LINE
  8
0
 10
29.1251
 20
-21.7193
 11
30.6626
 21
-22.1771
  0
LINE
  8
0
 10
30.6626
 20
-22.1771
 11
32.3681
 21
-22.6632
  0
LINE
  8
0
 10
32.3681
 20
-22.6632
 11
34.2411
 21
-23.1729
  0
LINE
  8
0
 10
34.2411
 20
-23.1729
 11
36.281
 21
-23.7014
  0
LINE
  8
0
 10
36.281
 20
-23.7014
 11
38.4871
 21
-24.2443
  0
LINE
  8
0
 10
38.4871
 20
-24.2443
 11
40.8589
 21
-24.7975
  0
LINE
  8
0
 10
40.8589
 20
-24.7975
 11
43.5649
 21
-25.3933
  0
LINE
  8
0
 10
43.5649
 20
-25.3933
 11
46.2663
 21
-25.9538
  0
LINE
  8
0
 10
46.2663
 20
-25.9538
 11
49.3004
 21
-26.546
  0
LINE
  8
0
 10
49.3004
 20
-26.546
 11
50.8155
 21
-26.828
  0
LINE
  8
0
 10
50.8155
 20
-26.828
 11
54.1784
 21
-27.4236
  0
LINE
  8
0
 10
54.1784
 20
-27.4236
 11
58.0392
 21
-28.0599
  0
LINE
  8
0
 10
58.0392
 20
-28.0599
 11
62.2284
 21
-28.6982
  0
LINE
  8
0
 10
62.2284
 20
-28.6982
 11
66.912
 21
-29.3538
  0
LINE
  8
0
 10
66.912
 20
-29.3538
 11
71.0872
 21
-29.8914
  0
LINE
  8
0
 10
71.0872
 20
-29.8914
 11
74.4232
 21
-30.2919
  0
LINE
  8
0
 10
74.4232
 20
-30.2919
 11
80.2529
 21
-30.9349
  0
LINE
  8
0
 10
80.2529
 20
-30.9349
 11
86.7376
 21
-31.5731
  0
LINE
  8
0
 10
86.7376
 20
-31.5731
 11
92.0504
 21
-32.0413
  0
LINE
  8
0
 10
92.0504
 20
-32.0413
 11
95.3674
 21
-32.3108
  0
LINE
  8
0
 10
95.3674
 20
-32.3108
 11
100.007
 21
-32.6601
  0
LINE
  8
0
 10
100.007
 20
-32.6601
 11
109.108
 21
-33.2596
  0
LINE
  8
0
 10
109.108
 20
-33.2596
 11
119.845
 21
-33.8365
  0
LINE
  8
0
 10
119.845
 20
-33.8365
 11
132.211
 21
-34.3493
  0
LINE
  8
0
 10
132.211
 20
-34.3493
 11
140.114
 21
-34.6022
  0
LINE
  8
0
 10
140.114
 20
-34.6022
 11
148.175
 21
-34.8066
  0
LINE
  8
0
 10
148.175
 20
-34.8066
 11
156.064
 21
-34.9586
  0
LINE
  8
0
 10
156.064
 20
-34.9586
 11
164.111
 21
-35.069
  0
LINE
  8
0
 10
164.111
 20
-35.069
 11
172.972
 21
-35.1428
  0
LINE
  8
0
 10
172.972
 20
-35.1428
 11
178.057
 21
-35.1642
  0
LINE
  8
0
 10
178.057
 20
-35.1642
 11
190.35
 21
-35.1584
  0
ENDSEC
  0
SECTION
  2
OBJECTS
  0
DICTIONARY
  0
ENDSEC
  0
EOF
