  0
SECTION
  2
BLOCKS
  0
ENDSEC
  0
SECTION
  2
ENTITIES
  0
LINE
  8
0
 10
683.378
 20
2225.85
 11
696.711
 21
2231.84
  0
LINE
  8
0
 10
696.711
 20
2231.84
 11
736.711
 21
2259.79
  0
LINE
  8
0
 10
736.711
 20
2259.79
 11
736.711
 21
2279.75
  0
LINE
  8
0
 10
736.711
 20
2279.75
 11
648.711
 21
2339.64
  0
LINE
  8
0
 10
648.711
 20
2339.64
 11
618.711
 21
2339.64
  0
LINE
  8
0
 10
618.711
 20
2339.64
 11
618.711
 21
2472.22
  0
LINE
  8
0
 10
618.711
 20
2472.22
 11
498.533
 21
2472.22
  0
LINE
  8
0
 10
498.533
 20
2472.22
 11
378.356
 21
2408.43
  0
LINE
  8
0
 10
378.356
 20
2408.43
 11
378.356
 21
2339.64
  0
LINE
  8
0
 10
378.356
 20
2339.64
 11
15.2686
 21
2339.64
  0
LINE
  8
0
 10
15.2686
 20
2339.64
 11
15.2686
 21
2344.64
  0
LINE
  8
0
 10
15.2686
 20
2344.64
 11
11.4515
 21
2344.64
  0
LINE
  8
0
 10
11.4515
 20
2344.64
 11
11.4515
 21
2339.64
  0
LINE
  8
0
 10
11.4515
 20
2339.64
 11
7.63431
 21
2339.64
  0
LINE
  8
0
 10
7.63431
 20
2339.64
 11
7.63431
 21
2344.64
  0
LINE
  8
0
 10
7.63431
 20
2344.64
 11
3.81715
 21
2344.64
  0
LINE
  8
0
 10
3.81715
 20
2344.64
 11
3.81715
 21
2339.64
  0
LINE
  8
0
 10
3.81715
 20
2339.64
 11
0
 21
2339.64
  0
LINE
  8
0
 10
0
 20
2339.64
 11
0
 21
2319.04
  0
LINE
  8
0
 10
0
 20
2319.04
 11
11.3284
 21
2307.18
  0
LINE
  8
0
 10
11.3284
 20
2307.18
 11
22.4878
 21
2296.52
  0
LINE
  8
0
 10
22.4878
 20
2296.52
 11
33.8163
 21
2287.06
  0
LINE
  8
0
 10
33.8163
 20
2287.06
 11
45.1447
 21
2278.55
  0
LINE
  8
0
 10
45.1447
 20
2278.55
 11
56.3041
 21
2271.01
  0
LINE
  8
0
 10
56.3041
 20
2271.01
 11
67.6325
 21
2264.18
  0
LINE
  8
0
 10
67.6325
 20
2264.18
 11
78.961
 21
2258.19
  0
LINE
  8
0
 10
78.961
 20
2258.19
 11
90.1203
 21
2252.92
  0
LINE
  8
0
 10
90.1203
 20
2252.92
 11
101.449
 21
2248.13
  0
LINE
  8
0
 10
101.449
 20
2248.13
 11
112.777
 21
2243.7
  0
LINE
  8
0
 10
112.777
 20
2243.7
 11
123.937
 21
2239.75
  0
LINE
  8
0
 10
123.937
 20
2239.75
 11
135.265
 21
2236.03
  0
LINE
  8
0
 10
135.265
 20
2236.03
 11
146.593
 21
2232.44
  0
LINE
  8
0
 10
146.593
 20
2232.44
 11
157.753
 21
2228.97
  0
LINE
  8
0
 10
157.753
 20
2228.97
 11
531.398
 21
2219.86
  0
LINE
  8
0
 10
531.398
 20
2219.86
 11
648.711
 21
2219.86
  0
LINE
  8
0
 10
648.711
 20
2219.86
 11
683.378
 21
2225.85
  0
LINE
  8
0
 10
683.378
 20
1960.99
 11
696.711
 21
1966.98
  0
LINE
  8
0
 10
696.711
 20
1966.98
 11
736.711
 21
1994.93
  0
LINE
  8
0
 10
736.711
 20
1994.93
 11
736.711
 21
2014.89
  0
LINE
  8
0
 10
736.711
 20
2014.89
 11
648.711
 21
2074.78
  0
LINE
  8
0
 10
648.711
 20
2074.78
 11
618.711
 21
2074.78
  0
LINE
  8
0
 10
618.711
 20
2074.78
 11
618.711
 21
2207.36
  0
LINE
  8
0
 10
618.711
 20
2207.36
 11
498.533
 21
2207.36
  0
LINE
  8
0
 10
498.533
 20
2207.36
 11
378.356
 21
2143.57
  0
LINE
  8
0
 10
378.356
 20
2143.57
 11
378.356
 21
2074.78
  0
LINE
  8
0
 10
378.356
 20
2074.78
 11
15.2686
 21
2074.78
  0
LINE
  8
0
 10
15.2686
 20
2074.78
 11
15.2686
 21
2079.78
  0
LINE
  8
0
 10
15.2686
 20
2079.78
 11
11.4515
 21
2079.78
  0
LINE
  8
0
 10
11.4515
 20
2079.78
 11
11.4515
 21
2074.78
  0
LINE
  8
0
 10
11.4515
 20
2074.78
 11
7.63431
 21
2074.78
  0
LINE
  8
0
 10
7.63431
 20
2074.78
 11
7.63431
 21
2079.78
  0
LINE
  8
0
 10
7.63431
 20
2079.78
 11
3.81715
 21
2079.78
  0
LINE
  8
0
 10
3.81715
 20
2079.78
 11
3.81715
 21
2074.78
  0
LINE
  8
0
 10
3.81715
 20
2074.78
 11
0
 21
2074.78
  0
LINE
  8
0
 10
0
 20
2074.78
 11
0
 21
2054.18
  0
LINE
  8
0
 10
0
 20
2054.18
 11
11.3284
 21
2042.32
  0
LINE
  8
0
 10
11.3284
 20
2042.32
 11
22.4878
 21
2031.66
  0
LINE
  8
0
 10
22.4878
 20
2031.66
 11
33.8163
 21
2022.2
  0
LINE
  8
0
 10
33.8163
 20
2022.2
 11
45.1447
 21
2013.69
  0
LINE
  8
0
 10
45.1447
 20
2013.69
 11
56.3041
 21
2006.15
  0
LINE
  8
0
 10
56.3041
 20
2006.15
 11
67.6325
 21
1999.32
  0
LINE
  8
0
 10
67.6325
 20
1999.32
 11
78.961
 21
1993.33
  0
LINE
  8
0
 10
78.961
 20
1993.33
 11
90.1203
 21
1988.06
  0
LINE
  8
0
 10
90.1203
 20
1988.06
 11
101.449
 21
1983.27
  0
LINE
  8
0
 10
101.449
 20
1983.27
 11
112.777
 21
1978.84
  0
LINE
  8
0
 10
112.777
 20
1978.84
 11
123.937
 21
1974.88
  0
LINE
  8
0
 10
123.937
 20
1974.88
 11
135.265
 21
1971.17
  0
LINE
  8
0
 10
135.265
 20
1971.17
 11
146.593
 21
1967.58
  0
LINE
  8
0
 10
146.593
 20
1967.58
 11
157.753
 21
1964.1
  0
LINE
  8
0
 10
157.753
 20
1964.1
 11
531.398
 21
1955
  0
LINE
  8
0
 10
531.398
 20
1955
 11
648.711
 21
1955
  0
LINE
  8
0
 10
648.711
 20
1955
 11
683.378
 21
1960.99
  0
LINE
  8
0
 10
510
 20
1119.41
 11
377.285
 21
1119.41
  0
LINE
  8
0
 10
377.285
 20
1119.41
 11
377.285
 21
1155.61
  0
LINE
  8
0
 10
377.285
 20
1155.61
 11
389.35
 21
1208.69
  0
LINE
  8
0
 10
389.35
 20
1208.69
 11
449.675
 21
1208.69
  0
LINE
  8
0
 10
449.675
 20
1208.69
 11
479.837
 21
1184.56
  0
LINE
  8
0
 10
479.837
 20
1184.56
 11
510
 21
1184.56
  0
LINE
  8
0
 10
510
 20
1184.56
 11
510
 21
1942.5
  0
LINE
  8
0
 10
510
 20
1942.5
 11
0
 21
1327.8
  0
LINE
  8
0
 10
0
 20
1327.8
 11
0
 21
977.5
  0
LINE
  8
0
 10
0
 20
977.5
 11
510
 21
977.5
  0
LINE
  8
0
 10
510
 20
977.5
 11
510
 21
1119.41
  0
LINE
  8
0
 10
510
 20
141.912
 11
377.285
 21
141.912
  0
LINE
  8
0
 10
377.285
 20
141.912
 11
377.285
 21
178.107
  0
LINE
  8
0
 10
377.285
 20
178.107
 11
389.35
 21
231.193
  0
LINE
  8
0
 10
389.35
 20
231.193
 11
449.675
 21
231.193
  0
LINE
  8
0
 10
449.675
 20
231.193
 11
479.837
 21
207.063
  0
LINE
  8
0
 10
479.837
 20
207.063
 11
510
 21
207.063
  0
LINE
  8
0
 10
510
 20
207.063
 11
510
 21
965
  0
LINE
  8
0
 10
510
 20
965
 11
0
 21
350.295
  0
LINE
  8
0
 10
0
 20
350.295
 11
0
 21
0
  0
LINE
  8
0
 10
0
 20
0
 11
510
 21
0
  0
LINE
  8
0
 10
510
 20
0
 11
510
 21
141.912
  0
ENDSEC
  0
SECTION
  2
OBJECTS
  0
DICTIONARY
  0
ENDSEC
  0
EOF
