<?xml version="1.0" encoding="UTF-8" standalone="no"?>
<!-- Created with Inkscape (http://www.inkscape.org/) -->

<svg
   xmlns:dc="http://purl.org/dc/elements/1.1/"
   xmlns:cc="http://creativecommons.org/ns#"
   xmlns:rdf="http://www.w3.org/1999/02/22-rdf-syntax-ns#"
   xmlns:svg="http://www.w3.org/2000/svg"
   xmlns="http://www.w3.org/2000/svg"
   version="1.1"
   width="1814.3098"
   height="3585.8008"
   id="svg2">
  <desc
     id="desc4">/home/tucanae47/delta/parametric_delta_wing/big_stable_delta.dxf - scale = 1.000000</desc>
  <metadata
     id="metadata210">
    <rdf:RDF>
      <cc:Work
         rdf:about="">
        <dc:format>image/svg+xml</dc:format>
        <dc:type
           rdf:resource="http://purl.org/dc/dcmitype/StillImage" />
        <dc:title></dc:title>
      </cc:Work>
    </rdf:RDF>
  </metadata>
  <defs
     id="defs6">
    <marker
       refX="0"
       refY="0"
       orient="auto"
       id="DistanceX"
       style="overflow:visible">
      <path
         d="M 3,-3 -3,3 M 0,-5 0,5"
         id="path9"
         style="stroke:#000000;stroke-width:0.5" />
    </marker>
    <pattern
       y="0"
       x="0"
       width="8"
       patternUnits="userSpaceOnUse"
       id="Hatch"
       height="8">
      <path
         id="path12"
         stroke-width="0.25"
         stroke="#000000"
         linecap="square"
         d="M8 4 l-4,4" />
      <path
         id="path14"
         stroke-width="0.25"
         stroke="#000000"
         linecap="square"
         d="M6 2 l-4,4" />
      <path
         id="path16"
         stroke-width="0.25"
         stroke="#000000"
         linecap="square"
         d="M4 0 l-4,4" />
    </pattern>
  </defs>
  <g
     transform="translate(6.7232,2532.9387)"
     id="g18">
    <g
       transform="matrix(-1,0,0,-1,1800.8634,-4465.3127)"
       id="g3300">
      <path
         d="m 1807.0866,-2676.9685 -396,0"
         id="path164"
         style="fill:none;stroke:#000000" />
      <path
         d="m 1411.0866,-2676.9685 0,-108"
         id="path166"
         style="fill:none;stroke:#000000" />
      <path
         d="m 1411.0866,-2784.9685 36,-158.3858"
         id="path168"
         style="fill:none;stroke:#000000" />
      <path
         d="m 1447.0866,-2943.3543 180,0"
         id="path170"
         style="fill:none;stroke:#000000" />
      <path
         d="m 1627.0866,-2943.3543 90,72"
         id="path172"
         style="fill:none;stroke:#000000" />
      <path
         d="m 1717.0866,-2871.3543 90,0"
         id="path174"
         style="fill:none;stroke:#000000" />
      <path
         d="m 1807.0866,-2871.3543 0,-2002.4646"
         id="path176"
         style="fill:none;stroke:#000000" />
      <path
         d="M 1807.0866,-4873.8189 0,-2521.063"
         id="path178"
         style="fill:none;stroke:#000000" />
      <path
         d="m 0,-2521.063 0,588.189"
         id="path180"
         style="fill:none;stroke:#000000" />
      <path
         d="m 0,-1932.874 1807.0866,0"
         id="path182"
         style="fill:none;stroke:#000000" />
      <path
         d="m 1807.0866,-1932.874 0,-744.0945"
         id="path184"
         style="fill:none;stroke:#000000" />
    </g>
    <g
       id="g3396">
      <path
         d="m 1807.0866,308.26772 -396,0"
         id="path186"
         style="fill:none;stroke:#000000" />
      <path
         d="m 1411.0866,308.26772 0,-108"
         id="path188"
         style="fill:none;stroke:#000000" />
      <path
         d="m 1411.0866,200.26772 36,-158.400003"
         id="path190"
         style="fill:none;stroke:#000000" />
      <path
         d="m 1447.0866,41.867717 180,0"
         id="path192"
         style="fill:none;stroke:#000000" />
      <path
         d="m 1627.0866,41.867717 90,72.000003"
         id="path194"
         style="fill:none;stroke:#000000" />
      <path
         d="m 1717.0866,113.86772 90,0"
         id="path196"
         style="fill:none;stroke:#000000" />
      <path
         d="m 1807.0866,113.86772 0,-2002.45042"
         id="path198"
         style="fill:none;stroke:#000000" />
      <path
         d="M 1807.0866,-1888.5827 0,464.17323"
         id="path200"
         style="fill:none;stroke:#000000" />
      <path
         d="M 0,464.17323 0,1052.3622"
         id="path202"
         style="fill:none;stroke:#000000" />
      <path
         d="m 0,1052.3622 1807.0866,0"
         id="path204"
         style="fill:none;stroke:#000000" />
      <path
         d="m 1807.0866,1052.3622 0,-744.09448"
         id="path206"
         style="fill:none;stroke:#000000" />
    </g>
  </g>
</svg>
