  0
SECTION
  2
BLOCKS
  0
ENDSEC
  0
SECTION
  2
ENTITIES
  0
LINE
  8
0
 10
695.393
 20
2214.74
 11
708.726
 21
2220.35
  0
LINE
  8
0
 10
708.726
 20
2220.35
 11
748.726
 21
2246.52
  0
LINE
  8
0
 10
748.726
 20
2246.52
 11
748.726
 21
2265.21
  0
LINE
  8
0
 10
748.726
 20
2265.21
 11
660.726
 21
2321.29
  0
LINE
  8
0
 10
660.726
 20
2321.29
 11
630.726
 21
2321.29
  0
LINE
  8
0
 10
630.726
 20
2321.29
 11
630.726
 21
2450.76
  0
LINE
  8
0
 10
630.726
 20
2450.76
 11
507.545
 21
2450.76
  0
LINE
  8
0
 10
507.545
 20
2450.76
 11
384.363
 21
2388.53
  0
LINE
  8
0
 10
384.363
 20
2388.53
 11
384.363
 21
2321.29
  0
LINE
  8
0
 10
384.363
 20
2321.29
 11
15.5176
 21
2321.29
  0
LINE
  8
0
 10
15.5176
 20
2321.29
 11
15.5176
 21
2326.29
  0
LINE
  8
0
 10
15.5176
 20
2326.29
 11
11.6382
 21
2326.29
  0
LINE
  8
0
 10
11.6382
 20
2326.29
 11
11.6382
 21
2321.29
  0
LINE
  8
0
 10
11.6382
 20
2321.29
 11
7.75882
 21
2321.29
  0
LINE
  8
0
 10
7.75882
 20
2321.29
 11
7.75882
 21
2326.29
  0
LINE
  8
0
 10
7.75882
 20
2326.29
 11
3.87941
 21
2326.29
  0
LINE
  8
0
 10
3.87941
 20
2326.29
 11
3.87941
 21
2321.29
  0
LINE
  8
0
 10
3.87941
 20
2321.29
 11
0
 21
2321.29
  0
LINE
  8
0
 10
0
 20
2321.29
 11
0
 21
2302
  0
LINE
  8
0
 10
0
 20
2302
 11
11.5132
 21
2290.9
  0
LINE
  8
0
 10
11.5132
 20
2290.9
 11
22.8546
 21
2280.91
  0
LINE
  8
0
 10
22.8546
 20
2280.91
 11
34.3678
 21
2272.05
  0
LINE
  8
0
 10
34.3678
 20
2272.05
 11
45.881
 21
2264.09
  0
LINE
  8
0
 10
45.881
 20
2264.09
 11
57.2223
 21
2257.02
  0
LINE
  8
0
 10
57.2223
 20
2257.02
 11
68.7355
 21
2250.63
  0
LINE
  8
0
 10
68.7355
 20
2250.63
 11
80.2487
 21
2245.02
  0
LINE
  8
0
 10
80.2487
 20
2245.02
 11
91.5901
 21
2240.09
  0
LINE
  8
0
 10
91.5901
 20
2240.09
 11
103.103
 21
2235.6
  0
LINE
  8
0
 10
103.103
 20
2235.6
 11
114.617
 21
2231.45
  0
LINE
  8
0
 10
114.617
 20
2231.45
 11
125.958
 21
2227.75
  0
LINE
  8
0
 10
125.958
 20
2227.75
 11
137.471
 21
2224.27
  0
LINE
  8
0
 10
137.471
 20
2224.27
 11
148.984
 21
2220.91
  0
LINE
  8
0
 10
148.984
 20
2220.91
 11
160.326
 21
2217.66
  0
LINE
  8
0
 10
160.326
 20
2217.66
 11
540.065
 21
2209.13
  0
LINE
  8
0
 10
540.065
 20
2209.13
 11
660.726
 21
2209.13
  0
LINE
  8
0
 10
660.726
 20
2209.13
 11
695.393
 21
2214.74
  0
LINE
  8
0
 10
695.393
 20
1960.61
 11
708.726
 21
1966.22
  0
LINE
  8
0
 10
708.726
 20
1966.22
 11
748.726
 21
1992.39
  0
LINE
  8
0
 10
748.726
 20
1992.39
 11
748.726
 21
2011.08
  0
LINE
  8
0
 10
748.726
 20
2011.08
 11
660.726
 21
2067.16
  0
LINE
  8
0
 10
660.726
 20
2067.16
 11
630.726
 21
2067.16
  0
LINE
  8
0
 10
630.726
 20
2067.16
 11
630.726
 21
2196.63
  0
LINE
  8
0
 10
630.726
 20
2196.63
 11
507.545
 21
2196.63
  0
LINE
  8
0
 10
507.545
 20
2196.63
 11
384.363
 21
2134.4
  0
LINE
  8
0
 10
384.363
 20
2134.4
 11
384.363
 21
2067.16
  0
LINE
  8
0
 10
384.363
 20
2067.16
 11
15.5176
 21
2067.16
  0
LINE
  8
0
 10
15.5176
 20
2067.16
 11
15.5176
 21
2072.16
  0
LINE
  8
0
 10
15.5176
 20
2072.16
 11
11.6382
 21
2072.16
  0
LINE
  8
0
 10
11.6382
 20
2072.16
 11
11.6382
 21
2067.16
  0
LINE
  8
0
 10
11.6382
 20
2067.16
 11
7.75882
 21
2067.16
  0
LINE
  8
0
 10
7.75882
 20
2067.16
 11
7.75882
 21
2072.16
  0
LINE
  8
0
 10
7.75882
 20
2072.16
 11
3.87941
 21
2072.16
  0
LINE
  8
0
 10
3.87941
 20
2072.16
 11
3.87941
 21
2067.16
  0
LINE
  8
0
 10
3.87941
 20
2067.16
 11
0
 21
2067.16
  0
LINE
  8
0
 10
0
 20
2067.16
 11
0
 21
2047.87
  0
LINE
  8
0
 10
0
 20
2047.87
 11
11.5132
 21
2036.76
  0
LINE
  8
0
 10
11.5132
 20
2036.76
 11
22.8546
 21
2026.78
  0
LINE
  8
0
 10
22.8546
 20
2026.78
 11
34.3678
 21
2017.92
  0
LINE
  8
0
 10
34.3678
 20
2017.92
 11
45.881
 21
2009.96
  0
LINE
  8
0
 10
45.881
 20
2009.96
 11
57.2223
 21
2002.89
  0
LINE
  8
0
 10
57.2223
 20
2002.89
 11
68.7355
 21
1996.5
  0
LINE
  8
0
 10
68.7355
 20
1996.5
 11
80.2487
 21
1990.89
  0
LINE
  8
0
 10
80.2487
 20
1990.89
 11
91.5901
 21
1985.96
  0
LINE
  8
0
 10
91.5901
 20
1985.96
 11
103.103
 21
1981.47
  0
LINE
  8
0
 10
103.103
 20
1981.47
 11
114.617
 21
1977.32
  0
LINE
  8
0
 10
114.617
 20
1977.32
 11
125.958
 21
1973.62
  0
LINE
  8
0
 10
125.958
 20
1973.62
 11
137.471
 21
1970.14
  0
LINE
  8
0
 10
137.471
 20
1970.14
 11
148.984
 21
1966.78
  0
LINE
  8
0
 10
148.984
 20
1966.78
 11
160.326
 21
1963.52
  0
LINE
  8
0
 10
160.326
 20
1963.52
 11
540.065
 21
1955
  0
LINE
  8
0
 10
540.065
 20
1955
 11
660.726
 21
1955
  0
LINE
  8
0
 10
660.726
 20
1955
 11
695.393
 21
1960.61
  0
LINE
  8
0
 10
510
 20
1119.41
 11
384.27
 21
1119.41
  0
LINE
  8
0
 10
384.27
 20
1119.41
 11
384.27
 21
1153.7
  0
LINE
  8
0
 10
384.27
 20
1153.7
 11
395.7
 21
1203.99
  0
LINE
  8
0
 10
395.7
 20
1203.99
 11
452.85
 21
1203.99
  0
LINE
  8
0
 10
452.85
 20
1203.99
 11
481.425
 21
1181.13
  0
LINE
  8
0
 10
481.425
 20
1181.13
 11
510
 21
1181.13
  0
LINE
  8
0
 10
510
 20
1181.13
 11
510
 21
1942.5
  0
LINE
  8
0
 10
510
 20
1942.5
 11
0
 21
1327.8
  0
LINE
  8
0
 10
0
 20
1327.8
 11
0
 21
977.5
  0
LINE
  8
0
 10
0
 20
977.5
 11
510
 21
977.5
  0
LINE
  8
0
 10
510
 20
977.5
 11
510
 21
1119.41
  0
LINE
  8
0
 10
510
 20
141.912
 11
384.27
 21
141.912
  0
LINE
  8
0
 10
384.27
 20
141.912
 11
384.27
 21
176.202
  0
LINE
  8
0
 10
384.27
 20
176.202
 11
395.7
 21
226.494
  0
LINE
  8
0
 10
395.7
 20
226.494
 11
452.85
 21
226.494
  0
LINE
  8
0
 10
452.85
 20
226.494
 11
481.425
 21
203.634
  0
LINE
  8
0
 10
481.425
 20
203.634
 11
510
 21
203.634
  0
LINE
  8
0
 10
510
 20
203.634
 11
510
 21
965
  0
LINE
  8
0
 10
510
 20
965
 11
0
 21
350.295
  0
LINE
  8
0
 10
0
 20
350.295
 11
0
 21
0
  0
LINE
  8
0
 10
0
 20
0
 11
510
 21
0
  0
LINE
  8
0
 10
510
 20
0
 11
510
 21
141.912
  0
ENDSEC
  0
SECTION
  2
OBJECTS
  0
DICTIONARY
  0
ENDSEC
  0
EOF
