  0
SECTION
  2
HEADER
  9
$ACADVER
  1
AC1014
  9
$HANDSEED
  5
FFFF
  9
$MEASUREMENT
 70
     1
  0
ENDSEC
  0
SECTION
  2
TABLES
  0
TABLE
  2
VPORT
  5
8
330
0
100
AcDbSymbolTable
 70
     4
  0
VPORT
  5
2E
330
8
100
AcDbSymbolTableRecord
100
AcDbViewportTableRecord
  2
*ACTIVE
 70
     0
 10
0.0
 20
0.0
 11
1.0
 21
1.0
 12
210.0
 22
148.5
 13
0.0
 23
0.0
 14
10.0
 24
10.0
 15
10.0
 25
10.0
 16
0.0
 26
0.0
 36
1.0
 17
0.0
 27
0.0
 37
0.0
 40
341.0
 41
1.24
 42
50.0
 43
0.0
 44
0.0
 50
0.0
 51
0.0
 71
     0
 72
   100
 73
     1
 74
     3
 75
     0
 76
     0
 77
     0
 78
     0
  0
ENDTAB
  0
TABLE
  2
LTYPE
  5
5
330
0
100
AcDbSymbolTable
 70
     1
  0
LTYPE
  5
14
330
5
100
AcDbSymbolTableRecord
100
AcDbLinetypeTableRecord
  2
BYBLOCK
 70
     0
  3

 72
    65
 73
     0
 40
0.0
  0
LTYPE
  5
15
330
5
100
AcDbSymbolTableRecord
100
AcDbLinetypeTableRecord
  2
BYLAYER
 70
     0
  3

 72
    65
 73
     0
 40
0.0
  0
LTYPE
  5
16
330
5
100
AcDbSymbolTableRecord
100
AcDbLinetypeTableRecord
  2
CONTINUOUS
 70
     0
  3
Solid line
 72
    65
 73
     0
 40
0.0
  0
ENDTAB
  0
TABLE
  2
LAYER
  5
2
100
AcDbSymbolTable
 70
2
  0
LAYER
  5
50
100
AcDbSymbolTableRecord
100
AcDbLayerTableRecord
  2
0
 70
0
  6
CONTINUOUS
  0
LAYER
  5
51
100
AcDbSymbolTableRecord
100
AcDbLayerTableRecord
  2
Layer_1
 70
0
  6
CONTINUOUS
  0
ENDTAB
  0
TABLE
  2
STYLE
  5
3
330
0
100
AcDbSymbolTable
 70
     1
  0
STYLE
  5
11
330
3
100
AcDbSymbolTableRecord
100
AcDbTextStyleTableRecord
  2
STANDARD
 70
     0
 40
0.0
 41
1.0
 50
0.0
 71
     0
 42
2.5
  3
txt
  4

  0
ENDTAB
  0
TABLE
  2
VIEW
  5
6
330
0
100
AcDbSymbolTable
 70
     0
  0
ENDTAB
  0
TABLE
  2
UCS
  5
7
330
0
100
AcDbSymbolTable
 70
     0
  0
ENDTAB
  0
TABLE
  2
APPID
  5
9
330
0
100
AcDbSymbolTable
 70
     2
  0
APPID
  5
12
330
9
100
AcDbSymbolTableRecord
100
AcDbRegAppTableRecord
  2
ACAD
 70
     0
  0
ENDTAB
  0
TABLE
  2
DIMSTYLE
  5
A
330
0
100
AcDbSymbolTable
 70
     1
  0
DIMSTYLE
105
27
330
A
100
AcDbSymbolTableRecord
100
AcDbDimStyleTableRecord
  2
ISO-25
 70
     0
  3

  4

  5

  6

  7

 40
1.0
 41
2.5
 42
0.625
 43
3.75
 44
1.25
 45
0.0
 46
0.0
 47
0.0
 48
0.0
140
2.5
141
2.5
142
0.0
143
0.03937007874016
144
1.0
145
0.0
146
1.0
147
0.625
 71
     0
 72
     0
 73
     0
 74
     0
 75
     0
 76
     0
 77
     1
 78
     8
170
     0
171
     3
172
     1
173
     0
174
     0
175
     0
176
     0
177
     0
178
     0
270
     2
271
     2
272
     2
273
     2
274
     3
340
11
275
     0
280
     0
281
     0
282
     0
283
     0
284
     8
285
     0
286
     0
287
     3
288
     0
  0
ENDTAB
  0
TABLE
  2
BLOCK_RECORD
  5
1
330
0
100
AcDbSymbolTable
 70
     1
  0
BLOCK_RECORD
  5
1F
330
1
100
AcDbSymbolTableRecord
100
AcDbBlockTableRecord
  2
*MODEL_SPACE
  0
BLOCK_RECORD
  5
1B
330
1
100
AcDbSymbolTableRecord
100
AcDbBlockTableRecord
  2
*PAPER_SPACE
  0
ENDTAB
  0
ENDSEC
  0
SECTION
  2
BLOCKS
  0
BLOCK
  5
20
330
1F
100
AcDbEntity
  8
0
100
AcDbBlockBegin
  2
*MODEL_SPACE
 70
     0
 10
0.0
 20
0.0
 30
0.0
  3
*MODEL_SPACE
  1

  0
ENDBLK
  5
21
330
1F
100
AcDbEntity
  8
0
100
AcDbBlockEnd
  0
BLOCK
  5
1C
330
1B
100
AcDbEntity
 67
     1
  8
0
100
AcDbBlockBegin
  2
*PAPER_SPACE
  1

  0
ENDBLK
  5
1D
330
1B
100
AcDbEntity
 67
     1
  8
0
100
AcDbBlockEnd
  0
ENDSEC
  0
SECTION
  2
ENTITIES
  0
LINE
  5
100
100
AcDbEntity
  8
Layer_1
 62
7
100
AcDbLine
 10
356.056336
 20
151.579920
 30
0.0
 11
369.776016
 21
113.785600
 31
0.0
  0
LINE
  5
101
100
AcDbEntity
  8
Layer_1
 62
7
100
AcDbLine
 10
369.776016
 20
113.785600
 30
0.0
 11
433.895696
 21
0.399760
 31
0.0
  0
LINE
  5
102
100
AcDbEntity
  8
Layer_1
 62
7
100
AcDbLine
 10
433.895696
 20
0.399760
 30
0.0
 11
479.675296
 21
0.399760
 31
0.0
  0
LINE
  5
103
100
AcDbEntity
  8
Layer_1
 62
7
100
AcDbLine
 10
479.675296
 20
0.399760
 30
0.0
 11
617.042176
 21
249.848560
 31
0.0
  0
LINE
  5
104
100
AcDbEntity
  8
Layer_1
 62
7
100
AcDbLine
 10
617.042176
 20
249.848560
 30
0.0
 11
617.042176
 21
334.887920
 31
0.0
  0
LINE
  5
105
100
AcDbEntity
  8
Layer_1
 62
7
100
AcDbLine
 10
617.042176
 20
334.887920
 30
0.0
 11
913.092576
 21
334.887920
 31
0.0
  0
LINE
  5
106
100
AcDbEntity
  8
Layer_1
 62
7
100
AcDbLine
 10
913.092576
 20
334.887920
 30
0.0
 11
913.092576
 21
624.483840
 31
0.0
  0
LINE
  5
107
100
AcDbEntity
  8
Layer_1
 62
7
100
AcDbLine
 10
913.092576
 20
624.483840
 30
0.0
 11
772.154016
 21
914.079760
 31
0.0
  0
LINE
  5
108
100
AcDbEntity
  8
Layer_1
 62
7
100
AcDbLine
 10
772.154016
 20
914.079760
 30
0.0
 11
617.042176
 21
914.079760
 31
0.0
  0
LINE
  5
109
100
AcDbEntity
  8
Layer_1
 62
7
100
AcDbLine
 10
617.042176
 20
914.079760
 30
0.0
 11
617.042176
 21
1430.461496
 31
0.0
  0
LINE
  5
10a
100
AcDbEntity
  8
Layer_1
 62
7
100
AcDbLine
 10
617.042176
 20
1430.461496
 30
0.0
 11
631.215376
 21
1430.461496
 31
0.0
  0
LINE
  5
10b
100
AcDbEntity
  8
Layer_1
 62
7
100
AcDbLine
 10
631.215376
 20
1430.461496
 30
0.0
 11
631.215376
 21
1543.957872
 31
0.0
  0
LINE
  5
10c
100
AcDbEntity
  8
Layer_1
 62
7
100
AcDbLine
 10
631.215376
 20
1543.957872
 30
0.0
 11
617.042176
 21
1543.957872
 31
0.0
  0
LINE
  5
10d
100
AcDbEntity
  8
Layer_1
 62
7
100
AcDbLine
 10
617.042176
 20
1543.957872
 30
0.0
 11
617.042176
 21
1657.455952
 31
0.0
  0
LINE
  5
10e
100
AcDbEntity
  8
Layer_1
 62
7
100
AcDbLine
 10
617.042176
 20
1657.455952
 30
0.0
 11
631.215376
 21
1657.455952
 31
0.0
  0
LINE
  5
10f
100
AcDbEntity
  8
Layer_1
 62
7
100
AcDbLine
 10
631.215376
 20
1657.455952
 30
0.0
 11
631.215376
 21
1770.952896
 31
0.0
  0
LINE
  5
110
100
AcDbEntity
  8
Layer_1
 62
7
100
AcDbLine
 10
631.215376
 20
1770.952896
 30
0.0
 11
617.042176
 21
1770.952896
 31
0.0
  0
LINE
  5
111
100
AcDbEntity
  8
Layer_1
 62
7
100
AcDbLine
 10
617.042176
 20
1770.952896
 30
0.0
 11
617.042176
 21
1884.449840
 31
0.0
  0
LINE
  5
112
100
AcDbEntity
  8
Layer_1
 62
7
100
AcDbLine
 10
617.042176
 20
1884.449840
 30
0.0
 11
569.788656
 21
1884.449840
 31
0.0
  0
LINE
  5
113
100
AcDbEntity
  8
Layer_1
 62
7
100
AcDbLine
 10
569.788656
 20
1884.449840
 30
0.0
 11
542.604416
 21
1855.478627
 31
0.0
  0
LINE
  5
114
100
AcDbEntity
  8
Layer_1
 62
7
100
AcDbLine
 10
542.604416
 20
1855.478627
 30
0.0
 11
518.141376
 21
1826.939982
 31
0.0
  0
LINE
  5
115
100
AcDbEntity
  8
Layer_1
 62
7
100
AcDbLine
 10
518.141376
 20
1826.939982
 30
0.0
 11
496.428016
 21
1797.968768
 31
0.0
  0
LINE
  5
116
100
AcDbEntity
  8
Layer_1
 62
7
100
AcDbLine
 10
496.428016
 20
1797.968768
 30
0.0
 11
476.925616
 21
1768.997840
 31
0.0
  0
LINE
  5
117
100
AcDbEntity
  8
Layer_1
 62
7
100
AcDbLine
 10
476.925616
 20
1768.997840
 30
0.0
 11
459.634336
 21
1740.458912
 31
0.0
  0
LINE
  5
118
100
AcDbEntity
  8
Layer_1
 62
7
100
AcDbLine
 10
459.634336
 20
1740.458912
 30
0.0
 11
443.958736
 21
1711.487984
 31
0.0
  0
LINE
  5
119
100
AcDbEntity
  8
Layer_1
 62
7
100
AcDbLine
 10
443.958736
 20
1711.487984
 30
0.0
 11
430.239056
 21
1682.516768
 31
0.0
  0
LINE
  5
11a
100
AcDbEntity
  8
Layer_1
 62
7
100
AcDbLine
 10
430.239056
 20
1682.516768
 30
0.0
 11
418.135136
 21
1653.978120
 31
0.0
  0
LINE
  5
11b
100
AcDbEntity
  8
Layer_1
 62
7
100
AcDbLine
 10
418.135136
 20
1653.978120
 30
0.0
 11
407.136656
 21
1625.006912
 31
0.0
  0
LINE
  5
11c
100
AcDbEntity
  8
Layer_1
 62
7
100
AcDbLine
 10
407.136656
 20
1625.006912
 30
0.0
 11
396.988656
 21
1596.035984
 31
0.0
  0
LINE
  5
11d
100
AcDbEntity
  8
Layer_1
 62
7
100
AcDbLine
 10
396.988656
 20
1596.035984
 30
0.0
 11
387.917776
 21
1567.496768
 31
0.0
  0
LINE
  5
11e
100
AcDbEntity
  8
Layer_1
 62
7
100
AcDbLine
 10
387.917776
 20
1567.496768
 30
0.0
 11
379.413856
 21
1538.526688
 31
0.0
  0
LINE
  5
11f
100
AcDbEntity
  8
Layer_1
 62
7
100
AcDbLine
 10
379.413856
 20
1538.526688
 30
0.0
 11
371.165056
 21
1509.553776
 31
0.0
  0
LINE
  5
120
100
AcDbEntity
  8
Layer_1
 62
7
100
AcDbLine
 10
371.165056
 20
1509.553776
 30
0.0
 11
363.199696
 21
1481.017400
 31
0.0
  0
LINE
  5
121
100
AcDbEntity
  8
Layer_1
 62
7
100
AcDbLine
 10
363.199696
 20
1481.017400
 30
0.0
 11
342.308336
 21
525.464000
 31
0.0
  0
LINE
  5
122
100
AcDbEntity
  8
Layer_1
 62
7
100
AcDbLine
 10
342.308336
 20
525.464000
 30
0.0
 11
342.308336
 21
249.848560
 31
0.0
  0
LINE
  5
123
100
AcDbEntity
  8
Layer_1
 62
7
100
AcDbLine
 10
342.308336
 20
249.848560
 30
0.0
 11
356.056336
 21
151.579920
 31
0.0
  0
LINE
  5
124
100
AcDbEntity
  8
Layer_1
 62
7
100
AcDbLine
 10
972.474816
 20
635.314320
 30
0.0
 11
986.194496
 21
597.520000
 31
0.0
  0
LINE
  5
125
100
AcDbEntity
  8
Layer_1
 62
7
100
AcDbLine
 10
986.194496
 20
597.520000
 30
0.0
 11
1050.314176
 21
484.134160
 31
0.0
  0
LINE
  5
126
100
AcDbEntity
  8
Layer_1
 62
7
100
AcDbLine
 10
1050.314176
 20
484.134160
 30
0.0
 11
1096.093696
 21
484.134160
 31
0.0
  0
LINE
  5
127
100
AcDbEntity
  8
Layer_1
 62
7
100
AcDbLine
 10
1096.093696
 20
484.134160
 30
0.0
 11
1233.460656
 21
733.582960
 31
0.0
  0
LINE
  5
128
100
AcDbEntity
  8
Layer_1
 62
7
100
AcDbLine
 10
1233.460656
 20
733.582960
 30
0.0
 11
1233.460656
 21
818.622320
 31
0.0
  0
LINE
  5
129
100
AcDbEntity
  8
Layer_1
 62
7
100
AcDbLine
 10
1233.460656
 20
818.622320
 30
0.0
 11
1529.511056
 21
818.622320
 31
0.0
  0
LINE
  5
12a
100
AcDbEntity
  8
Layer_1
 62
7
100
AcDbLine
 10
1529.511056
 20
818.622320
 30
0.0
 11
1529.511056
 21
1108.218240
 31
0.0
  0
LINE
  5
12b
100
AcDbEntity
  8
Layer_1
 62
7
100
AcDbLine
 10
1529.511056
 20
1108.218240
 30
0.0
 11
1388.572416
 21
1397.814160
 31
0.0
  0
LINE
  5
12c
100
AcDbEntity
  8
Layer_1
 62
7
100
AcDbLine
 10
1388.572416
 20
1397.814160
 30
0.0
 11
1233.460656
 21
1397.814160
 31
0.0
  0
LINE
  5
12d
100
AcDbEntity
  8
Layer_1
 62
7
100
AcDbLine
 10
1233.460656
 20
1397.814160
 30
0.0
 11
1233.460656
 21
1914.195896
 31
0.0
  0
LINE
  5
12e
100
AcDbEntity
  8
Layer_1
 62
7
100
AcDbLine
 10
1233.460656
 20
1914.195896
 30
0.0
 11
1247.633856
 21
1914.195896
 31
0.0
  0
LINE
  5
12f
100
AcDbEntity
  8
Layer_1
 62
7
100
AcDbLine
 10
1247.633856
 20
1914.195896
 30
0.0
 11
1247.633856
 21
2027.692272
 31
0.0
  0
LINE
  5
130
100
AcDbEntity
  8
Layer_1
 62
7
100
AcDbLine
 10
1247.633856
 20
2027.692272
 30
0.0
 11
1233.460656
 21
2027.692272
 31
0.0
  0
LINE
  5
131
100
AcDbEntity
  8
Layer_1
 62
7
100
AcDbLine
 10
1233.460656
 20
2027.692272
 30
0.0
 11
1233.460656
 21
2141.190352
 31
0.0
  0
LINE
  5
132
100
AcDbEntity
  8
Layer_1
 62
7
100
AcDbLine
 10
1233.460656
 20
2141.190352
 30
0.0
 11
1247.633856
 21
2141.190352
 31
0.0
  0
LINE
  5
133
100
AcDbEntity
  8
Layer_1
 62
7
100
AcDbLine
 10
1247.633856
 20
2141.190352
 30
0.0
 11
1247.633856
 21
2254.687296
 31
0.0
  0
LINE
  5
134
100
AcDbEntity
  8
Layer_1
 62
7
100
AcDbLine
 10
1247.633856
 20
2254.687296
 30
0.0
 11
1233.460656
 21
2254.687296
 31
0.0
  0
LINE
  5
135
100
AcDbEntity
  8
Layer_1
 62
7
100
AcDbLine
 10
1233.460656
 20
2254.687296
 30
0.0
 11
1233.460656
 21
2368.184240
 31
0.0
  0
LINE
  5
136
100
AcDbEntity
  8
Layer_1
 62
7
100
AcDbLine
 10
1233.460656
 20
2368.184240
 30
0.0
 11
1186.207056
 21
2368.184240
 31
0.0
  0
LINE
  5
137
100
AcDbEntity
  8
Layer_1
 62
7
100
AcDbLine
 10
1186.207056
 20
2368.184240
 30
0.0
 11
1158.994496
 21
2339.213027
 31
0.0
  0
LINE
  5
138
100
AcDbEntity
  8
Layer_1
 62
7
100
AcDbLine
 10
1158.994496
 20
2339.213027
 30
0.0
 11
1134.559856
 21
2310.674382
 31
0.0
  0
LINE
  5
139
100
AcDbEntity
  8
Layer_1
 62
7
100
AcDbLine
 10
1134.559856
 20
2310.674382
 30
0.0
 11
1112.846416
 21
2281.703168
 31
0.0
  0
LINE
  5
13a
100
AcDbEntity
  8
Layer_1
 62
7
100
AcDbLine
 10
1112.846416
 20
2281.703168
 30
0.0
 11
1093.344096
 21
2252.732240
 31
0.0
  0
LINE
  5
13b
100
AcDbEntity
  8
Layer_1
 62
7
100
AcDbLine
 10
1093.344096
 20
2252.732240
 30
0.0
 11
1076.024416
 21
2224.193312
 31
0.0
  0
LINE
  5
13c
100
AcDbEntity
  8
Layer_1
 62
7
100
AcDbLine
 10
1076.024416
 20
2224.193312
 30
0.0
 11
1060.377136
 21
2195.222384
 31
0.0
  0
LINE
  5
13d
100
AcDbEntity
  8
Layer_1
 62
7
100
AcDbLine
 10
1060.377136
 20
2195.222384
 30
0.0
 11
1046.629136
 21
2166.251168
 31
0.0
  0
LINE
  5
13e
100
AcDbEntity
  8
Layer_1
 62
7
100
AcDbLine
 10
1046.629136
 20
2166.251168
 30
0.0
 11
1034.553536
 21
2137.712520
 31
0.0
  0
LINE
  5
13f
100
AcDbEntity
  8
Layer_1
 62
7
100
AcDbLine
 10
1034.553536
 20
2137.712520
 30
0.0
 11
1023.555136
 21
2108.741312
 31
0.0
  0
LINE
  5
140
100
AcDbEntity
  8
Layer_1
 62
7
100
AcDbLine
 10
1023.555136
 20
2108.741312
 30
0.0
 11
1013.407056
 21
2079.770384
 31
0.0
  0
LINE
  5
141
100
AcDbEntity
  8
Layer_1
 62
7
100
AcDbLine
 10
1013.407056
 20
2079.770384
 30
0.0
 11
1004.336176
 21
2051.231168
 31
0.0
  0
LINE
  5
142
100
AcDbEntity
  8
Layer_1
 62
7
100
AcDbLine
 10
1004.336176
 20
2051.231168
 30
0.0
 11
995.803936
 21
2022.261088
 31
0.0
  0
LINE
  5
143
100
AcDbEntity
  8
Layer_1
 62
7
100
AcDbLine
 10
995.803936
 20
2022.261088
 30
0.0
 11
987.583456
 21
1993.288176
 31
0.0
  0
LINE
  5
144
100
AcDbEntity
  8
Layer_1
 62
7
100
AcDbLine
 10
987.583456
 20
1993.288176
 30
0.0
 11
979.618096
 21
1964.751800
 31
0.0
  0
LINE
  5
145
100
AcDbEntity
  8
Layer_1
 62
7
100
AcDbLine
 10
979.618096
 20
1964.751800
 30
0.0
 11
958.726736
 21
1009.198400
 31
0.0
  0
LINE
  5
146
100
AcDbEntity
  8
Layer_1
 62
7
100
AcDbLine
 10
958.726736
 20
1009.198400
 30
0.0
 11
958.726736
 21
733.582960
 31
0.0
  0
LINE
  5
147
100
AcDbEntity
  8
Layer_1
 62
7
100
AcDbLine
 10
958.726736
 20
733.582960
 30
0.0
 11
972.474816
 21
635.314320
 31
0.0
  0
LINE
  5
148
100
AcDbEntity
  8
Layer_1
 62
7
100
AcDbLine
 10
39.753536
 20
2664.810880
 30
0.0
 11
53.473216
 21
2702.605200
 31
0.0
  0
LINE
  5
149
100
AcDbEntity
  8
Layer_1
 62
7
100
AcDbLine
 10
53.473216
 20
2702.605200
 30
0.0
 11
117.592896
 21
2815.991040
 31
0.0
  0
LINE
  5
14a
100
AcDbEntity
  8
Layer_1
 62
7
100
AcDbLine
 10
117.592896
 20
2815.991040
 30
0.0
 11
163.372496
 21
2815.991040
 31
0.0
  0
LINE
  5
14b
100
AcDbEntity
  8
Layer_1
 62
7
100
AcDbLine
 10
163.372496
 20
2815.991040
 30
0.0
 11
300.739376
 21
2566.542240
 31
0.0
  0
LINE
  5
14c
100
AcDbEntity
  8
Layer_1
 62
7
100
AcDbLine
 10
300.739376
 20
2566.542240
 30
0.0
 11
300.739376
 21
2481.502880
 31
0.0
  0
LINE
  5
14d
100
AcDbEntity
  8
Layer_1
 62
7
100
AcDbLine
 10
300.739376
 20
2481.502880
 30
0.0
 11
596.789776
 21
2481.502880
 31
0.0
  0
LINE
  5
14e
100
AcDbEntity
  8
Layer_1
 62
7
100
AcDbLine
 10
596.789776
 20
2481.502880
 30
0.0
 11
596.789776
 21
2191.906960
 31
0.0
  0
LINE
  5
14f
100
AcDbEntity
  8
Layer_1
 62
7
100
AcDbLine
 10
596.789776
 20
2191.906960
 30
0.0
 11
455.851216
 21
1902.311040
 31
0.0
  0
LINE
  5
150
100
AcDbEntity
  8
Layer_1
 62
7
100
AcDbLine
 10
455.851216
 20
1902.311040
 30
0.0
 11
300.739376
 21
1902.311040
 31
0.0
  0
LINE
  5
151
100
AcDbEntity
  8
Layer_1
 62
7
100
AcDbLine
 10
300.739376
 20
1902.311040
 30
0.0
 11
300.739376
 21
1385.929304
 31
0.0
  0
LINE
  5
152
100
AcDbEntity
  8
Layer_1
 62
7
100
AcDbLine
 10
300.739376
 20
1385.929304
 30
0.0
 11
314.912576
 21
1385.929304
 31
0.0
  0
LINE
  5
153
100
AcDbEntity
  8
Layer_1
 62
7
100
AcDbLine
 10
314.912576
 20
1385.929304
 30
0.0
 11
314.912576
 21
1272.432928
 31
0.0
  0
LINE
  5
154
100
AcDbEntity
  8
Layer_1
 62
7
100
AcDbLine
 10
314.912576
 20
1272.432928
 30
0.0
 11
300.739376
 21
1272.432928
 31
0.0
  0
LINE
  5
155
100
AcDbEntity
  8
Layer_1
 62
7
100
AcDbLine
 10
300.739376
 20
1272.432928
 30
0.0
 11
300.739376
 21
1158.934848
 31
0.0
  0
LINE
  5
156
100
AcDbEntity
  8
Layer_1
 62
7
100
AcDbLine
 10
300.739376
 20
1158.934848
 30
0.0
 11
314.912576
 21
1158.934848
 31
0.0
  0
LINE
  5
157
100
AcDbEntity
  8
Layer_1
 62
7
100
AcDbLine
 10
314.912576
 20
1158.934848
 30
0.0
 11
314.912576
 21
1045.437904
 31
0.0
  0
LINE
  5
158
100
AcDbEntity
  8
Layer_1
 62
7
100
AcDbLine
 10
314.912576
 20
1045.437904
 30
0.0
 11
300.739376
 21
1045.437904
 31
0.0
  0
LINE
  5
159
100
AcDbEntity
  8
Layer_1
 62
7
100
AcDbLine
 10
300.739376
 20
1045.437904
 30
0.0
 11
300.739376
 21
931.940960
 31
0.0
  0
LINE
  5
15a
100
AcDbEntity
  8
Layer_1
 62
7
100
AcDbLine
 10
300.739376
 20
931.940960
 30
0.0
 11
253.485856
 21
931.940960
 31
0.0
  0
LINE
  5
15b
100
AcDbEntity
  8
Layer_1
 62
7
100
AcDbLine
 10
253.485856
 20
931.940960
 30
0.0
 11
226.301616
 21
960.912173
 31
0.0
  0
LINE
  5
15c
100
AcDbEntity
  8
Layer_1
 62
7
100
AcDbLine
 10
226.301616
 20
960.912173
 30
0.0
 11
201.838576
 21
989.450818
 31
0.0
  0
LINE
  5
15d
100
AcDbEntity
  8
Layer_1
 62
7
100
AcDbLine
 10
201.838576
 20
989.450818
 30
0.0
 11
180.125216
 21
1018.422032
 31
0.0
  0
LINE
  5
15e
100
AcDbEntity
  8
Layer_1
 62
7
100
AcDbLine
 10
180.125216
 20
1018.422032
 30
0.0
 11
160.622816
 21
1047.392960
 31
0.0
  0
LINE
  5
15f
100
AcDbEntity
  8
Layer_1
 62
7
100
AcDbLine
 10
160.622816
 20
1047.392960
 30
0.0
 11
143.331536
 21
1075.931888
 31
0.0
  0
LINE
  5
160
100
AcDbEntity
  8
Layer_1
 62
7
100
AcDbLine
 10
143.331536
 20
1075.931888
 30
0.0
 11
127.655936
 21
1104.902816
 31
0.0
  0
LINE
  5
161
100
AcDbEntity
  8
Layer_1
 62
7
100
AcDbLine
 10
127.655936
 20
1104.902816
 30
0.0
 11
113.936256
 21
1133.874032
 31
0.0
  0
LINE
  5
162
100
AcDbEntity
  8
Layer_1
 62
7
100
AcDbLine
 10
113.936256
 20
1133.874032
 30
0.0
 11
101.832336
 21
1162.412680
 31
0.0
  0
LINE
  5
163
100
AcDbEntity
  8
Layer_1
 62
7
100
AcDbLine
 10
101.832336
 20
1162.412680
 30
0.0
 11
90.833856
 21
1191.383888
 31
0.0
  0
LINE
  5
164
100
AcDbEntity
  8
Layer_1
 62
7
100
AcDbLine
 10
90.833856
 20
1191.383888
 30
0.0
 11
80.685856
 21
1220.354816
 31
0.0
  0
LINE
  5
165
100
AcDbEntity
  8
Layer_1
 62
7
100
AcDbLine
 10
80.685856
 20
1220.354816
 30
0.0
 11
71.614976
 21
1248.894032
 31
0.0
  0
LINE
  5
166
100
AcDbEntity
  8
Layer_1
 62
7
100
AcDbLine
 10
71.614976
 20
1248.894032
 30
0.0
 11
63.111056
 21
1277.864112
 31
0.0
  0
LINE
  5
167
100
AcDbEntity
  8
Layer_1
 62
7
100
AcDbLine
 10
63.111056
 20
1277.864112
 30
0.0
 11
54.862256
 21
1306.837024
 31
0.0
  0
LINE
  5
168
100
AcDbEntity
  8
Layer_1
 62
7
100
AcDbLine
 10
54.862256
 20
1306.837024
 30
0.0
 11
46.896896
 21
1335.373400
 31
0.0
  0
LINE
  5
169
100
AcDbEntity
  8
Layer_1
 62
7
100
AcDbLine
 10
46.896896
 20
1335.373400
 30
0.0
 11
26.005536
 21
2290.926800
 31
0.0
  0
LINE
  5
16a
100
AcDbEntity
  8
Layer_1
 62
7
100
AcDbLine
 10
26.005536
 20
2290.926800
 30
0.0
 11
26.005536
 21
2566.542240
 31
0.0
  0
LINE
  5
16b
100
AcDbEntity
  8
Layer_1
 62
7
100
AcDbLine
 10
26.005536
 20
2566.542240
 30
0.0
 11
39.753536
 21
2664.810880
 31
0.0
  0
LINE
  5
16c
100
AcDbEntity
  8
Layer_1
 62
7
100
AcDbLine
 10
652.972016
 20
3113.345280
 30
0.0
 11
666.691696
 21
3151.139600
 31
0.0
  0
LINE
  5
16d
100
AcDbEntity
  8
Layer_1
 62
7
100
AcDbLine
 10
666.691696
 20
3151.139600
 30
0.0
 11
730.811376
 21
3264.525440
 31
0.0
  0
LINE
  5
16e
100
AcDbEntity
  8
Layer_1
 62
7
100
AcDbLine
 10
730.811376
 20
3264.525440
 30
0.0
 11
776.590896
 21
3264.525440
 31
0.0
  0
LINE
  5
16f
100
AcDbEntity
  8
Layer_1
 62
7
100
AcDbLine
 10
776.590896
 20
3264.525440
 30
0.0
 11
913.957856
 21
3015.076640
 31
0.0
  0
LINE
  5
170
100
AcDbEntity
  8
Layer_1
 62
7
100
AcDbLine
 10
913.957856
 20
3015.076640
 30
0.0
 11
913.957856
 21
2930.037280
 31
0.0
  0
LINE
  5
171
100
AcDbEntity
  8
Layer_1
 62
7
100
AcDbLine
 10
913.957856
 20
2930.037280
 30
0.0
 11
1210.008256
 21
2930.037280
 31
0.0
  0
LINE
  5
172
100
AcDbEntity
  8
Layer_1
 62
7
100
AcDbLine
 10
1210.008256
 20
2930.037280
 30
0.0
 11
1210.008256
 21
2640.441360
 31
0.0
  0
LINE
  5
173
100
AcDbEntity
  8
Layer_1
 62
7
100
AcDbLine
 10
1210.008256
 20
2640.441360
 30
0.0
 11
1069.069616
 21
2350.845440
 31
0.0
  0
LINE
  5
174
100
AcDbEntity
  8
Layer_1
 62
7
100
AcDbLine
 10
1069.069616
 20
2350.845440
 30
0.0
 11
913.957856
 21
2350.845440
 31
0.0
  0
LINE
  5
175
100
AcDbEntity
  8
Layer_1
 62
7
100
AcDbLine
 10
913.957856
 20
2350.845440
 30
0.0
 11
913.957856
 21
1834.463704
 31
0.0
  0
LINE
  5
176
100
AcDbEntity
  8
Layer_1
 62
7
100
AcDbLine
 10
913.957856
 20
1834.463704
 30
0.0
 11
928.131056
 21
1834.463704
 31
0.0
  0
LINE
  5
177
100
AcDbEntity
  8
Layer_1
 62
7
100
AcDbLine
 10
928.131056
 20
1834.463704
 30
0.0
 11
928.131056
 21
1720.967328
 31
0.0
  0
LINE
  5
178
100
AcDbEntity
  8
Layer_1
 62
7
100
AcDbLine
 10
928.131056
 20
1720.967328
 30
0.0
 11
913.957856
 21
1720.967328
 31
0.0
  0
LINE
  5
179
100
AcDbEntity
  8
Layer_1
 62
7
100
AcDbLine
 10
913.957856
 20
1720.967328
 30
0.0
 11
913.957856
 21
1607.469248
 31
0.0
  0
LINE
  5
17a
100
AcDbEntity
  8
Layer_1
 62
7
100
AcDbLine
 10
913.957856
 20
1607.469248
 30
0.0
 11
928.131056
 21
1607.469248
 31
0.0
  0
LINE
  5
17b
100
AcDbEntity
  8
Layer_1
 62
7
100
AcDbLine
 10
928.131056
 20
1607.469248
 30
0.0
 11
928.131056
 21
1493.972304
 31
0.0
  0
LINE
  5
17c
100
AcDbEntity
  8
Layer_1
 62
7
100
AcDbLine
 10
928.131056
 20
1493.972304
 30
0.0
 11
913.957856
 21
1493.972304
 31
0.0
  0
LINE
  5
17d
100
AcDbEntity
  8
Layer_1
 62
7
100
AcDbLine
 10
913.957856
 20
1493.972304
 30
0.0
 11
913.957856
 21
1380.475360
 31
0.0
  0
LINE
  5
17e
100
AcDbEntity
  8
Layer_1
 62
7
100
AcDbLine
 10
913.957856
 20
1380.475360
 30
0.0
 11
866.704256
 21
1380.475360
 31
0.0
  0
LINE
  5
17f
100
AcDbEntity
  8
Layer_1
 62
7
100
AcDbLine
 10
866.704256
 20
1380.475360
 30
0.0
 11
839.491696
 21
1409.446573
 31
0.0
  0
LINE
  5
180
100
AcDbEntity
  8
Layer_1
 62
7
100
AcDbLine
 10
839.491696
 20
1409.446573
 30
0.0
 11
815.057056
 21
1437.985218
 31
0.0
  0
LINE
  5
181
100
AcDbEntity
  8
Layer_1
 62
7
100
AcDbLine
 10
815.057056
 20
1437.985218
 30
0.0
 11
793.343616
 21
1466.956432
 31
0.0
  0
LINE
  5
182
100
AcDbEntity
  8
Layer_1
 62
7
100
AcDbLine
 10
793.343616
 20
1466.956432
 30
0.0
 11
773.841296
 21
1495.927360
 31
0.0
  0
LINE
  5
183
100
AcDbEntity
  8
Layer_1
 62
7
100
AcDbLine
 10
773.841296
 20
1495.927360
 30
0.0
 11
756.521616
 21
1524.466288
 31
0.0
  0
LINE
  5
184
100
AcDbEntity
  8
Layer_1
 62
7
100
AcDbLine
 10
756.521616
 20
1524.466288
 30
0.0
 11
740.874336
 21
1553.437216
 31
0.0
  0
LINE
  5
185
100
AcDbEntity
  8
Layer_1
 62
7
100
AcDbLine
 10
740.874336
 20
1553.437216
 30
0.0
 11
727.126336
 21
1582.408432
 31
0.0
  0
LINE
  5
186
100
AcDbEntity
  8
Layer_1
 62
7
100
AcDbLine
 10
727.126336
 20
1582.408432
 30
0.0
 11
715.050736
 21
1610.947080
 31
0.0
  0
LINE
  5
187
100
AcDbEntity
  8
Layer_1
 62
7
100
AcDbLine
 10
715.050736
 20
1610.947080
 30
0.0
 11
704.052336
 21
1639.918288
 31
0.0
  0
LINE
  5
188
100
AcDbEntity
  8
Layer_1
 62
7
100
AcDbLine
 10
704.052336
 20
1639.918288
 30
0.0
 11
693.904256
 21
1668.889216
 31
0.0
  0
LINE
  5
189
100
AcDbEntity
  8
Layer_1
 62
7
100
AcDbLine
 10
693.904256
 20
1668.889216
 30
0.0
 11
684.833376
 21
1697.428432
 31
0.0
  0
LINE
  5
18a
100
AcDbEntity
  8
Layer_1
 62
7
100
AcDbLine
 10
684.833376
 20
1697.428432
 30
0.0
 11
676.301136
 21
1726.398512
 31
0.0
  0
LINE
  5
18b
100
AcDbEntity
  8
Layer_1
 62
7
100
AcDbLine
 10
676.301136
 20
1726.398512
 30
0.0
 11
668.080656
 21
1755.371424
 31
0.0
  0
LINE
  5
18c
100
AcDbEntity
  8
Layer_1
 62
7
100
AcDbLine
 10
668.080656
 20
1755.371424
 30
0.0
 11
660.115296
 21
1783.907800
 31
0.0
  0
LINE
  5
18d
100
AcDbEntity
  8
Layer_1
 62
7
100
AcDbLine
 10
660.115296
 20
1783.907800
 30
0.0
 11
639.223936
 21
2739.461200
 31
0.0
  0
LINE
  5
18e
100
AcDbEntity
  8
Layer_1
 62
7
100
AcDbLine
 10
639.223936
 20
2739.461200
 30
0.0
 11
639.223936
 21
3015.076640
 31
0.0
  0
LINE
  5
18f
100
AcDbEntity
  8
Layer_1
 62
7
100
AcDbLine
 10
639.223936
 20
3015.076640
 30
0.0
 11
652.972016
 21
3113.345280
 31
0.0
  0
ENDSEC
  0
SECTION
  2
OBJECTS
  0
DICTIONARY
  5
C
330
0
100
AcDbDictionary
  3
ACAD_GROUP
350
D
  3
ACAD_MLINESTYLE
350
17
  0
DICTIONARY
  5
D
330
C
100
AcDbDictionary
  0
DICTIONARY
  5
1A
330
C
100
AcDbDictionary
  0
DICTIONARY
  5
17
330
C
100
AcDbDictionary
  3
STANDARD
350
18
  0
DICTIONARY
  5
19
330
C
100
AcDbDictionary
  0
ENDSEC
  0
EOF
