<?xml version="1.0" encoding="UTF-8" standalone="no"?>
<!-- Created with Inkscape (http://www.inkscape.org/) -->

<svg
   xmlns:dc="http://purl.org/dc/elements/1.1/"
   xmlns:cc="http://creativecommons.org/ns#"
   xmlns:rdf="http://www.w3.org/1999/02/22-rdf-syntax-ns#"
   xmlns:svg="http://www.w3.org/2000/svg"
   xmlns="http://www.w3.org/2000/svg"
   version="1.1"
   width="1928.392"
   height="4081.157"
   id="svg4542">
  <defs
     id="defs4544" />
  <metadata
     id="metadata4547">
    <rdf:RDF>
      <cc:Work
         rdf:about="">
        <dc:format>image/svg+xml</dc:format>
        <dc:type
           rdf:resource="http://purl.org/dc/dcmitype/StillImage" />
        <dc:title></dc:title>
      </cc:Work>
    </rdf:RDF>
  </metadata>
  <g
     transform="translate(515.62642,1376.788)"
     id="layer1">
    <g
       id="g5001">
      <g
         transform="matrix(0,1,-1,0,-5763.6229,348.8067)"
         id="g4087">
        <path
           d="m 2166.0874,-5693.0669 47.2429,-17.1496"
           id="path4089"
           style="fill:none;stroke:#000000" />
        <path
           d="m 2213.3303,-5710.2165 141.7323,-80.1496"
           id="path4091"
           style="fill:none;stroke:#000000" />
        <path
           d="m 2355.0626,-5790.3661 0,-57.2245"
           id="path4093"
           style="fill:none;stroke:#000000" />
        <path
           d="m 2355.0626,-5847.5906 -311.811,-171.7086"
           id="path4095"
           style="fill:none;stroke:#000000" />
        <path
           d="m 2043.2516,-6019.2992 -106.2992,0"
           id="path4097"
           style="fill:none;stroke:#000000" />
        <path
           d="m 1936.9524,-6019.2992 0,-370.063"
           id="path4099"
           style="fill:none;stroke:#000000" />
        <path
           d="m 1936.9524,-6389.3622 -361.9949,0"
           id="path4101"
           style="fill:none;stroke:#000000" />
        <path
           d="m 1574.9575,-6389.3622 -361.9949,176.1732"
           id="path4103"
           style="fill:none;stroke:#000000" />
        <path
           d="m 1212.9626,-6213.189 0,193.8898"
           id="path4105"
           style="fill:none;stroke:#000000" />
        <path
           d="m 1212.9626,-6019.2992 -645.47717,0"
           id="path4107"
           style="fill:none;stroke:#000000" />
        <path
           d="m 567.48543,-6019.2992 0,-17.7165"
           id="path4109"
           style="fill:none;stroke:#000000" />
        <path
           d="m 567.48543,-6037.0157 -141.87047,0"
           id="path4111"
           style="fill:none;stroke:#000000" />
        <path
           d="m 425.61496,-6037.0157 0,17.7165"
           id="path4113"
           style="fill:none;stroke:#000000" />
        <path
           d="m 425.61496,-6019.2992 -141.8726,0"
           id="path4115"
           style="fill:none;stroke:#000000" />
        <path
           d="m 283.74236,-6019.2992 0,-17.7165"
           id="path4117"
           style="fill:none;stroke:#000000" />
        <path
           d="m 283.74236,-6037.0157 -141.87118,0"
           id="path4119"
           style="fill:none;stroke:#000000" />
        <path
           d="m 141.87118,-6037.0157 0,17.7165"
           id="path4121"
           style="fill:none;stroke:#000000" />
        <path
           d="M 141.87118,-6019.2992 0,-6019.2992"
           id="path4123"
           style="fill:none;stroke:#000000" />
        <path
           d="m 0,-6019.2992 0,59.0669"
           id="path4125"
           style="fill:none;stroke:#000000" />
        <path
           d="m 0,-5960.2323 36.214016,33.9803"
           id="path4127"
           style="fill:none;stroke:#000000" />
        <path
           d="m 36.214016,-5926.252 35.673307,30.5788"
           id="path4129"
           style="fill:none;stroke:#000000" />
        <path
           d="m 71.887323,-5895.6732 36.214017,27.1417"
           id="path4131"
           style="fill:none;stroke:#000000" />
        <path
           d="m 108.10134,-5868.5315 36.21366,24.378"
           id="path4133"
           style="fill:none;stroke:#000000" />
        <path
           d="m 144.315,-5844.1535 35.67366,21.6141"
           id="path4135"
           style="fill:none;stroke:#000000" />
        <path
           d="m 179.98866,-5822.5394 36.21366,19.5945"
           id="path4137"
           style="fill:none;stroke:#000000" />
        <path
           d="m 216.20232,-5802.9449 36.21402,17.1496"
           id="path4139"
           style="fill:none;stroke:#000000" />
        <path
           d="m 252.41634,-5785.7953 35.67331,15.1299"
           id="path4141"
           style="fill:none;stroke:#000000" />
        <path
           d="m 288.08965,-5770.6654 36.21401,13.7481"
           id="path4143"
           style="fill:none;stroke:#000000" />
        <path
           d="m 324.30366,-5756.9173 36.21366,12.685"
           id="path4145"
           style="fill:none;stroke:#000000" />
        <path
           d="m 360.51732,-5744.2323 35.67402,11.3386"
           id="path4147"
           style="fill:none;stroke:#000000" />
        <path
           d="m 396.19134,-5732.8937 36.2126,10.6299"
           id="path4149"
           style="fill:none;stroke:#000000" />
        <path
           d="m 432.40394,-5722.2638 36.21614,10.311"
           id="path4151"
           style="fill:none;stroke:#000000" />
        <path
           d="m 468.62008,-5711.9528 35.67047,9.9567"
           id="path4153"
           style="fill:none;stroke:#000000" />
        <path
           d="m 504.29055,-5701.9961 1194.44175,26.1142"
           id="path4155"
           style="fill:none;stroke:#000000" />
        <path
           d="m 1698.7323,-5675.8819 344.5193,0"
           id="path4157"
           style="fill:none;stroke:#000000" />
        <path
           d="m 2043.2516,-5675.8819 122.8358,-17.185"
           id="path4159"
           style="fill:none;stroke:#000000" />
      </g>
      <g
         transform="matrix(0,1,-1,0,-4235.3282,-255.8613)"
         id="g4161">
        <path
           d="m 2166.0874,-4935.2953 47.2429,-17.1496"
           id="path4163"
           style="fill:none;stroke:#000000" />
        <path
           d="m 2213.3303,-4952.4449 141.7323,-80.1496"
           id="path4165"
           style="fill:none;stroke:#000000" />
        <path
           d="m 2355.0626,-5032.5945 0,-57.2244"
           id="path4167"
           style="fill:none;stroke:#000000" />
        <path
           d="m 2355.0626,-5089.8189 -311.811,-171.7087"
           id="path4169"
           style="fill:none;stroke:#000000" />
        <path
           d="m 2043.2516,-5261.5276 -106.2992,0"
           id="path4171"
           style="fill:none;stroke:#000000" />
        <path
           d="m 1936.9524,-5261.5276 0,-370.063"
           id="path4173"
           style="fill:none;stroke:#000000" />
        <path
           d="m 1936.9524,-5631.5906 -361.9949,0"
           id="path4175"
           style="fill:none;stroke:#000000" />
        <path
           d="m 1574.9575,-5631.5906 -361.9949,176.1733"
           id="path4177"
           style="fill:none;stroke:#000000" />
        <path
           d="m 1212.9626,-5455.4173 0,193.8897"
           id="path4179"
           style="fill:none;stroke:#000000" />
        <path
           d="m 1212.9626,-5261.5276 -645.47717,0"
           id="path4181"
           style="fill:none;stroke:#000000" />
        <path
           d="m 567.48543,-5261.5276 0,-17.7165"
           id="path4183"
           style="fill:none;stroke:#000000" />
        <path
           d="m 567.48543,-5279.2441 -141.87047,0"
           id="path4185"
           style="fill:none;stroke:#000000" />
        <path
           d="m 425.61496,-5279.2441 0,17.7165"
           id="path4187"
           style="fill:none;stroke:#000000" />
        <path
           d="m 425.61496,-5261.5276 -141.8726,0"
           id="path4189"
           style="fill:none;stroke:#000000" />
        <path
           d="m 283.74236,-5261.5276 0,-17.7165"
           id="path4191"
           style="fill:none;stroke:#000000" />
        <path
           d="m 283.74236,-5279.2441 -141.87118,0"
           id="path4193"
           style="fill:none;stroke:#000000" />
        <path
           d="m 141.87118,-5279.2441 0,17.7165"
           id="path4195"
           style="fill:none;stroke:#000000" />
        <path
           d="M 141.87118,-5261.5276 0,-5261.5276"
           id="path4197"
           style="fill:none;stroke:#000000" />
        <path
           d="m 0,-5261.5276 0,59.067"
           id="path4199"
           style="fill:none;stroke:#000000" />
        <path
           d="m 0,-5202.4606 36.214016,34.0157"
           id="path4201"
           style="fill:none;stroke:#000000" />
        <path
           d="m 36.214016,-5168.4449 35.673307,30.5433"
           id="path4203"
           style="fill:none;stroke:#000000" />
        <path
           d="m 71.887323,-5137.9016 36.214017,27.1418"
           id="path4205"
           style="fill:none;stroke:#000000" />
        <path
           d="m 108.10134,-5110.7598 36.21366,24.3779"
           id="path4207"
           style="fill:none;stroke:#000000" />
        <path
           d="m 144.315,-5086.3819 35.67366,21.6496"
           id="path4209"
           style="fill:none;stroke:#000000" />
        <path
           d="m 179.98866,-5064.7323 36.21366,19.5591"
           id="path4211"
           style="fill:none;stroke:#000000" />
        <path
           d="m 216.20232,-5045.1732 36.21402,17.185"
           id="path4213"
           style="fill:none;stroke:#000000" />
        <path
           d="m 252.41634,-5027.9882 35.67331,15.0945"
           id="path4215"
           style="fill:none;stroke:#000000" />
        <path
           d="m 288.08965,-5012.8937 36.21401,13.748"
           id="path4217"
           style="fill:none;stroke:#000000" />
        <path
           d="m 324.30366,-4999.1457 36.21366,12.6851"
           id="path4219"
           style="fill:none;stroke:#000000" />
        <path
           d="m 360.51732,-4986.4606 35.67402,11.3386"
           id="path4221"
           style="fill:none;stroke:#000000" />
        <path
           d="m 396.19134,-4975.122 36.2126,10.6653"
           id="path4223"
           style="fill:none;stroke:#000000" />
        <path
           d="m 432.40394,-4964.4567 36.21614,10.2756"
           id="path4225"
           style="fill:none;stroke:#000000" />
        <path
           d="m 468.62008,-4954.1811 35.67047,9.9567"
           id="path4227"
           style="fill:none;stroke:#000000" />
        <path
           d="m 504.29055,-4944.2244 1194.44175,26.1142"
           id="path4229"
           style="fill:none;stroke:#000000" />
        <path
           d="m 1698.7323,-4918.1102 344.5193,0"
           id="path4231"
           style="fill:none;stroke:#000000" />
        <path
           d="m 2043.2516,-4918.1102 122.8358,-17.1851"
           id="path4233"
           style="fill:none;stroke:#000000" />
      </g>
      <g
         transform="matrix(0,-1,-1,0,-6159.0014,1539.4428)"
         id="g4235">
        <path
           d="m 2166.0874,-5693.0669 47.2429,-17.1496"
           id="path4237"
           style="fill:none;stroke:#000000" />
        <path
           d="m 2213.3303,-5710.2165 141.7323,-80.1496"
           id="path4239"
           style="fill:none;stroke:#000000" />
        <path
           d="m 2355.0626,-5790.3661 0,-57.2245"
           id="path4241"
           style="fill:none;stroke:#000000" />
        <path
           d="m 2355.0626,-5847.5906 -311.811,-171.7086"
           id="path4243"
           style="fill:none;stroke:#000000" />
        <path
           d="m 2043.2516,-6019.2992 -106.2992,0"
           id="path4245"
           style="fill:none;stroke:#000000" />
        <path
           d="m 1936.9524,-6019.2992 0,-370.063"
           id="path4247"
           style="fill:none;stroke:#000000" />
        <path
           d="m 1936.9524,-6389.3622 -361.9949,0"
           id="path4249"
           style="fill:none;stroke:#000000" />
        <path
           d="m 1574.9575,-6389.3622 -361.9949,176.1732"
           id="path4251"
           style="fill:none;stroke:#000000" />
        <path
           d="m 1212.9626,-6213.189 0,193.8898"
           id="path4253"
           style="fill:none;stroke:#000000" />
        <path
           d="m 1212.9626,-6019.2992 -645.47717,0"
           id="path4255"
           style="fill:none;stroke:#000000" />
        <path
           d="m 567.48543,-6019.2992 0,-17.7165"
           id="path4257"
           style="fill:none;stroke:#000000" />
        <path
           d="m 567.48543,-6037.0157 -141.87047,0"
           id="path4259"
           style="fill:none;stroke:#000000" />
        <path
           d="m 425.61496,-6037.0157 0,17.7165"
           id="path4261"
           style="fill:none;stroke:#000000" />
        <path
           d="m 425.61496,-6019.2992 -141.8726,0"
           id="path4263"
           style="fill:none;stroke:#000000" />
        <path
           d="m 283.74236,-6019.2992 0,-17.7165"
           id="path4265"
           style="fill:none;stroke:#000000" />
        <path
           d="m 283.74236,-6037.0157 -141.87118,0"
           id="path4267"
           style="fill:none;stroke:#000000" />
        <path
           d="m 141.87118,-6037.0157 0,17.7165"
           id="path4269"
           style="fill:none;stroke:#000000" />
        <path
           d="M 141.87118,-6019.2992 0,-6019.2992"
           id="path4271"
           style="fill:none;stroke:#000000" />
        <path
           d="m 0,-6019.2992 0,59.0669"
           id="path4273"
           style="fill:none;stroke:#000000" />
        <path
           d="m 0,-5960.2323 36.214016,33.9803"
           id="path4275"
           style="fill:none;stroke:#000000" />
        <path
           d="m 36.214016,-5926.252 35.673307,30.5788"
           id="path4277"
           style="fill:none;stroke:#000000" />
        <path
           d="m 71.887323,-5895.6732 36.214017,27.1417"
           id="path4279"
           style="fill:none;stroke:#000000" />
        <path
           d="m 108.10134,-5868.5315 36.21366,24.378"
           id="path4281"
           style="fill:none;stroke:#000000" />
        <path
           d="m 144.315,-5844.1535 35.67366,21.6141"
           id="path4283"
           style="fill:none;stroke:#000000" />
        <path
           d="m 179.98866,-5822.5394 36.21366,19.5945"
           id="path4285"
           style="fill:none;stroke:#000000" />
        <path
           d="m 216.20232,-5802.9449 36.21402,17.1496"
           id="path4287"
           style="fill:none;stroke:#000000" />
        <path
           d="m 252.41634,-5785.7953 35.67331,15.1299"
           id="path4289"
           style="fill:none;stroke:#000000" />
        <path
           d="m 288.08965,-5770.6654 36.21401,13.7481"
           id="path4291"
           style="fill:none;stroke:#000000" />
        <path
           d="m 324.30366,-5756.9173 36.21366,12.685"
           id="path4293"
           style="fill:none;stroke:#000000" />
        <path
           d="m 360.51732,-5744.2323 35.67402,11.3386"
           id="path4295"
           style="fill:none;stroke:#000000" />
        <path
           d="m 396.19134,-5732.8937 36.2126,10.6299"
           id="path4297"
           style="fill:none;stroke:#000000" />
        <path
           d="m 432.40394,-5722.2638 36.21614,10.311"
           id="path4299"
           style="fill:none;stroke:#000000" />
        <path
           d="m 468.62008,-5711.9528 35.67047,9.9567"
           id="path4301"
           style="fill:none;stroke:#000000" />
        <path
           d="m 504.29055,-5701.9961 1194.44175,26.1142"
           id="path4303"
           style="fill:none;stroke:#000000" />
        <path
           d="m 1698.7323,-5675.8819 344.5193,0"
           id="path4305"
           style="fill:none;stroke:#000000" />
        <path
           d="m 2043.2516,-5675.8819 122.8358,-17.185"
           id="path4307"
           style="fill:none;stroke:#000000" />
      </g>
      <g
         transform="matrix(0,-1,-1,0,-4634.7067,978.7748)"
         id="g4309">
        <path
           d="m 2166.0874,-4935.2953 47.2429,-17.1496"
           id="path4311"
           style="fill:none;stroke:#000000" />
        <path
           d="m 2213.3303,-4952.4449 141.7323,-80.1496"
           id="path4313"
           style="fill:none;stroke:#000000" />
        <path
           d="m 2355.0626,-5032.5945 0,-57.2244"
           id="path4315"
           style="fill:none;stroke:#000000" />
        <path
           d="m 2355.0626,-5089.8189 -311.811,-171.7087"
           id="path4317"
           style="fill:none;stroke:#000000" />
        <path
           d="m 2043.2516,-5261.5276 -106.2992,0"
           id="path4319"
           style="fill:none;stroke:#000000" />
        <path
           d="m 1936.9524,-5261.5276 0,-370.063"
           id="path4321"
           style="fill:none;stroke:#000000" />
        <path
           d="m 1936.9524,-5631.5906 -361.9949,0"
           id="path4323"
           style="fill:none;stroke:#000000" />
        <path
           d="m 1574.9575,-5631.5906 -361.9949,176.1733"
           id="path4325"
           style="fill:none;stroke:#000000" />
        <path
           d="m 1212.9626,-5455.4173 0,193.8897"
           id="path4327"
           style="fill:none;stroke:#000000" />
        <path
           d="m 1212.9626,-5261.5276 -645.47717,0"
           id="path4329"
           style="fill:none;stroke:#000000" />
        <path
           d="m 567.48543,-5261.5276 0,-17.7165"
           id="path4331"
           style="fill:none;stroke:#000000" />
        <path
           d="m 567.48543,-5279.2441 -141.87047,0"
           id="path4333"
           style="fill:none;stroke:#000000" />
        <path
           d="m 425.61496,-5279.2441 0,17.7165"
           id="path4335"
           style="fill:none;stroke:#000000" />
        <path
           d="m 425.61496,-5261.5276 -141.8726,0"
           id="path4337"
           style="fill:none;stroke:#000000" />
        <path
           d="m 283.74236,-5261.5276 0,-17.7165"
           id="path4339"
           style="fill:none;stroke:#000000" />
        <path
           d="m 283.74236,-5279.2441 -141.87118,0"
           id="path4341"
           style="fill:none;stroke:#000000" />
        <path
           d="m 141.87118,-5279.2441 0,17.7165"
           id="path4343"
           style="fill:none;stroke:#000000" />
        <path
           d="M 141.87118,-5261.5276 0,-5261.5276"
           id="path4345"
           style="fill:none;stroke:#000000" />
        <path
           d="m 0,-5261.5276 0,59.067"
           id="path4347"
           style="fill:none;stroke:#000000" />
        <path
           d="m 0,-5202.4606 36.214016,34.0157"
           id="path4349"
           style="fill:none;stroke:#000000" />
        <path
           d="m 36.214016,-5168.4449 35.673307,30.5433"
           id="path4351"
           style="fill:none;stroke:#000000" />
        <path
           d="m 71.887323,-5137.9016 36.214017,27.1418"
           id="path4353"
           style="fill:none;stroke:#000000" />
        <path
           d="m 108.10134,-5110.7598 36.21366,24.3779"
           id="path4355"
           style="fill:none;stroke:#000000" />
        <path
           d="m 144.315,-5086.3819 35.67366,21.6496"
           id="path4357"
           style="fill:none;stroke:#000000" />
        <path
           d="m 179.98866,-5064.7323 36.21366,19.5591"
           id="path4359"
           style="fill:none;stroke:#000000" />
        <path
           d="m 216.20232,-5045.1732 36.21402,17.185"
           id="path4361"
           style="fill:none;stroke:#000000" />
        <path
           d="m 252.41634,-5027.9882 35.67331,15.0945"
           id="path4363"
           style="fill:none;stroke:#000000" />
        <path
           d="m 288.08965,-5012.8937 36.21401,13.748"
           id="path4365"
           style="fill:none;stroke:#000000" />
        <path
           d="m 324.30366,-4999.1457 36.21366,12.6851"
           id="path4367"
           style="fill:none;stroke:#000000" />
        <path
           d="m 360.51732,-4986.4606 35.67402,11.3386"
           id="path4369"
           style="fill:none;stroke:#000000" />
        <path
           d="m 396.19134,-4975.122 36.2126,10.6653"
           id="path4371"
           style="fill:none;stroke:#000000" />
        <path
           d="m 432.40394,-4964.4567 36.21614,10.2756"
           id="path4373"
           style="fill:none;stroke:#000000" />
        <path
           d="m 468.62008,-4954.1811 35.67047,9.9567"
           id="path4375"
           style="fill:none;stroke:#000000" />
        <path
           d="m 504.29055,-4944.2244 1194.44175,26.1142"
           id="path4377"
           style="fill:none;stroke:#000000" />
        <path
           d="m 1698.7323,-4918.1102 344.5193,0"
           id="path4379"
           style="fill:none;stroke:#000000" />
        <path
           d="m 2043.2516,-4918.1102 122.8358,-17.1851"
           id="path4381"
           style="fill:none;stroke:#000000" />
      </g>
    </g>
  </g>
</svg>
