  0
SECTION
  2
BLOCKS
  0
ENDSEC
  0
SECTION
  2
ENTITIES
  0
LINE
  8
0
 10
58.2751
 20
-8.32455
 11
75.392
 21
-7.74986
  0
LINE
  8
0
 10
75.392
 20
-7.74986
 11
138.636
 21
-5.00212
  0
LINE
  8
0
 10
138.636
 20
-5.00212
 11
138.636
 21
-5
  0
LINE
  8
0
 10
138.636
 20
-5
 11
80
 21
-5
  0
LINE
  8
0
 10
80
 20
-5
 11
80
 21
5
  0
LINE
  8
0
 10
80
 20
5
 11
223.449
 21
5
  0
LINE
  8
0
 10
223.449
 20
5
 11
223.449
 21
5.00452
  0
LINE
  8
0
 10
223.449
 20
5.00452
 11
210.222
 21
7.75185
  0
LINE
  8
0
 10
210.222
 20
7.75185
 11
194.563
 21
10.7026
  0
LINE
  8
0
 10
194.563
 20
10.7026
 11
179.69
 21
13.2107
  0
LINE
  8
0
 10
179.69
 20
13.2107
 11
162.863
 21
15.7035
  0
LINE
  8
0
 10
162.863
 20
15.7035
 11
151.899
 21
17.127
  0
LINE
  8
0
 10
151.899
 20
17.127
 11
135.496
 21
18.9481
  0
LINE
  8
0
 10
135.496
 20
18.9481
 11
121.382
 21
20.2003
  0
LINE
  8
0
 10
121.382
 20
20.2003
 11
107.397
 21
21.1278
  0
LINE
  8
0
 10
107.397
 20
21.1278
 11
96.3477
 21
21.6165
  0
LINE
  8
0
 10
96.3477
 20
21.6165
 11
89.285
 21
21.7753
  0
LINE
  8
0
 10
89.285
 20
21.7753
 11
85.2263
 21
21.8024
  0
LINE
  8
0
 10
85.2263
 20
21.8024
 11
76.707
 21
21.6994
  0
LINE
  8
0
 10
76.707
 20
21.6994
 11
70.3441
 21
21.4737
  0
LINE
  8
0
 10
70.3441
 20
21.4737
 11
61.433
 21
20.9274
  0
LINE
  8
0
 10
61.433
 20
20.9274
 11
58.0824
 21
20.6476
  0
LINE
  8
0
 10
58.0824
 20
20.6476
 11
52.3876
 21
20.0718
  0
LINE
  8
0
 10
52.3876
 20
20.0718
 11
47.2511
 21
19.4365
  0
LINE
  8
0
 10
47.2511
 20
19.4365
 11
42.6723
 21
18.7695
  0
LINE
  8
0
 10
42.6723
 20
18.7695
 11
36.4685
 21
17.6981
  0
LINE
  8
0
 10
36.4685
 20
17.6981
 11
32.6595
 21
16.9336
  0
LINE
  8
0
 10
32.6595
 20
16.9336
 11
30.4879
 21
16.4574
  0
LINE
  8
0
 10
30.4879
 20
16.4574
 11
26.5508
 21
15.5111
  0
LINE
  8
0
 10
26.5508
 20
15.5111
 11
23.1196
 21
14.5888
  0
LINE
  8
0
 10
23.1196
 20
14.5888
 11
19.3146
 21
13.4409
  0
LINE
  8
0
 10
19.3146
 20
13.4409
 11
17.1301
 21
12.712
  0
LINE
  8
0
 10
17.1301
 20
12.712
 11
15.0514
 21
11.9624
  0
LINE
  8
0
 10
15.0514
 20
11.9624
 11
14.136
 21
11.6127
  0
LINE
  8
0
 10
14.136
 20
11.6127
 11
12.5511
 21
10.9749
  0
LINE
  8
0
 10
12.5511
 20
10.9749
 11
11.069
 21
10.3363
  0
LINE
  8
0
 10
11.069
 20
10.3363
 11
9.21512
 21
9.46901
  0
LINE
  8
0
 10
9.21512
 20
9.46901
 11
7.70496
 21
8.69267
  0
LINE
  8
0
 10
7.70496
 20
8.69267
 11
6.48698
 21
8.00844
  0
LINE
  8
0
 10
6.48698
 20
8.00844
 11
5.51051
 21
7.41238
  0
LINE
  8
0
 10
5.51051
 20
7.41238
 11
4.67987
 21
6.86339
  0
LINE
  8
0
 10
4.67987
 20
6.86339
 11
3.99313
 21
6.37288
  0
LINE
  8
0
 10
3.99313
 20
6.37288
 11
3.40285
 21
5.91794
  0
LINE
  8
0
 10
3.40285
 20
5.91794
 11
2.9077
 21
5.50647
  0
LINE
  8
0
 10
2.9077
 20
5.50647
 11
2.50613
 21
5.14777
  0
LINE
  8
0
 10
2.50613
 20
5.14777
 11
2.15244
 21
4.80867
  0
LINE
  8
0
 10
2.15244
 20
4.80867
 11
1.84596
 21
4.49304
  0
LINE
  8
0
 10
1.84596
 20
4.49304
 11
1.58597
 21
4.20547
  0
LINE
  8
0
 10
1.58597
 20
4.20547
 11
1.3716
 21
3.95135
  0
LINE
  8
0
 10
1.3716
 20
3.95135
 11
1.20187
 21
3.73676
  0
LINE
  8
0
 10
1.20187
 20
3.73676
 11
1.03401
 21
3.51021
  0
LINE
  8
0
 10
1.03401
 20
3.51021
 11
0.909561
 21
3.33104
  0
LINE
  8
0
 10
0.909561
 20
3.33104
 11
0.78656
 21
3.14252
  0
LINE
  8
0
 10
0.78656
 20
3.14252
 11
0.665268
 21
2.94289
  0
LINE
  8
0
 10
0.665268
 20
2.94289
 11
0.585541
 21
2.80252
  0
LINE
  8
0
 10
0.585541
 20
2.80252
 11
0.506866
 21
2.65529
  0
LINE
  8
0
 10
0.506866
 20
2.65529
 11
0.429428
 21
2.49998
  0
LINE
  8
0
 10
0.429428
 20
2.49998
 11
0.353455
 21
2.33507
  0
LINE
  8
0
 10
0.353455
 20
2.33507
 11
0.279282
 21
2.15842
  0
LINE
  8
0
 10
0.279282
 20
2.15842
 11
0.243011
 21
2.06476
  0
LINE
  8
0
 10
0.243011
 20
2.06476
 11
0.207367
 21
1.96692
  0
LINE
  8
0
 10
0.207367
 20
1.96692
 11
0.17247
 21
1.86423
  0
LINE
  8
0
 10
0.17247
 20
1.86423
 11
0.138443
 21
1.75584
  0
LINE
  8
0
 10
0.138443
 20
1.75584
 11
0.105423
 21
1.64069
  0
LINE
  8
0
 10
0.105423
 20
1.64069
 11
0.0736694
 21
1.51723
  0
LINE
  8
0
 10
0.0736694
 20
1.51723
 11
0.0435028
 21
1.38329
  0
LINE
  8
0
 10
0.0435028
 20
1.38329
 11
0.0154266
 21
1.23552
  0
LINE
  8
0
 10
0.0154266
 20
1.23552
 11
-0.00968933
 21
1.06828
  0
LINE
  8
0
 10
-0.00968933
 20
1.06828
 11
-0.0302582
 21
0.87059
  0
LINE
  8
0
 10
-0.0302582
 20
0.87059
 11
-0.0419617
 21
0.614075
  0
LINE
  8
0
 10
-0.0419617
 20
0.614075
 11
0
 21
0
  0
LINE
  8
0
 10
0
 20
0
 11
0.139954
 21
-0.59938
  0
LINE
  8
0
 10
0.139954
 20
-0.59938
 11
0.226257
 21
-0.841217
  0
LINE
  8
0
 10
0.226257
 20
-0.841217
 11
0.303696
 21
-1.02422
  0
LINE
  8
0
 10
0.303696
 20
-1.02422
 11
0.376556
 21
-1.17679
  0
LINE
  8
0
 10
0.376556
 20
-1.17679
 11
0.446472
 21
-1.30988
  0
LINE
  8
0
 10
0.446472
 20
-1.30988
 11
0.514313
 21
-1.42917
  0
LINE
  8
0
 10
0.514313
 20
-1.42917
 11
0.580551
 21
-1.53796
  0
LINE
  8
0
 10
0.580551
 20
-1.53796
 11
0.645554
 21
-1.63849
  0
LINE
  8
0
 10
0.645554
 20
-1.63849
 11
0.709518
 21
-1.73221
  0
LINE
  8
0
 10
0.709518
 20
-1.73221
 11
0.772614
 21
-1.82028
  0
LINE
  8
0
 10
0.772614
 20
-1.82028
 11
0.834976
 21
-1.90352
  0
LINE
  8
0
 10
0.834976
 20
-1.90352
 11
0.95787
 21
-2.05791
  0
LINE
  8
0
 10
0.95787
 20
-2.05791
 11
1.07875
 21
-2.19917
  0
LINE
  8
0
 10
1.07875
 20
-2.19917
 11
1.19801
 21
-2.32988
  0
LINE
  8
0
 10
1.19801
 20
-2.32988
 11
1.31593
 21
-2.45186
  0
LINE
  8
0
 10
1.31593
 20
-2.45186
 11
1.49071
 21
-2.62128
  0
LINE
  8
0
 10
1.49071
 20
-2.62128
 11
1.66344
 21
-2.77731
  0
LINE
  8
0
 10
1.66344
 20
-2.77731
 11
1.83443
 21
-2.92232
  0
LINE
  8
0
 10
1.83443
 20
-2.92232
 11
2.0602
 21
-3.10144
  0
LINE
  8
0
 10
2.0602
 20
-3.10144
 11
2.28386
 21
-3.26701
  0
LINE
  8
0
 10
2.28386
 20
-3.26701
 11
2.56091
 21
-3.45824
  0
LINE
  8
0
 10
2.56091
 20
-3.45824
 11
2.89037
 21
-3.66864
  0
LINE
  8
0
 10
2.89037
 20
-3.66864
 11
3.27129
 21
-3.89268
  0
LINE
  8
0
 10
3.27129
 20
-3.89268
 11
3.70288
 21
-4.12578
  0
LINE
  8
0
 10
3.70288
 20
-4.12578
 11
4.23782
 21
-4.38927
  0
LINE
  8
0
 10
4.23782
 20
-4.38927
 11
4.87433
 21
-4.67274
  0
LINE
  8
0
 10
4.87433
 20
-4.67274
 11
5.61086
 21
-4.96756
  0
LINE
  8
0
 10
5.61086
 20
-4.96756
 11
6.55013
 21
-5.30191
  0
LINE
  8
0
 10
6.55013
 20
-5.30191
 11
7.6888
 21
-5.65732
  0
LINE
  8
0
 10
7.6888
 20
-5.65732
 11
9.12628
 21
-6.04459
  0
LINE
  8
0
 10
9.12628
 20
-6.04459
 11
11.0101
 21
-6.47198
  0
LINE
  8
0
 10
11.0101
 20
-6.47198
 11
13.6347
 21
-6.95363
  0
LINE
  8
0
 10
13.6347
 20
-6.95363
 11
17.3352
 21
-7.46947
  0
LINE
  8
0
 10
17.3352
 20
-7.46947
 11
19.8676
 21
-7.74036
  0
LINE
  8
0
 10
19.8676
 20
-7.74036
 11
25.1934
 21
-8.15067
  0
LINE
  8
0
 10
25.1934
 20
-8.15067
 11
30.5786
 21
-8.4023
  0
LINE
  8
0
 10
30.5786
 20
-8.4023
 11
34.9135
 21
-8.51653
  0
LINE
  8
0
 10
34.9135
 20
-8.51653
 11
35.5453
 21
-8.52773
  0
LINE
  8
0
 10
35.5453
 20
-8.52773
 11
44.3602
 21
-8.56862
  0
LINE
  8
0
 10
44.3602
 20
-8.56862
 11
58.2751
 21
-8.32455
  0
ENDSEC
  0
SECTION
  2
OBJECTS
  0
DICTIONARY
  0
ENDSEC
  0
EOF
