  0
SECTION
  2
BLOCKS
  0
ENDSEC
  0
SECTION
  2
ENTITIES
  0
LINE
  8
0
 10
66.5466
 20
-7.82037
 11
90.1596
 21
-7.18719
  0
LINE
  8
0
 10
90.1596
 20
-7.18719
 11
131.75
 21
-5.62001
  0
LINE
  8
0
 10
131.75
 20
-5.62001
 11
145.181
 21
-5.00188
  0
LINE
  8
0
 10
145.181
 20
-5.00188
 11
145.181
 21
-5
  0
LINE
  8
0
 10
145.181
 20
-5
 11
80
 21
-5
  0
LINE
  8
0
 10
80
 20
-5
 11
80
 21
5
  0
LINE
  8
0
 10
80
 20
5
 11
216.166
 21
5
  0
LINE
  8
0
 10
216.166
 20
5
 11
216.166
 21
5.00154
  0
LINE
  8
0
 10
216.166
 20
5.00154
 11
200.634
 21
7.3455
  0
LINE
  8
0
 10
200.634
 20
7.3455
 11
185.565
 21
9.39771
  0
LINE
  8
0
 10
185.565
 20
9.39771
 11
170.472
 21
11.2365
  0
LINE
  8
0
 10
170.472
 20
11.2365
 11
155.703
 21
12.8229
  0
LINE
  8
0
 10
155.703
 20
12.8229
 11
137.819
 21
14.4484
  0
LINE
  8
0
 10
137.819
 20
14.4484
 11
118.83
 21
15.7896
  0
LINE
  8
0
 10
118.83
 20
15.7896
 11
107.703
 21
16.3711
  0
LINE
  8
0
 10
107.703
 20
16.3711
 11
93.933
 21
16.8501
  0
LINE
  8
0
 10
93.933
 20
16.8501
 11
83.9112
 21
16.9682
  0
LINE
  8
0
 10
83.9112
 20
16.9682
 11
74.3349
 21
16.8681
  0
LINE
  8
0
 10
74.3349
 20
16.8681
 11
65.9518
 21
16.594
  0
LINE
  8
0
 10
65.9518
 20
16.594
 11
56.088
 21
16.0244
  0
LINE
  8
0
 10
56.088
 20
16.0244
 11
51.6809
 21
15.6747
  0
LINE
  8
0
 10
51.6809
 20
15.6747
 11
41.397
 21
14.5983
  0
LINE
  8
0
 10
41.397
 20
14.5983
 11
37.6961
 21
14.1107
  0
LINE
  8
0
 10
37.6961
 20
14.1107
 11
32.9664
 21
13.3988
  0
LINE
  8
0
 10
32.9664
 20
13.3988
 11
28.6397
 21
12.6492
  0
LINE
  8
0
 10
28.6397
 20
12.6492
 11
25.4015
 21
12.018
  0
LINE
  8
0
 10
25.4015
 20
12.018
 11
22.2681
 21
11.3414
  0
LINE
  8
0
 10
22.2681
 20
11.3414
 11
19.8255
 21
10.7627
  0
LINE
  8
0
 10
19.8255
 20
10.7627
 11
17.3398
 21
10.1203
  0
LINE
  8
0
 10
17.3398
 20
10.1203
 11
13.8425
 21
9.10657
  0
LINE
  8
0
 10
13.8425
 20
9.10657
 11
11.1348
 21
8.20998
  0
LINE
  8
0
 10
11.1348
 20
8.20998
 11
9.06522
 21
7.4377
  0
LINE
  8
0
 10
9.06522
 20
7.4377
 11
7.43646
 21
6.75998
  0
LINE
  8
0
 10
7.43646
 20
6.75998
 11
6.14922
 21
6.16713
  0
LINE
  8
0
 10
6.14922
 20
6.16713
 11
5.1055
 21
5.63795
  0
LINE
  8
0
 10
5.1055
 20
5.63795
 11
4.30302
 21
5.19279
  0
LINE
  8
0
 10
4.30302
 20
5.19279
 11
3.64545
 21
4.79614
  0
LINE
  8
0
 10
3.64545
 20
4.79614
 11
3.08478
 21
4.429
  0
LINE
  8
0
 10
3.08478
 20
4.429
 11
2.66646
 21
4.13319
  0
LINE
  8
0
 10
2.66646
 20
4.13319
 11
2.29659
 21
3.8521
  0
LINE
  8
0
 10
2.29659
 20
3.8521
 11
1.97475
 21
3.58896
  0
LINE
  8
0
 10
1.97475
 20
3.58896
 11
1.70055
 21
3.34778
  0
LINE
  8
0
 10
1.70055
 20
3.34778
 11
1.47346
 21
3.13335
  0
LINE
  8
0
 10
1.47346
 20
3.13335
 11
1.29291
 21
2.95111
  0
LINE
  8
0
 10
1.29291
 20
2.95111
 11
1.11354
 21
2.75745
  0
LINE
  8
0
 10
1.11354
 20
2.75745
 11
0.97995
 21
2.60318
  0
LINE
  8
0
 10
0.97995
 20
2.60318
 11
0.847321
 21
2.43961
  0
LINE
  8
0
 10
0.847321
 20
2.43961
 11
0.715851
 21
2.26476
  0
LINE
  8
0
 10
0.715851
 20
2.26476
 11
0.628967
 21
2.14061
  0
LINE
  8
0
 10
0.628967
 20
2.14061
 11
0.542862
 21
2.00909
  0
LINE
  8
0
 10
0.542862
 20
2.00909
 11
0.457642
 21
1.8687
  0
LINE
  8
0
 10
0.457642
 20
1.8687
 11
0.37355
 21
1.71729
  0
LINE
  8
0
 10
0.37355
 20
1.71729
 11
0.332016
 21
1.63651
  0
LINE
  8
0
 10
0.332016
 20
1.63651
 11
0.290909
 21
1.55168
  0
LINE
  8
0
 10
0.290909
 20
1.55168
 11
0.250259
 21
1.46207
  0
LINE
  8
0
 10
0.250259
 20
1.46207
 11
0.210205
 21
1.36679
  0
LINE
  8
0
 10
0.210205
 20
1.36679
 11
0.170837
 21
1.26454
  0
LINE
  8
0
 10
0.170837
 20
1.26454
 11
0.13237
 21
1.15352
  0
LINE
  8
0
 10
0.13237
 20
1.15352
 11
0.0950623
 21
1.03088
  0
LINE
  8
0
 10
0.0950623
 20
1.03088
 11
0.0594025
 21
0.891922
  0
LINE
  8
0
 10
0.0594025
 20
0.891922
 11
0.0263062
 21
0.727432
  0
LINE
  8
0
 10
0.0263062
 20
0.727432
 11
-0.00184631
 21
0.513626
  0
LINE
  8
0
 10
-0.00184631
 20
0.513626
 11
0
 21
0
  0
LINE
  8
0
 10
0
 20
0
 11
0.0998383
 21
-0.50383
  0
LINE
  8
0
 10
0.0998383
 20
-0.50383
 11
0.169693
 21
-0.707855
  0
LINE
  8
0
 10
0.169693
 20
-0.707855
 11
0.234589
 21
-0.862549
  0
LINE
  8
0
 10
0.234589
 20
-0.862549
 11
0.296921
 21
-0.991714
  0
LINE
  8
0
 10
0.296921
 20
-0.991714
 11
0.35762
 21
-1.10457
  0
LINE
  8
0
 10
0.35762
 20
-1.10457
 11
0.417145
 21
-1.20583
  0
LINE
  8
0
 10
0.417145
 20
-1.20583
 11
0.475784
 21
-1.29831
  0
LINE
  8
0
 10
0.475784
 20
-1.29831
 11
0.533722
 21
-1.38383
  0
LINE
  8
0
 10
0.533722
 20
-1.38383
 11
0.59108
 21
-1.46367
  0
LINE
  8
0
 10
0.59108
 20
-1.46367
 11
0.647964
 21
-1.53876
  0
LINE
  8
0
 10
0.647964
 20
-1.53876
 11
0.760544
 21
-1.67729
  0
LINE
  8
0
 10
0.760544
 20
-1.67729
 11
0.871857
 21
-1.80341
  0
LINE
  8
0
 10
0.871857
 20
-1.80341
 11
0.982178
 21
-1.91968
  0
LINE
  8
0
 10
0.982178
 20
-1.91968
 11
1.09166
 21
-2.02792
  0
LINE
  8
0
 10
1.09166
 20
-2.02792
 11
1.25464
 21
-2.17798
  0
LINE
  8
0
 10
1.25464
 20
-2.17798
 11
1.41637
 21
-2.31598
  0
LINE
  8
0
 10
1.41637
 20
-2.31598
 11
1.57707
 21
-2.44414
  0
LINE
  8
0
 10
1.57707
 20
-2.44414
 11
1.79004
 21
-2.60242
  0
LINE
  8
0
 10
1.79004
 20
-2.60242
 11
2.05452
 21
-2.78371
  0
LINE
  8
0
 10
2.05452
 20
-2.78371
 11
2.31743
 21
-2.9501
  0
LINE
  8
0
 10
2.31743
 20
-2.9501
 11
2.63123
 21
-3.13377
  0
LINE
  8
0
 10
2.63123
 20
-3.13377
 11
3.04729
 21
-3.3567
  0
LINE
  8
0
 10
3.04729
 20
-3.3567
 11
3.51274
 21
-3.5835
  0
LINE
  8
0
 10
3.51274
 20
-3.5835
 11
4.07866
 21
-3.83333
  0
LINE
  8
0
 10
4.07866
 20
-3.83333
 11
4.79512
 21
-4.1171
  0
LINE
  8
0
 10
4.79512
 20
-4.1171
 11
5.71138
 21
-4.43842
  0
LINE
  8
0
 10
5.71138
 20
-4.43842
 11
6.87593
 21
-4.7948
  0
LINE
  8
0
 10
6.87593
 20
-4.7948
 11
8.43709
 21
-5.2036
  0
LINE
  8
0
 10
8.43709
 20
-5.2036
 11
10.5905
 21
-5.67204
  0
LINE
  8
0
 10
10.5905
 20
-5.67204
 11
13.6279
 21
-6.19878
  0
LINE
  8
0
 10
13.6279
 20
-6.19878
 11
16.8974
 21
-6.64119
  0
LINE
  8
0
 10
16.8974
 20
-6.64119
 11
23.1537
 21
-7.24364
  0
LINE
  8
0
 10
23.1537
 20
-7.24364
 11
26.7345
 21
-7.48485
  0
LINE
  8
0
 10
26.7345
 20
-7.48485
 11
32.4563
 21
-7.75711
  0
LINE
  8
0
 10
32.4563
 20
-7.75711
 11
37.7717
 21
-7.91339
  0
LINE
  8
0
 10
37.7717
 20
-7.91339
 11
54.8237
 21
-7.99683
  0
LINE
  8
0
 10
54.8237
 20
-7.99683
 11
66.5466
 21
-7.82037
  0
ENDSEC
  0
SECTION
  2
OBJECTS
  0
DICTIONARY
  0
ENDSEC
  0
EOF
