  0
SECTION
  2
BLOCKS
  0
ENDSEC
  0
SECTION
  2
ENTITIES
  0
LINE
  8
0
 10
52.4961
 20
-8.01366
 11
55.8902
 21
-7.9868
  0
LINE
  8
0
 10
55.8902
 20
-7.9868
 11
59.767
 21
-7.93927
  0
LINE
  8
0
 10
59.767
 20
-7.93927
 11
64.61
 21
-7.85844
  0
LINE
  8
0
 10
64.61
 20
-7.85844
 11
70.9027
 21
-7.72455
  0
LINE
  8
0
 10
70.9027
 20
-7.72455
 11
80.096
 21
-7.48575
  0
LINE
  8
0
 10
80.096
 20
-7.48575
 11
99.9495
 21
-6.87874
  0
LINE
  8
0
 10
99.9495
 20
-6.87874
 11
108.724
 21
-6.57205
  0
LINE
  8
0
 10
108.724
 20
-6.57205
 11
120.429
 21
-6.10983
  0
LINE
  8
0
 10
120.429
 20
-6.10983
 11
138.489
 21
-5.31393
  0
LINE
  8
0
 10
138.489
 20
-5.31393
 11
144.839
 21
-5.01797
  0
LINE
  8
0
 10
144.839
 20
-5.01797
 11
144.839
 21
-5
  0
LINE
  8
0
 10
144.839
 20
-5
 11
80
 21
-5
  0
LINE
  8
0
 10
80
 20
-5
 11
80
 21
5
  0
LINE
  8
0
 10
80
 20
5
 11
215.776
 21
5
  0
LINE
  8
0
 10
215.776
 20
5
 11
215.776
 21
5.06337
  0
LINE
  8
0
 10
215.776
 20
5.06337
 11
211.383
 21
5.74858
  0
LINE
  8
0
 10
211.383
 20
5.74858
 11
206.499
 21
6.48811
  0
LINE
  8
0
 10
206.499
 20
6.48811
 11
202.101
 21
7.13422
  0
LINE
  8
0
 10
202.101
 20
7.13422
 11
197.211
 21
7.83063
  0
LINE
  8
0
 10
197.211
 20
7.83063
 11
192.809
 21
8.43816
  0
LINE
  8
0
 10
192.809
 20
8.43816
 11
187.915
 21
9.09189
  0
LINE
  8
0
 10
187.915
 20
9.09189
 11
183.508
 21
9.66106
  0
LINE
  8
0
 10
183.508
 20
9.66106
 11
179.099
 21
10.212
  0
LINE
  8
0
 10
179.099
 20
10.212
 11
174.689
 21
10.7447
  0
LINE
  8
0
 10
174.689
 20
10.7447
 11
170.276
 21
11.259
  0
LINE
  8
0
 10
170.276
 20
11.259
 11
166.353
 21
11.7005
  0
LINE
  8
0
 10
166.353
 20
11.7005
 11
162.428
 21
12.1272
  0
LINE
  8
0
 10
162.428
 20
12.1272
 11
157.52
 21
12.6394
  0
LINE
  8
0
 10
157.52
 20
12.6394
 11
153.101
 21
13.08
  0
LINE
  8
0
 10
153.101
 20
13.08
 11
148.68
 21
13.5009
  0
LINE
  8
0
 10
148.68
 20
13.5009
 11
144.749
 21
13.8583
  0
LINE
  8
0
 10
144.749
 20
13.8583
 11
140.818
 21
14.1994
  0
LINE
  8
0
 10
140.818
 20
14.1994
 11
137.377
 21
14.4844
  0
LINE
  8
0
 10
137.377
 20
14.4844
 11
133.443
 21
14.7942
  0
LINE
  8
0
 10
133.443
 20
14.7942
 11
129.508
 21
15.0868
  0
LINE
  8
0
 10
129.508
 20
15.0868
 11
125.572
 21
15.3616
  0
LINE
  8
0
 10
125.572
 20
15.3616
 11
121.636
 21
15.6182
  0
LINE
  8
0
 10
121.636
 20
15.6182
 11
118.19
 21
15.8273
  0
LINE
  8
0
 10
118.19
 20
15.8273
 11
114.745
 21
16.0217
  0
LINE
  8
0
 10
114.745
 20
16.0217
 11
111.298
 21
16.2009
  0
LINE
  8
0
 10
111.298
 20
16.2009
 11
107.851
 21
16.3645
  0
LINE
  8
0
 10
107.851
 20
16.3645
 11
104.896
 21
16.4919
  0
LINE
  8
0
 10
104.896
 20
16.4919
 11
101.941
 21
16.6071
  0
LINE
  8
0
 10
101.941
 20
16.6071
 11
98.9852
 21
16.7098
  0
LINE
  8
0
 10
98.9852
 20
16.7098
 11
96.5122
 21
16.785
  0
LINE
  8
0
 10
96.5122
 20
16.785
 11
94.5282
 21
16.8363
  0
LINE
  8
0
 10
94.5282
 20
16.8363
 11
92.544
 21
16.8794
  0
LINE
  8
0
 10
92.544
 20
16.8794
 11
90.5597
 21
16.9141
  0
LINE
  8
0
 10
90.5597
 20
16.9141
 11
88.5752
 21
16.9404
  0
LINE
  8
0
 10
88.5752
 20
16.9404
 11
86.5906
 21
16.9581
  0
LINE
  8
0
 10
86.5906
 20
16.9581
 11
84.6059
 21
16.9671
  0
LINE
  8
0
 10
84.6059
 20
16.9671
 11
82.6211
 21
16.9672
  0
LINE
  8
0
 10
82.6211
 20
16.9672
 11
80.6364
 21
16.9583
  0
LINE
  8
0
 10
80.6364
 20
16.9583
 11
78.6516
 21
16.9401
  0
LINE
  8
0
 10
78.6516
 20
16.9401
 11
76.6669
 21
16.9126
  0
LINE
  8
0
 10
76.6669
 20
16.9126
 11
74.6822
 21
16.8755
  0
LINE
  8
0
 10
74.6822
 20
16.8755
 11
72.6977
 21
16.8287
  0
LINE
  8
0
 10
72.6977
 20
16.8287
 11
70.7133
 21
16.772
  0
LINE
  8
0
 10
70.7133
 20
16.772
 11
68.7292
 21
16.7051
  0
LINE
  8
0
 10
68.7292
 20
16.7051
 11
66.7453
 21
16.6278
  0
LINE
  8
0
 10
66.7453
 20
16.6278
 11
65.2575
 21
16.563
  0
LINE
  8
0
 10
65.2575
 20
16.563
 11
63.2741
 21
16.467
  0
LINE
  8
0
 10
63.2741
 20
16.467
 11
61.7869
 21
16.3878
  0
LINE
  8
0
 10
61.7869
 20
16.3878
 11
60.2998
 21
16.3022
  0
LINE
  8
0
 10
60.2998
 20
16.3022
 11
58.813
 21
16.2102
  0
LINE
  8
0
 10
58.813
 20
16.2102
 11
57.3266
 21
16.1117
  0
LINE
  8
0
 10
57.3266
 20
16.1117
 11
55.8404
 21
16.0064
  0
LINE
  8
0
 10
55.8404
 20
16.0064
 11
54.3545
 21
15.8943
  0
LINE
  8
0
 10
54.3545
 20
15.8943
 11
52.869
 21
15.7751
  0
LINE
  8
0
 10
52.869
 20
15.7751
 11
51.3839
 21
15.6488
  0
LINE
  8
0
 10
51.3839
 20
15.6488
 11
49.8993
 21
15.5152
  0
LINE
  8
0
 10
49.8993
 20
15.5152
 11
48.415
 21
15.3741
  0
LINE
  8
0
 10
48.415
 20
15.3741
 11
46.9313
 21
15.2253
  0
LINE
  8
0
 10
46.9313
 20
15.2253
 11
45.4481
 21
15.0686
  0
LINE
  8
0
 10
45.4481
 20
15.0686
 11
43.9655
 21
14.9038
  0
LINE
  8
0
 10
43.9655
 20
14.9038
 11
42.4834
 21
14.7307
  0
LINE
  8
0
 10
42.4834
 20
14.7307
 11
41.002
 21
14.549
  0
LINE
  8
0
 10
41.002
 20
14.549
 11
39.5213
 21
14.3584
  0
LINE
  8
0
 10
39.5213
 20
14.3584
 11
38.5346
 21
14.2263
  0
LINE
  8
0
 10
38.5346
 20
14.2263
 11
37.5482
 21
14.09
  0
LINE
  8
0
 10
37.5482
 20
14.09
 11
36.5622
 21
13.9495
  0
LINE
  8
0
 10
36.5622
 20
13.9495
 11
35.5765
 21
13.8046
  0
LINE
  8
0
 10
35.5765
 20
13.8046
 11
34.5912
 21
13.6553
  0
LINE
  8
0
 10
34.5912
 20
13.6553
 11
33.6063
 21
13.5013
  0
LINE
  8
0
 10
33.6063
 20
13.5013
 11
32.6219
 21
13.3427
  0
LINE
  8
0
 10
32.6219
 20
13.3427
 11
31.6379
 21
13.1792
  0
LINE
  8
0
 10
31.6379
 20
13.1792
 11
30.6544
 21
13.0108
  0
LINE
  8
0
 10
30.6544
 20
13.0108
 11
29.6714
 21
12.8372
  0
LINE
  8
0
 10
29.6714
 20
12.8372
 11
28.6888
 21
12.6583
  0
LINE
  8
0
 10
28.6888
 20
12.6583
 11
27.7069
 21
12.4739
  0
LINE
  8
0
 10
27.7069
 20
12.4739
 11
26.7255
 21
12.2839
  0
LINE
  8
0
 10
26.7255
 20
12.2839
 11
25.7447
 21
12.088
  0
LINE
  8
0
 10
25.7447
 20
12.088
 11
24.7645
 21
11.886
  0
LINE
  8
0
 10
24.7645
 20
11.886
 11
23.785
 21
11.6776
  0
LINE
  8
0
 10
23.785
 20
11.6776
 11
22.8061
 21
11.4626
  0
LINE
  8
0
 10
22.8061
 20
11.4626
 11
21.8281
 21
11.2407
  0
LINE
  8
0
 10
21.8281
 20
11.2407
 11
20.8508
 21
11.0115
  0
LINE
  8
0
 10
20.8508
 20
11.0115
 11
20.3624
 21
10.8941
  0
LINE
  8
0
 10
20.3624
 20
10.8941
 11
19.3864
 21
10.6534
  0
LINE
  8
0
 10
19.3864
 20
10.6534
 11
18.8987
 21
10.5299
  0
LINE
  8
0
 10
18.8987
 20
10.5299
 11
18.4113
 21
10.4043
  0
LINE
  8
0
 10
18.4113
 20
10.4043
 11
17.9241
 21
10.2766
  0
LINE
  8
0
 10
17.9241
 20
10.2766
 11
17.4371
 21
10.1466
  0
LINE
  8
0
 10
17.4371
 20
10.1466
 11
16.9505
 21
10.0142
  0
LINE
  8
0
 10
16.9505
 20
10.0142
 11
16.464
 21
9.87949
  0
LINE
  8
0
 10
16.464
 20
9.87949
 11
15.9779
 21
9.74226
  0
LINE
  8
0
 10
15.9779
 20
9.74226
 11
15.4921
 21
9.60246
  0
LINE
  8
0
 10
15.4921
 20
9.60246
 11
15.0065
 21
9.46001
  0
LINE
  8
0
 10
15.0065
 20
9.46001
 11
14.5213
 21
9.31476
  0
LINE
  8
0
 10
14.5213
 20
9.31476
 11
14.0364
 21
9.16666
  0
LINE
  8
0
 10
14.0364
 20
9.16666
 11
13.5519
 21
9.01553
  0
LINE
  8
0
 10
13.5519
 20
9.01553
 11
13.0677
 21
8.86128
  0
LINE
  8
0
 10
13.0677
 20
8.86128
 11
12.5838
 21
8.70377
  0
LINE
  8
0
 10
12.5838
 20
8.70377
 11
12.1004
 21
8.54282
  0
LINE
  8
0
 10
12.1004
 20
8.54282
 11
11.6174
 21
8.3783
  0
LINE
  8
0
 10
11.6174
 20
8.3783
 11
11.1348
 21
8.20998
  0
LINE
  8
0
 10
11.1348
 20
8.20998
 11
10.6527
 21
8.03766
  0
LINE
  8
0
 10
10.6527
 20
8.03766
 11
10.171
 21
7.86115
  0
LINE
  8
0
 10
10.171
 20
7.86115
 11
9.68988
 21
7.68015
  0
LINE
  8
0
 10
9.68988
 20
7.68015
 11
9.20929
 21
7.49438
  0
LINE
  8
0
 10
9.20929
 20
7.49438
 11
8.72928
 21
7.30357
  0
LINE
  8
0
 10
8.72928
 20
7.30357
 11
8.24988
 21
7.10732
  0
LINE
  8
0
 10
8.24988
 20
7.10732
 11
7.77115
 21
6.9052
  0
LINE
  8
0
 10
7.77115
 20
6.9052
 11
7.29314
 21
6.69675
  0
LINE
  8
0
 10
7.29314
 20
6.69675
 11
6.8159
 21
6.48141
  0
LINE
  8
0
 10
6.8159
 20
6.48141
 11
6.33951
 21
6.25854
  0
LINE
  8
0
 10
6.33951
 20
6.25854
 11
5.86406
 21
6.02739
  0
LINE
  8
0
 10
5.86406
 20
6.02739
 11
5.38962
 21
5.78705
  0
LINE
  8
0
 10
5.38962
 20
5.78705
 11
4.91634
 21
5.53638
  0
LINE
  8
0
 10
4.91634
 20
5.53638
 11
4.44434
 21
5.27402
  0
LINE
  8
0
 10
4.44434
 20
5.27402
 11
3.97382
 21
4.99829
  0
LINE
  8
0
 10
3.97382
 20
4.99829
 11
3.505
 21
4.70695
  0
LINE
  8
0
 10
3.505
 20
4.70695
 11
3.03819
 21
4.39708
  0
LINE
  8
0
 10
3.03819
 20
4.39708
 11
2.57381
 21
4.06467
  0
LINE
  8
0
 10
2.57381
 20
4.06467
 11
2.11246
 21
3.70392
  0
LINE
  8
0
 10
2.11246
 20
3.70392
 11
1.65503
 21
3.30597
  0
LINE
  8
0
 10
1.65503
 20
3.30597
 11
1.20306
 21
2.85585
  0
LINE
  8
0
 10
1.20306
 20
2.85585
 11
0.759521
 21
2.32445
  0
LINE
  8
0
 10
0.759521
 20
2.32445
 11
0.332016
 21
1.63651
  0
LINE
  8
0
 10
0.332016
 20
1.63651
 11
0
 21
0
  0
LINE
  8
0
 10
0
 20
0
 11
0.647964
 21
-1.53876
  0
LINE
  8
0
 10
0.647964
 20
-1.53876
 11
1.20047
 21
-2.12943
  0
LINE
  8
0
 10
1.20047
 20
-2.12943
 11
1.73692
 21
-2.56406
  0
LINE
  8
0
 10
1.73692
 20
-2.56406
 11
2.26497
 21
-2.91788
  0
LINE
  8
0
 10
2.26497
 20
-2.91788
 11
2.78754
 21
-3.22005
  0
LINE
  8
0
 10
2.78754
 20
-3.22005
 11
3.30617
 21
-3.48549
  0
LINE
  8
0
 10
3.30617
 20
-3.48549
 11
3.82179
 21
-3.72308
  0
LINE
  8
0
 10
3.82179
 20
-3.72308
 11
4.33498
 21
-3.93863
  0
LINE
  8
0
 10
4.33498
 20
-3.93863
 11
4.84616
 21
-4.13614
  0
LINE
  8
0
 10
4.84616
 20
-4.13614
 11
5.35564
 21
-4.31853
  0
LINE
  8
0
 10
5.35564
 20
-4.31853
 11
5.86365
 21
-4.48801
  0
LINE
  8
0
 10
5.86365
 20
-4.48801
 11
6.37036
 21
-4.64632
  0
LINE
  8
0
 10
6.37036
 20
-4.64632
 11
6.87593
 21
-4.7948
  0
LINE
  8
0
 10
6.87593
 20
-4.7948
 11
7.38048
 21
-4.93457
  0
LINE
  8
0
 10
7.38048
 20
-4.93457
 11
7.88408
 21
-5.06653
  0
LINE
  8
0
 10
7.88408
 20
-5.06653
 11
8.38686
 21
-5.19147
  0
LINE
  8
0
 10
8.38686
 20
-5.19147
 11
8.88884
 21
-5.31
  0
LINE
  8
0
 10
8.88884
 20
-5.31
 11
9.39011
 21
-5.4227
  0
LINE
  8
0
 10
9.39011
 20
-5.4227
 11
9.89072
 21
-5.53003
  0
LINE
  8
0
 10
9.89072
 20
-5.53003
 11
10.3907
 21
-5.63239
  0
LINE
  8
0
 10
10.3907
 20
-5.63239
 11
10.8901
 21
-5.73019
  0
LINE
  8
0
 10
10.8901
 20
-5.73019
 11
11.389
 21
-5.82372
  0
LINE
  8
0
 10
11.389
 20
-5.82372
 11
11.8873
 21
-5.91327
  0
LINE
  8
0
 10
11.8873
 20
-5.91327
 11
12.3852
 21
-5.9991
  0
LINE
  8
0
 10
12.3852
 20
-5.9991
 11
12.8826
 21
-6.08141
  0
LINE
  8
0
 10
12.8826
 20
-6.08141
 11
13.3796
 21
-6.16045
  0
LINE
  8
0
 10
13.3796
 20
-6.16045
 11
13.8762
 21
-6.23637
  0
LINE
  8
0
 10
13.8762
 20
-6.23637
 11
14.3723
 21
-6.30936
  0
LINE
  8
0
 10
14.3723
 20
-6.30936
 11
14.8681
 21
-6.37958
  0
LINE
  8
0
 10
14.8681
 20
-6.37958
 11
15.3636
 21
-6.44716
  0
LINE
  8
0
 10
15.3636
 20
-6.44716
 11
15.8587
 21
-6.51221
  0
LINE
  8
0
 10
15.8587
 20
-6.51221
 11
16.3535
 21
-6.57487
  0
LINE
  8
0
 10
16.3535
 20
-6.57487
 11
16.8479
 21
-6.63527
  0
LINE
  8
0
 10
16.8479
 20
-6.63527
 11
17.3421
 21
-6.69348
  0
LINE
  8
0
 10
17.3421
 20
-6.69348
 11
18.3295
 21
-6.80376
  0
LINE
  8
0
 10
18.3295
 20
-6.80376
 11
19.3159
 21
-6.90636
  0
LINE
  8
0
 10
19.3159
 20
-6.90636
 11
20.3013
 21
-7.00191
  0
LINE
  8
0
 10
20.3013
 20
-7.00191
 11
21.2857
 21
-7.09091
  0
LINE
  8
0
 10
21.2857
 20
-7.09091
 11
22.2692
 21
-7.17384
  0
LINE
  8
0
 10
22.2692
 20
-7.17384
 11
23.2519
 21
-7.25111
  0
LINE
  8
0
 10
23.2519
 20
-7.25111
 11
24.2339
 21
-7.32309
  0
LINE
  8
0
 10
24.2339
 20
-7.32309
 11
25.215
 21
-7.39009
  0
LINE
  8
0
 10
25.215
 20
-7.39009
 11
26.1955
 21
-7.45244
  0
LINE
  8
0
 10
26.1955
 20
-7.45244
 11
27.1753
 21
-7.51039
  0
LINE
  8
0
 10
27.1753
 20
-7.51039
 11
28.6439
 21
-7.58963
  0
LINE
  8
0
 10
28.6439
 20
-7.58963
 11
30.1112
 21
-7.66028
  0
LINE
  8
0
 10
30.1112
 20
-7.66028
 11
31.5772
 21
-7.72302
  0
LINE
  8
0
 10
31.5772
 20
-7.72302
 11
33.0421
 21
-7.77843
  0
LINE
  8
0
 10
33.0421
 20
-7.77843
 11
34.5059
 21
-7.82704
  0
LINE
  8
0
 10
34.5059
 20
-7.82704
 11
35.9688
 21
-7.86934
  0
LINE
  8
0
 10
35.9688
 20
-7.86934
 11
37.9178
 21
-7.9166
  0
LINE
  8
0
 10
37.9178
 20
-7.9166
 11
39.8654
 21
-7.95427
  0
LINE
  8
0
 10
39.8654
 20
-7.95427
 11
41.8116
 21
-7.98315
  0
LINE
  8
0
 10
41.8116
 20
-7.98315
 11
44.2426
 21
-8.00798
  0
LINE
  8
0
 10
44.2426
 20
-8.00798
 11
46.6719
 21
-8.02144
  0
LINE
  8
0
 10
46.6719
 20
-8.02144
 11
49.585
 21
-8.02411
  0
LINE
  8
0
 10
49.585
 20
-8.02411
 11
52.4961
 21
-8.01366
  0
ENDSEC
  0
SECTION
  2
OBJECTS
  0
DICTIONARY
  0
ENDSEC
  0
EOF
